M48
; DRILL file {KiCad 5.1.10-88a1d61d58~90~ubuntu20.04.1} date Sun Oct 17 13:06:14 2021
; FORMAT={-:-/ absolute / inch / decimal}
; #@! TF.CreationDate,2021-10-17T13:06:14+02:00
; #@! TF.GenerationSoftware,Kicad,Pcbnew,5.1.10-88a1d61d58~90~ubuntu20.04.1
; #@! TF.FileFunction,Plated,1,4,PTH
FMAT,2
INCH
T1C0.0118
T2C0.0197
T3C0.0276
T4C0.0315
%
G90
G05
T1
X2.1043Y-2.3561
X2.511Y-2.1201
X2.5866Y-2.3561
X2.8071Y-2.3465
X3.3937Y-2.3945
X3.4724Y-2.311
X3.5384Y-2.1949
X3.5408Y-2.3189
X3.6373Y-2.2435
X3.6575Y-2.2737
X3.6614Y-2.1752
X3.6662Y-2.3286
X3.6874Y-2.3794
X3.9961Y-2.3307
X4.2283Y-2.374
X4.2598Y-2.3898
X4.6654Y-2.36
X4.7441Y-2.36
T2
X3.3406Y-2.124
X3.3425Y-2.3228
X3.7244Y-2.126
X3.7404Y-2.3268
T3
X2.2343Y-2.2244
X2.2343Y-2.3425
X2.2835Y-2.2244
X2.2835Y-2.3425
X2.4902Y-2.2244
X2.4941Y-2.3425
X2.8642Y-2.2244
X2.9134Y-2.2244
X2.9626Y-2.2244
X3.0217Y-2.2244
X3.0807Y-2.2244
X4.0059Y-2.2244
X4.065Y-2.2244
X4.124Y-2.2244
X4.1831Y-2.2244
X4.5965Y-2.2244
X4.6555Y-2.2244
X4.7146Y-2.2244
X4.7736Y-2.2244
X4.8031Y-2.3524
X4.8327Y-2.2244
X4.8622Y-2.3524
T4
X1.6535Y-2.2244
X1.6831Y-2.1358
X1.6831Y-2.313
X1.7717Y-2.0472
X1.7717Y-2.4016
X5.315Y-2.0472
X5.315Y-2.4016
X5.4035Y-2.1358
X5.4035Y-2.313
X5.4331Y-2.2244
T0
M30
