%TF.GenerationSoftware,KiCad,Pcbnew,5.1.10-88a1d61d58~90~ubuntu20.04.1*%
%TF.CreationDate,2021-10-17T13:06:20+02:00*%
%TF.ProjectId,LightSTICK,4c696768-7453-4544-9943-4b2e6b696361,rev?*%
%TF.SameCoordinates,Original*%
%TF.FileFunction,Paste,Top*%
%TF.FilePolarity,Positive*%
%FSLAX46Y46*%
G04 Gerber Fmt 4.6, Leading zero omitted, Abs format (unit mm)*
G04 Created by KiCad (PCBNEW 5.1.10-88a1d61d58~90~ubuntu20.04.1) date 2021-10-17 13:06:20*
%MOMM*%
%LPD*%
G01*
G04 APERTURE LIST*
%ADD10R,2.800000X1.000000*%
%ADD11R,2.000000X1.000000*%
G04 APERTURE END LIST*
%TO.C,D4*%
G36*
G01*
X126630000Y-58913000D02*
X126630000Y-54087000D01*
G75*
G02*
X126717000Y-54000000I87000J0D01*
G01*
X128283000Y-54000000D01*
G75*
G02*
X128370000Y-54087000I0J-87000D01*
G01*
X128370000Y-58913000D01*
G75*
G02*
X128283000Y-59000000I-87000J0D01*
G01*
X126717000Y-59000000D01*
G75*
G02*
X126630000Y-58913000I0J87000D01*
G01*
G37*
G36*
G01*
X128850000Y-58450000D02*
X128850000Y-57750000D01*
G75*
G02*
X129000000Y-57600000I150000J0D01*
G01*
X130700000Y-57600000D01*
G75*
G02*
X130850000Y-57750000I0J-150000D01*
G01*
X130850000Y-58450000D01*
G75*
G02*
X130700000Y-58600000I-150000J0D01*
G01*
X129000000Y-58600000D01*
G75*
G02*
X128850000Y-58450000I0J150000D01*
G01*
G37*
D10*
X129500000Y-56500000D03*
G36*
G01*
X128850000Y-55250000D02*
X128850000Y-54550000D01*
G75*
G02*
X129000000Y-54400000I150000J0D01*
G01*
X130700000Y-54400000D01*
G75*
G02*
X130850000Y-54550000I0J-150000D01*
G01*
X130850000Y-55250000D01*
G75*
G02*
X130700000Y-55400000I-150000J0D01*
G01*
X129000000Y-55400000D01*
G75*
G02*
X128850000Y-55250000I0J150000D01*
G01*
G37*
G36*
G01*
X124150000Y-58450000D02*
X124150000Y-57750000D01*
G75*
G02*
X124300000Y-57600000I150000J0D01*
G01*
X126000000Y-57600000D01*
G75*
G02*
X126150000Y-57750000I0J-150000D01*
G01*
X126150000Y-58450000D01*
G75*
G02*
X126000000Y-58600000I-150000J0D01*
G01*
X124300000Y-58600000D01*
G75*
G02*
X124150000Y-58450000I0J150000D01*
G01*
G37*
G36*
G01*
X124100000Y-56850000D02*
X124100000Y-56150000D01*
G75*
G02*
X124250000Y-56000000I150000J0D01*
G01*
X125950000Y-56000000D01*
G75*
G02*
X126100000Y-56150000I0J-150000D01*
G01*
X126100000Y-56850000D01*
G75*
G02*
X125950000Y-57000000I-150000J0D01*
G01*
X124250000Y-57000000D01*
G75*
G02*
X124100000Y-56850000I0J150000D01*
G01*
G37*
D11*
X125150000Y-54900000D03*
%TD*%
%TO.C,D5*%
G36*
G01*
X111630000Y-58913000D02*
X111630000Y-54087000D01*
G75*
G02*
X111717000Y-54000000I87000J0D01*
G01*
X113283000Y-54000000D01*
G75*
G02*
X113370000Y-54087000I0J-87000D01*
G01*
X113370000Y-58913000D01*
G75*
G02*
X113283000Y-59000000I-87000J0D01*
G01*
X111717000Y-59000000D01*
G75*
G02*
X111630000Y-58913000I0J87000D01*
G01*
G37*
G36*
G01*
X113850000Y-58450000D02*
X113850000Y-57750000D01*
G75*
G02*
X114000000Y-57600000I150000J0D01*
G01*
X115700000Y-57600000D01*
G75*
G02*
X115850000Y-57750000I0J-150000D01*
G01*
X115850000Y-58450000D01*
G75*
G02*
X115700000Y-58600000I-150000J0D01*
G01*
X114000000Y-58600000D01*
G75*
G02*
X113850000Y-58450000I0J150000D01*
G01*
G37*
D10*
X114500000Y-56500000D03*
G36*
G01*
X113850000Y-55250000D02*
X113850000Y-54550000D01*
G75*
G02*
X114000000Y-54400000I150000J0D01*
G01*
X115700000Y-54400000D01*
G75*
G02*
X115850000Y-54550000I0J-150000D01*
G01*
X115850000Y-55250000D01*
G75*
G02*
X115700000Y-55400000I-150000J0D01*
G01*
X114000000Y-55400000D01*
G75*
G02*
X113850000Y-55250000I0J150000D01*
G01*
G37*
G36*
G01*
X109150000Y-58450000D02*
X109150000Y-57750000D01*
G75*
G02*
X109300000Y-57600000I150000J0D01*
G01*
X111000000Y-57600000D01*
G75*
G02*
X111150000Y-57750000I0J-150000D01*
G01*
X111150000Y-58450000D01*
G75*
G02*
X111000000Y-58600000I-150000J0D01*
G01*
X109300000Y-58600000D01*
G75*
G02*
X109150000Y-58450000I0J150000D01*
G01*
G37*
G36*
G01*
X109100000Y-56850000D02*
X109100000Y-56150000D01*
G75*
G02*
X109250000Y-56000000I150000J0D01*
G01*
X110950000Y-56000000D01*
G75*
G02*
X111100000Y-56150000I0J-150000D01*
G01*
X111100000Y-56850000D01*
G75*
G02*
X110950000Y-57000000I-150000J0D01*
G01*
X109250000Y-57000000D01*
G75*
G02*
X109100000Y-56850000I0J150000D01*
G01*
G37*
D11*
X110150000Y-54900000D03*
%TD*%
%TO.C,D3*%
G36*
G01*
X83370000Y-54087000D02*
X83370000Y-58913000D01*
G75*
G02*
X83283000Y-59000000I-87000J0D01*
G01*
X81717000Y-59000000D01*
G75*
G02*
X81630000Y-58913000I0J87000D01*
G01*
X81630000Y-54087000D01*
G75*
G02*
X81717000Y-54000000I87000J0D01*
G01*
X83283000Y-54000000D01*
G75*
G02*
X83370000Y-54087000I0J-87000D01*
G01*
G37*
G36*
G01*
X81150000Y-54550000D02*
X81150000Y-55250000D01*
G75*
G02*
X81000000Y-55400000I-150000J0D01*
G01*
X79300000Y-55400000D01*
G75*
G02*
X79150000Y-55250000I0J150000D01*
G01*
X79150000Y-54550000D01*
G75*
G02*
X79300000Y-54400000I150000J0D01*
G01*
X81000000Y-54400000D01*
G75*
G02*
X81150000Y-54550000I0J-150000D01*
G01*
G37*
D10*
X80500000Y-56500000D03*
G36*
G01*
X81150000Y-57750000D02*
X81150000Y-58450000D01*
G75*
G02*
X81000000Y-58600000I-150000J0D01*
G01*
X79300000Y-58600000D01*
G75*
G02*
X79150000Y-58450000I0J150000D01*
G01*
X79150000Y-57750000D01*
G75*
G02*
X79300000Y-57600000I150000J0D01*
G01*
X81000000Y-57600000D01*
G75*
G02*
X81150000Y-57750000I0J-150000D01*
G01*
G37*
G36*
G01*
X85850000Y-54550000D02*
X85850000Y-55250000D01*
G75*
G02*
X85700000Y-55400000I-150000J0D01*
G01*
X84000000Y-55400000D01*
G75*
G02*
X83850000Y-55250000I0J150000D01*
G01*
X83850000Y-54550000D01*
G75*
G02*
X84000000Y-54400000I150000J0D01*
G01*
X85700000Y-54400000D01*
G75*
G02*
X85850000Y-54550000I0J-150000D01*
G01*
G37*
G36*
G01*
X85900000Y-56150000D02*
X85900000Y-56850000D01*
G75*
G02*
X85750000Y-57000000I-150000J0D01*
G01*
X84050000Y-57000000D01*
G75*
G02*
X83900000Y-56850000I0J150000D01*
G01*
X83900000Y-56150000D01*
G75*
G02*
X84050000Y-56000000I150000J0D01*
G01*
X85750000Y-56000000D01*
G75*
G02*
X85900000Y-56150000I0J-150000D01*
G01*
G37*
D11*
X84850000Y-58100000D03*
%TD*%
%TO.C,D2*%
G36*
G01*
X68370000Y-54087000D02*
X68370000Y-58913000D01*
G75*
G02*
X68283000Y-59000000I-87000J0D01*
G01*
X66717000Y-59000000D01*
G75*
G02*
X66630000Y-58913000I0J87000D01*
G01*
X66630000Y-54087000D01*
G75*
G02*
X66717000Y-54000000I87000J0D01*
G01*
X68283000Y-54000000D01*
G75*
G02*
X68370000Y-54087000I0J-87000D01*
G01*
G37*
G36*
G01*
X66150000Y-54550000D02*
X66150000Y-55250000D01*
G75*
G02*
X66000000Y-55400000I-150000J0D01*
G01*
X64300000Y-55400000D01*
G75*
G02*
X64150000Y-55250000I0J150000D01*
G01*
X64150000Y-54550000D01*
G75*
G02*
X64300000Y-54400000I150000J0D01*
G01*
X66000000Y-54400000D01*
G75*
G02*
X66150000Y-54550000I0J-150000D01*
G01*
G37*
D10*
X65500000Y-56500000D03*
G36*
G01*
X66150000Y-57750000D02*
X66150000Y-58450000D01*
G75*
G02*
X66000000Y-58600000I-150000J0D01*
G01*
X64300000Y-58600000D01*
G75*
G02*
X64150000Y-58450000I0J150000D01*
G01*
X64150000Y-57750000D01*
G75*
G02*
X64300000Y-57600000I150000J0D01*
G01*
X66000000Y-57600000D01*
G75*
G02*
X66150000Y-57750000I0J-150000D01*
G01*
G37*
G36*
G01*
X70850000Y-54550000D02*
X70850000Y-55250000D01*
G75*
G02*
X70700000Y-55400000I-150000J0D01*
G01*
X69000000Y-55400000D01*
G75*
G02*
X68850000Y-55250000I0J150000D01*
G01*
X68850000Y-54550000D01*
G75*
G02*
X69000000Y-54400000I150000J0D01*
G01*
X70700000Y-54400000D01*
G75*
G02*
X70850000Y-54550000I0J-150000D01*
G01*
G37*
G36*
G01*
X70900000Y-56150000D02*
X70900000Y-56850000D01*
G75*
G02*
X70750000Y-57000000I-150000J0D01*
G01*
X69050000Y-57000000D01*
G75*
G02*
X68900000Y-56850000I0J150000D01*
G01*
X68900000Y-56150000D01*
G75*
G02*
X69050000Y-56000000I150000J0D01*
G01*
X70750000Y-56000000D01*
G75*
G02*
X70900000Y-56150000I0J-150000D01*
G01*
G37*
D11*
X69850000Y-58100000D03*
%TD*%
%TO.C,D1*%
G36*
G01*
X53370000Y-54086999D02*
X53370000Y-58912999D01*
G75*
G02*
X53283000Y-58999999I-87000J0D01*
G01*
X51717000Y-58999999D01*
G75*
G02*
X51630000Y-58912999I0J87000D01*
G01*
X51630000Y-54086999D01*
G75*
G02*
X51717000Y-53999999I87000J0D01*
G01*
X53283000Y-53999999D01*
G75*
G02*
X53370000Y-54086999I0J-87000D01*
G01*
G37*
G36*
G01*
X51150000Y-54549999D02*
X51150000Y-55249999D01*
G75*
G02*
X51000000Y-55399999I-150000J0D01*
G01*
X49300000Y-55399999D01*
G75*
G02*
X49150000Y-55249999I0J150000D01*
G01*
X49150000Y-54549999D01*
G75*
G02*
X49300000Y-54399999I150000J0D01*
G01*
X51000000Y-54399999D01*
G75*
G02*
X51150000Y-54549999I0J-150000D01*
G01*
G37*
D10*
X50500000Y-56499999D03*
G36*
G01*
X51150000Y-57749999D02*
X51150000Y-58449999D01*
G75*
G02*
X51000000Y-58599999I-150000J0D01*
G01*
X49300000Y-58599999D01*
G75*
G02*
X49150000Y-58449999I0J150000D01*
G01*
X49150000Y-57749999D01*
G75*
G02*
X49300000Y-57599999I150000J0D01*
G01*
X51000000Y-57599999D01*
G75*
G02*
X51150000Y-57749999I0J-150000D01*
G01*
G37*
G36*
G01*
X55850000Y-54549999D02*
X55850000Y-55249999D01*
G75*
G02*
X55700000Y-55399999I-150000J0D01*
G01*
X54000000Y-55399999D01*
G75*
G02*
X53850000Y-55249999I0J150000D01*
G01*
X53850000Y-54549999D01*
G75*
G02*
X54000000Y-54399999I150000J0D01*
G01*
X55700000Y-54399999D01*
G75*
G02*
X55850000Y-54549999I0J-150000D01*
G01*
G37*
G36*
G01*
X55900000Y-56149999D02*
X55900000Y-56849999D01*
G75*
G02*
X55750000Y-56999999I-150000J0D01*
G01*
X54050000Y-56999999D01*
G75*
G02*
X53900000Y-56849999I0J150000D01*
G01*
X53900000Y-56149999D01*
G75*
G02*
X54050000Y-55999999I150000J0D01*
G01*
X55750000Y-55999999D01*
G75*
G02*
X55900000Y-56149999I0J-150000D01*
G01*
G37*
D11*
X54850000Y-58099999D03*
%TD*%
%TO.C,D6*%
G36*
G01*
X96630000Y-58913000D02*
X96630000Y-54087000D01*
G75*
G02*
X96717000Y-54000000I87000J0D01*
G01*
X98283000Y-54000000D01*
G75*
G02*
X98370000Y-54087000I0J-87000D01*
G01*
X98370000Y-58913000D01*
G75*
G02*
X98283000Y-59000000I-87000J0D01*
G01*
X96717000Y-59000000D01*
G75*
G02*
X96630000Y-58913000I0J87000D01*
G01*
G37*
G36*
G01*
X98850000Y-58450000D02*
X98850000Y-57750000D01*
G75*
G02*
X99000000Y-57600000I150000J0D01*
G01*
X100700000Y-57600000D01*
G75*
G02*
X100850000Y-57750000I0J-150000D01*
G01*
X100850000Y-58450000D01*
G75*
G02*
X100700000Y-58600000I-150000J0D01*
G01*
X99000000Y-58600000D01*
G75*
G02*
X98850000Y-58450000I0J150000D01*
G01*
G37*
D10*
X99500000Y-56500000D03*
G36*
G01*
X98850000Y-55250000D02*
X98850000Y-54550000D01*
G75*
G02*
X99000000Y-54400000I150000J0D01*
G01*
X100700000Y-54400000D01*
G75*
G02*
X100850000Y-54550000I0J-150000D01*
G01*
X100850000Y-55250000D01*
G75*
G02*
X100700000Y-55400000I-150000J0D01*
G01*
X99000000Y-55400000D01*
G75*
G02*
X98850000Y-55250000I0J150000D01*
G01*
G37*
G36*
G01*
X94150000Y-58450000D02*
X94150000Y-57750000D01*
G75*
G02*
X94300000Y-57600000I150000J0D01*
G01*
X96000000Y-57600000D01*
G75*
G02*
X96150000Y-57750000I0J-150000D01*
G01*
X96150000Y-58450000D01*
G75*
G02*
X96000000Y-58600000I-150000J0D01*
G01*
X94300000Y-58600000D01*
G75*
G02*
X94150000Y-58450000I0J150000D01*
G01*
G37*
G36*
G01*
X94100000Y-56850000D02*
X94100000Y-56150000D01*
G75*
G02*
X94250000Y-56000000I150000J0D01*
G01*
X95950000Y-56000000D01*
G75*
G02*
X96100000Y-56150000I0J-150000D01*
G01*
X96100000Y-56850000D01*
G75*
G02*
X95950000Y-57000000I-150000J0D01*
G01*
X94250000Y-57000000D01*
G75*
G02*
X94100000Y-56850000I0J150000D01*
G01*
G37*
D11*
X95150000Y-54900000D03*
%TD*%
M02*
