%TF.GenerationSoftware,KiCad,Pcbnew,5.1.10-88a1d61d58~90~ubuntu20.04.1*%
%TF.CreationDate,2021-10-17T13:06:20+02:00*%
%TF.ProjectId,LightSTICK,4c696768-7453-4544-9943-4b2e6b696361,rev?*%
%TF.SameCoordinates,Original*%
%TF.FileFunction,Legend,Bot*%
%TF.FilePolarity,Positive*%
%FSLAX46Y46*%
G04 Gerber Fmt 4.6, Leading zero omitted, Abs format (unit mm)*
G04 Created by KiCad (PCBNEW 5.1.10-88a1d61d58~90~ubuntu20.04.1) date 2021-10-17 13:06:20*
%MOMM*%
%LPD*%
G01*
G04 APERTURE LIST*
%ADD10C,0.120000*%
%ADD11C,0.150000*%
%ADD12C,0.100000*%
%ADD13C,0.200000*%
%ADD14C,0.250000*%
%ADD15C,0.010000*%
%ADD16C,0.400000*%
%ADD17C,0.300000*%
G04 APERTURE END LIST*
D10*
X73100000Y-53000000D02*
X73500000Y-53400000D01*
X73500000Y-56800000D02*
X73000000Y-57300000D01*
X71500000Y-57300000D02*
X71000000Y-57800000D01*
D11*
X59116666Y-60861904D02*
X58950000Y-61661904D01*
X58816666Y-61090476D01*
X58683333Y-61661904D01*
X58516666Y-60861904D01*
X58316666Y-60861904D02*
X58150000Y-61661904D01*
X58016666Y-61090476D01*
X57883333Y-61661904D01*
X57716666Y-60861904D01*
X57516666Y-60861904D02*
X57350000Y-61661904D01*
X57216666Y-61090476D01*
X57083333Y-61661904D01*
X56916666Y-60861904D01*
X56650000Y-61585714D02*
X56616666Y-61623809D01*
X56650000Y-61661904D01*
X56683333Y-61623809D01*
X56650000Y-61585714D01*
X56650000Y-61661904D01*
X56316666Y-61661904D02*
X56316666Y-60861904D01*
X56316666Y-61242857D02*
X55916666Y-61242857D01*
X55916666Y-61661904D02*
X55916666Y-60861904D01*
X55583333Y-61242857D02*
X55350000Y-61242857D01*
X55250000Y-61661904D02*
X55583333Y-61661904D01*
X55583333Y-60861904D01*
X55250000Y-60861904D01*
X55016666Y-60861904D02*
X54550000Y-61661904D01*
X54550000Y-60861904D02*
X55016666Y-61661904D01*
X54283333Y-61242857D02*
X54050000Y-61242857D01*
X53950000Y-61661904D02*
X54283333Y-61661904D01*
X54283333Y-60861904D01*
X53950000Y-60861904D01*
X53416666Y-61242857D02*
X53650000Y-61242857D01*
X53650000Y-61661904D02*
X53650000Y-60861904D01*
X53316666Y-60861904D01*
X53116666Y-60861904D02*
X52650000Y-61661904D01*
X52650000Y-60861904D02*
X53116666Y-61661904D01*
X52383333Y-61585714D02*
X52350000Y-61623809D01*
X52383333Y-61661904D01*
X52416666Y-61623809D01*
X52383333Y-61585714D01*
X52383333Y-61661904D01*
X51650000Y-61585714D02*
X51683333Y-61623809D01*
X51783333Y-61661904D01*
X51850000Y-61661904D01*
X51950000Y-61623809D01*
X52016666Y-61547619D01*
X52050000Y-61471428D01*
X52083333Y-61319047D01*
X52083333Y-61204761D01*
X52050000Y-61052380D01*
X52016666Y-60976190D01*
X51950000Y-60900000D01*
X51850000Y-60861904D01*
X51783333Y-60861904D01*
X51683333Y-60900000D01*
X51650000Y-60938095D01*
X51216666Y-60861904D02*
X51083333Y-60861904D01*
X51016666Y-60900000D01*
X50950000Y-60976190D01*
X50916666Y-61128571D01*
X50916666Y-61395238D01*
X50950000Y-61547619D01*
X51016666Y-61623809D01*
X51083333Y-61661904D01*
X51216666Y-61661904D01*
X51283333Y-61623809D01*
X51350000Y-61547619D01*
X51383333Y-61395238D01*
X51383333Y-61128571D01*
X51350000Y-60976190D01*
X51283333Y-60900000D01*
X51216666Y-60861904D01*
X50616666Y-61661904D02*
X50616666Y-60861904D01*
X50383333Y-61433333D01*
X50150000Y-60861904D01*
X50150000Y-61661904D01*
D10*
X85700000Y-55200000D02*
X85900000Y-55400000D01*
X85700000Y-55200000D02*
X85900000Y-55000000D01*
X86700000Y-55200000D02*
X85700000Y-55200000D01*
X86700000Y-53400000D02*
X86500000Y-53600000D01*
X86700000Y-53400000D02*
X86500000Y-53200000D01*
X85600000Y-53400000D02*
X86700000Y-53400000D01*
D11*
X89216666Y-51216666D02*
X89216666Y-51783333D01*
X89183333Y-51850000D01*
X89150000Y-51883333D01*
X89083333Y-51916666D01*
X88950000Y-51916666D01*
X88883333Y-51883333D01*
X88850000Y-51850000D01*
X88816666Y-51783333D01*
X88816666Y-51216666D01*
X88516666Y-51716666D02*
X88183333Y-51716666D01*
X88583333Y-51916666D02*
X88350000Y-51216666D01*
X88116666Y-51916666D01*
X87483333Y-51916666D02*
X87716666Y-51583333D01*
X87883333Y-51916666D02*
X87883333Y-51216666D01*
X87616666Y-51216666D01*
X87550000Y-51250000D01*
X87516666Y-51283333D01*
X87483333Y-51350000D01*
X87483333Y-51450000D01*
X87516666Y-51516666D01*
X87550000Y-51550000D01*
X87616666Y-51583333D01*
X87883333Y-51583333D01*
X87283333Y-51216666D02*
X86883333Y-51216666D01*
X87083333Y-51916666D02*
X87083333Y-51216666D01*
X90283333Y-58750000D02*
X90183333Y-58783333D01*
X90150000Y-58816666D01*
X90116666Y-58883333D01*
X90116666Y-58983333D01*
X90150000Y-59050000D01*
X90183333Y-59083333D01*
X90250000Y-59116666D01*
X90516666Y-59116666D01*
X90516666Y-58416666D01*
X90283333Y-58416666D01*
X90216666Y-58450000D01*
X90183333Y-58483333D01*
X90150000Y-58550000D01*
X90150000Y-58616666D01*
X90183333Y-58683333D01*
X90216666Y-58716666D01*
X90283333Y-58750000D01*
X90516666Y-58750000D01*
X89850000Y-58483333D02*
X89816666Y-58450000D01*
X89750000Y-58416666D01*
X89583333Y-58416666D01*
X89516666Y-58450000D01*
X89483333Y-58483333D01*
X89450000Y-58550000D01*
X89450000Y-58616666D01*
X89483333Y-58716666D01*
X89883333Y-59116666D01*
X89450000Y-59116666D01*
D10*
X73100000Y-53000000D02*
X72200000Y-53000000D01*
X73500000Y-56800000D02*
X73500000Y-53400000D01*
X71500000Y-57300000D02*
X73000000Y-57300000D01*
X110000000Y-57200000D02*
X110000000Y-62000000D01*
X107400000Y-57200000D02*
X110000000Y-57200000D01*
X107400000Y-53500000D02*
X107400000Y-57200000D01*
X110000000Y-53500000D02*
X107400000Y-53500000D01*
X80000000Y-58200000D02*
X80600000Y-58200000D01*
X80300000Y-57500000D02*
X80300000Y-58200000D01*
X99400000Y-58000000D02*
X100000000Y-58000000D01*
X99700000Y-57300000D02*
X99700000Y-58000000D01*
D11*
X73133333Y-59011904D02*
X73466666Y-59011904D01*
X73500000Y-59392857D01*
X73466666Y-59354761D01*
X73400000Y-59316666D01*
X73233333Y-59316666D01*
X73166666Y-59354761D01*
X73133333Y-59392857D01*
X73100000Y-59469047D01*
X73100000Y-59659523D01*
X73133333Y-59735714D01*
X73166666Y-59773809D01*
X73233333Y-59811904D01*
X73400000Y-59811904D01*
X73466666Y-59773809D01*
X73500000Y-59735714D01*
X72900000Y-59011904D02*
X72666666Y-59811904D01*
X72433333Y-59011904D01*
D12*
G36*
X111150000Y-51600000D02*
G01*
X110800000Y-51950000D01*
X110550000Y-51350000D01*
X111150000Y-51600000D01*
G37*
X111150000Y-51600000D02*
X110800000Y-51950000D01*
X110550000Y-51350000D01*
X111150000Y-51600000D01*
D10*
X111650000Y-52450000D02*
X110600000Y-51400000D01*
X111650000Y-53350000D02*
X111650000Y-52450000D01*
X120650000Y-53500000D02*
X125050000Y-53500000D01*
X120650000Y-55950000D02*
X120650000Y-53500000D01*
X125050000Y-55950000D02*
X120650000Y-55950000D01*
D12*
G36*
X72800000Y-51700000D02*
G01*
X72100000Y-51000000D01*
X72800000Y-51000000D01*
X72800000Y-51700000D01*
G37*
X72800000Y-51700000D02*
X72100000Y-51000000D01*
X72800000Y-51000000D01*
X72800000Y-51700000D01*
G36*
X49750000Y-51700000D02*
G01*
X49750000Y-51000000D01*
X50450000Y-51000000D01*
X49750000Y-51700000D01*
G37*
X49750000Y-51700000D02*
X49750000Y-51000000D01*
X50450000Y-51000000D01*
X49750000Y-51700000D01*
G36*
X85400000Y-51700000D02*
G01*
X85400000Y-51000000D01*
X86100000Y-51000000D01*
X85400000Y-51700000D01*
G37*
X85400000Y-51700000D02*
X85400000Y-51000000D01*
X86100000Y-51000000D01*
X85400000Y-51700000D01*
G36*
X110000000Y-51700000D02*
G01*
X110000000Y-51000000D01*
X110700000Y-51000000D01*
X110000000Y-51700000D01*
G37*
X110000000Y-51700000D02*
X110000000Y-51000000D01*
X110700000Y-51000000D01*
X110000000Y-51700000D01*
D10*
X94000000Y-61550000D02*
X93300000Y-62250000D01*
X86000000Y-61550000D02*
X86700000Y-62250000D01*
D11*
X85683333Y-53116666D02*
X85916666Y-52783333D01*
X86083333Y-53116666D02*
X86083333Y-52416666D01*
X85816666Y-52416666D01*
X85750000Y-52450000D01*
X85716666Y-52483333D01*
X85683333Y-52550000D01*
X85683333Y-52650000D01*
X85716666Y-52716666D01*
X85750000Y-52750000D01*
X85816666Y-52783333D01*
X86083333Y-52783333D01*
X86050000Y-54016666D02*
X85650000Y-54016666D01*
X85850000Y-54716666D02*
X85850000Y-54016666D01*
X92000000Y-53716666D02*
X91666666Y-53716666D01*
X92066666Y-53916666D02*
X91833333Y-53216666D01*
X91600000Y-53916666D01*
X91066666Y-53450000D02*
X91066666Y-53916666D01*
X91233333Y-53183333D02*
X91400000Y-53683333D01*
X90966666Y-53683333D01*
D10*
X85400000Y-55250000D02*
X85400000Y-51000000D01*
X86000000Y-55850000D02*
X85400000Y-55250000D01*
X57500000Y-51000000D02*
X57500000Y-54100000D01*
X63500000Y-54400000D02*
X70800000Y-54400000D01*
X63500000Y-51000000D02*
X63500000Y-54400000D01*
X72800000Y-53000000D02*
X72800000Y-51000000D01*
D11*
X60042857Y-51131071D02*
X60042857Y-51588214D01*
X60271428Y-51359642D02*
X59814285Y-51359642D01*
X60271428Y-52188214D02*
X60271428Y-51845357D01*
X60271428Y-52016785D02*
X59671428Y-52016785D01*
X59757142Y-51959642D01*
X59814285Y-51902500D01*
X59842857Y-51845357D01*
X59728571Y-52416785D02*
X59700000Y-52445357D01*
X59671428Y-52502500D01*
X59671428Y-52645357D01*
X59700000Y-52702500D01*
X59728571Y-52731071D01*
X59785714Y-52759642D01*
X59842857Y-52759642D01*
X59928571Y-52731071D01*
X60271428Y-52388214D01*
X60271428Y-52759642D01*
X59671428Y-52931071D02*
X60271428Y-53131071D01*
X59671428Y-53331071D01*
X60271428Y-53531071D02*
X59671428Y-53531071D01*
X60271428Y-53816785D02*
X59671428Y-53816785D01*
X60271428Y-54159642D01*
X59671428Y-54159642D01*
D10*
X70800000Y-54400000D02*
X72200000Y-53000000D01*
D11*
X109483333Y-51216666D02*
X109483333Y-51716666D01*
X109516666Y-51816666D01*
X109583333Y-51883333D01*
X109683333Y-51916666D01*
X109750000Y-51916666D01*
X108816666Y-51916666D02*
X109150000Y-51916666D01*
X109150000Y-51216666D01*
X108183333Y-51850000D02*
X108216666Y-51883333D01*
X108316666Y-51916666D01*
X108383333Y-51916666D01*
X108483333Y-51883333D01*
X108550000Y-51816666D01*
X108583333Y-51750000D01*
X108616666Y-51616666D01*
X108616666Y-51516666D01*
X108583333Y-51383333D01*
X108550000Y-51316666D01*
X108483333Y-51250000D01*
X108383333Y-51216666D01*
X108316666Y-51216666D01*
X108216666Y-51250000D01*
X108183333Y-51283333D01*
X107683333Y-51216666D02*
X107683333Y-51716666D01*
X107716666Y-51816666D01*
X107783333Y-51883333D01*
X107883333Y-51916666D01*
X107950000Y-51916666D01*
X107016666Y-51916666D02*
X107350000Y-51916666D01*
X107350000Y-51216666D01*
X106383333Y-51850000D02*
X106416666Y-51883333D01*
X106516666Y-51916666D01*
X106583333Y-51916666D01*
X106683333Y-51883333D01*
X106750000Y-51816666D01*
X106783333Y-51750000D01*
X106816666Y-51616666D01*
X106816666Y-51516666D01*
X106783333Y-51383333D01*
X106750000Y-51316666D01*
X106683333Y-51250000D01*
X106583333Y-51216666D01*
X106516666Y-51216666D01*
X106416666Y-51250000D01*
X106383333Y-51283333D01*
X105883333Y-51216666D02*
X105883333Y-51716666D01*
X105916666Y-51816666D01*
X105983333Y-51883333D01*
X106083333Y-51916666D01*
X106150000Y-51916666D01*
X105216666Y-51916666D02*
X105550000Y-51916666D01*
X105550000Y-51216666D01*
X104583333Y-51850000D02*
X104616666Y-51883333D01*
X104716666Y-51916666D01*
X104783333Y-51916666D01*
X104883333Y-51883333D01*
X104950000Y-51816666D01*
X104983333Y-51750000D01*
X105016666Y-51616666D01*
X105016666Y-51516666D01*
X104983333Y-51383333D01*
X104950000Y-51316666D01*
X104883333Y-51250000D01*
X104783333Y-51216666D01*
X104716666Y-51216666D01*
X104616666Y-51250000D01*
X104583333Y-51283333D01*
X104083333Y-51216666D02*
X104083333Y-51716666D01*
X104116666Y-51816666D01*
X104183333Y-51883333D01*
X104283333Y-51916666D01*
X104350000Y-51916666D01*
X103416666Y-51916666D02*
X103750000Y-51916666D01*
X103750000Y-51216666D01*
X102783333Y-51850000D02*
X102816666Y-51883333D01*
X102916666Y-51916666D01*
X102983333Y-51916666D01*
X103083333Y-51883333D01*
X103150000Y-51816666D01*
X103183333Y-51750000D01*
X103216666Y-51616666D01*
X103216666Y-51516666D01*
X103183333Y-51383333D01*
X103150000Y-51316666D01*
X103083333Y-51250000D01*
X102983333Y-51216666D01*
X102916666Y-51216666D01*
X102816666Y-51250000D01*
X102783333Y-51283333D01*
X64550000Y-53336904D02*
X64550000Y-52536904D01*
X63816666Y-53336904D02*
X64050000Y-52955952D01*
X64216666Y-53336904D02*
X64216666Y-52536904D01*
X63950000Y-52536904D01*
X63883333Y-52575000D01*
X63850000Y-52613095D01*
X63816666Y-52689285D01*
X63816666Y-52803571D01*
X63850000Y-52879761D01*
X63883333Y-52917857D01*
X63950000Y-52955952D01*
X64216666Y-52955952D01*
X62416666Y-52250000D02*
X62483333Y-52211904D01*
X62583333Y-52211904D01*
X62683333Y-52250000D01*
X62750000Y-52326190D01*
X62783333Y-52402380D01*
X62816666Y-52554761D01*
X62816666Y-52669047D01*
X62783333Y-52821428D01*
X62750000Y-52897619D01*
X62683333Y-52973809D01*
X62583333Y-53011904D01*
X62516666Y-53011904D01*
X62416666Y-52973809D01*
X62383333Y-52935714D01*
X62383333Y-52669047D01*
X62516666Y-52669047D01*
D10*
X71000000Y-62000000D02*
X71000000Y-57800000D01*
D11*
X71833333Y-51561904D02*
X72166666Y-51561904D01*
X72200000Y-51942857D01*
X72166666Y-51904761D01*
X72100000Y-51866666D01*
X71933333Y-51866666D01*
X71866666Y-51904761D01*
X71833333Y-51942857D01*
X71800000Y-52019047D01*
X71800000Y-52209523D01*
X71833333Y-52285714D01*
X71866666Y-52323809D01*
X71933333Y-52361904D01*
X72100000Y-52361904D01*
X72166666Y-52323809D01*
X72200000Y-52285714D01*
X71600000Y-51561904D02*
X71366666Y-52361904D01*
X71133333Y-51561904D01*
X64400000Y-52023809D02*
X64300000Y-52061904D01*
X64133333Y-52061904D01*
X64066666Y-52023809D01*
X64033333Y-51985714D01*
X64000000Y-51909523D01*
X64000000Y-51833333D01*
X64033333Y-51757142D01*
X64066666Y-51719047D01*
X64133333Y-51680952D01*
X64266666Y-51642857D01*
X64333333Y-51604761D01*
X64366666Y-51566666D01*
X64400000Y-51490476D01*
X64400000Y-51414285D01*
X64366666Y-51338095D01*
X64333333Y-51300000D01*
X64266666Y-51261904D01*
X64100000Y-51261904D01*
X64000000Y-51300000D01*
D13*
X124578571Y-54092857D02*
X124178571Y-55292857D01*
X123778571Y-54092857D01*
X123492857Y-54092857D02*
X122750000Y-54092857D01*
X123150000Y-54550000D01*
X122978571Y-54550000D01*
X122864285Y-54607142D01*
X122807142Y-54664285D01*
X122750000Y-54778571D01*
X122750000Y-55064285D01*
X122807142Y-55178571D01*
X122864285Y-55235714D01*
X122978571Y-55292857D01*
X123321428Y-55292857D01*
X123435714Y-55235714D01*
X123492857Y-55178571D01*
X122235714Y-55178571D02*
X122178571Y-55235714D01*
X122235714Y-55292857D01*
X122292857Y-55235714D01*
X122235714Y-55178571D01*
X122235714Y-55292857D01*
X121435714Y-54092857D02*
X121321428Y-54092857D01*
X121207142Y-54150000D01*
X121150000Y-54207142D01*
X121092857Y-54321428D01*
X121035714Y-54550000D01*
X121035714Y-54835714D01*
X121092857Y-55064285D01*
X121150000Y-55178571D01*
X121207142Y-55235714D01*
X121321428Y-55292857D01*
X121435714Y-55292857D01*
X121550000Y-55235714D01*
X121607142Y-55178571D01*
X121664285Y-55064285D01*
X121721428Y-54835714D01*
X121721428Y-54550000D01*
X121664285Y-54321428D01*
X121607142Y-54207142D01*
X121550000Y-54150000D01*
X121435714Y-54092857D01*
D11*
X83933333Y-61151000D02*
X83200000Y-61151000D01*
X83766666Y-61466666D02*
X83766666Y-62033333D01*
X83733333Y-62100000D01*
X83700000Y-62133333D01*
X83633333Y-62166666D01*
X83500000Y-62166666D01*
X83433333Y-62133333D01*
X83400000Y-62100000D01*
X83366666Y-62033333D01*
X83366666Y-61466666D01*
X83200000Y-61151000D02*
X82500000Y-61151000D01*
X83033333Y-62166666D02*
X83033333Y-61466666D01*
X82866666Y-61466666D01*
X82766666Y-61500000D01*
X82700000Y-61566666D01*
X82666666Y-61633333D01*
X82633333Y-61766666D01*
X82633333Y-61866666D01*
X82666666Y-62000000D01*
X82700000Y-62066666D01*
X82766666Y-62133333D01*
X82866666Y-62166666D01*
X83033333Y-62166666D01*
X82500000Y-61151000D02*
X81800000Y-61151000D01*
X82333333Y-62166666D02*
X82333333Y-61466666D01*
X82066666Y-61466666D01*
X82000000Y-61500000D01*
X81966666Y-61533333D01*
X81933333Y-61600000D01*
X81933333Y-61700000D01*
X81966666Y-61766666D01*
X82000000Y-61800000D01*
X82066666Y-61833333D01*
X82333333Y-61833333D01*
X81800000Y-61151000D02*
X81466666Y-61151000D01*
X81633333Y-62166666D02*
X81633333Y-61466666D01*
X125966666Y-57692857D02*
X125866666Y-57730952D01*
X125833333Y-57769047D01*
X125800000Y-57845238D01*
X125800000Y-57959523D01*
X125833333Y-58035714D01*
X125866666Y-58073809D01*
X125933333Y-58111904D01*
X126200000Y-58111904D01*
X126200000Y-57311904D01*
X125966666Y-57311904D01*
X125900000Y-57350000D01*
X125866666Y-57388095D01*
X125833333Y-57464285D01*
X125833333Y-57540476D01*
X125866666Y-57616666D01*
X125900000Y-57654761D01*
X125966666Y-57692857D01*
X126200000Y-57692857D01*
X125100000Y-58111904D02*
X125333333Y-57730952D01*
X125500000Y-58111904D02*
X125500000Y-57311904D01*
X125233333Y-57311904D01*
X125166666Y-57350000D01*
X125133333Y-57388095D01*
X125100000Y-57464285D01*
X125100000Y-57578571D01*
X125133333Y-57654761D01*
X125166666Y-57692857D01*
X125233333Y-57730952D01*
X125500000Y-57730952D01*
X124433333Y-57350000D02*
X124500000Y-57311904D01*
X124600000Y-57311904D01*
X124700000Y-57350000D01*
X124766666Y-57426190D01*
X124800000Y-57502380D01*
X124833333Y-57654761D01*
X124833333Y-57769047D01*
X124800000Y-57921428D01*
X124766666Y-57997619D01*
X124700000Y-58073809D01*
X124600000Y-58111904D01*
X124533333Y-58111904D01*
X124433333Y-58073809D01*
X124400000Y-58035714D01*
X124400000Y-57769047D01*
X124533333Y-57769047D01*
X124100000Y-58111904D02*
X124100000Y-57311904D01*
X124100000Y-57692857D02*
X123700000Y-57692857D01*
X123700000Y-58111904D02*
X123700000Y-57311904D01*
D14*
X124509523Y-52838095D02*
X124509523Y-51538095D01*
X124090476Y-51538095D01*
X123985714Y-51600000D01*
X123933333Y-51661904D01*
X123880952Y-51785714D01*
X123880952Y-51971428D01*
X123933333Y-52095238D01*
X123985714Y-52157142D01*
X124090476Y-52219047D01*
X124509523Y-52219047D01*
X123409523Y-52714285D02*
X123357142Y-52776190D01*
X123409523Y-52838095D01*
X123461904Y-52776190D01*
X123409523Y-52714285D01*
X123409523Y-52838095D01*
X122990476Y-51538095D02*
X122257142Y-51538095D01*
X122990476Y-52838095D01*
X122257142Y-52838095D01*
X121838095Y-52714285D02*
X121785714Y-52776190D01*
X121838095Y-52838095D01*
X121890476Y-52776190D01*
X121838095Y-52714285D01*
X121838095Y-52838095D01*
X120266666Y-51538095D02*
X120161904Y-51538095D01*
X120057142Y-51600000D01*
X120004761Y-51661904D01*
X119952380Y-51785714D01*
X119900000Y-52033333D01*
X119900000Y-52342857D01*
X119952380Y-52590476D01*
X120004761Y-52714285D01*
X120057142Y-52776190D01*
X120161904Y-52838095D01*
X120266666Y-52838095D01*
X120371428Y-52776190D01*
X120423809Y-52714285D01*
X120476190Y-52590476D01*
X120528571Y-52342857D01*
X120528571Y-52033333D01*
X120476190Y-51785714D01*
X120423809Y-51661904D01*
X120371428Y-51600000D01*
X120266666Y-51538095D01*
X118957142Y-51538095D02*
X119166666Y-51538095D01*
X119271428Y-51600000D01*
X119323809Y-51661904D01*
X119428571Y-51847619D01*
X119480952Y-52095238D01*
X119480952Y-52590476D01*
X119428571Y-52714285D01*
X119376190Y-52776190D01*
X119271428Y-52838095D01*
X119061904Y-52838095D01*
X118957142Y-52776190D01*
X118904761Y-52714285D01*
X118852380Y-52590476D01*
X118852380Y-52280952D01*
X118904761Y-52157142D01*
X118957142Y-52095238D01*
X119061904Y-52033333D01*
X119271428Y-52033333D01*
X119376190Y-52095238D01*
X119428571Y-52157142D01*
X119480952Y-52280952D01*
X118380952Y-52714285D02*
X118328571Y-52776190D01*
X118380952Y-52838095D01*
X118433333Y-52776190D01*
X118380952Y-52714285D01*
X118380952Y-52838095D01*
X117909523Y-51661904D02*
X117857142Y-51600000D01*
X117752380Y-51538095D01*
X117490476Y-51538095D01*
X117385714Y-51600000D01*
X117333333Y-51661904D01*
X117280952Y-51785714D01*
X117280952Y-51909523D01*
X117333333Y-52095238D01*
X117961904Y-52838095D01*
X117280952Y-52838095D01*
X116600000Y-51538095D02*
X116495238Y-51538095D01*
X116390476Y-51600000D01*
X116338095Y-51661904D01*
X116285714Y-51785714D01*
X116233333Y-52033333D01*
X116233333Y-52342857D01*
X116285714Y-52590476D01*
X116338095Y-52714285D01*
X116390476Y-52776190D01*
X116495238Y-52838095D01*
X116600000Y-52838095D01*
X116704761Y-52776190D01*
X116757142Y-52714285D01*
X116809523Y-52590476D01*
X116861904Y-52342857D01*
X116861904Y-52033333D01*
X116809523Y-51785714D01*
X116757142Y-51661904D01*
X116704761Y-51600000D01*
X116600000Y-51538095D01*
X115814285Y-51661904D02*
X115761904Y-51600000D01*
X115657142Y-51538095D01*
X115395238Y-51538095D01*
X115290476Y-51600000D01*
X115238095Y-51661904D01*
X115185714Y-51785714D01*
X115185714Y-51909523D01*
X115238095Y-52095238D01*
X115866666Y-52838095D01*
X115185714Y-52838095D01*
X114138095Y-52838095D02*
X114766666Y-52838095D01*
X114452380Y-52838095D02*
X114452380Y-51538095D01*
X114557142Y-51723809D01*
X114661904Y-51847619D01*
X114766666Y-51909523D01*
D10*
X49750000Y-62000000D02*
X71000000Y-62000000D01*
X49750000Y-51000000D02*
X49750000Y-62000000D01*
X86000000Y-51000000D02*
X49750000Y-51000000D01*
X134000000Y-58750000D02*
X133750000Y-58750000D01*
X136500000Y-56500000D02*
X136250000Y-56750000D01*
X136500000Y-56500000D02*
X136250000Y-56250000D01*
X136250000Y-56500000D02*
X136500000Y-56500000D01*
X134000000Y-58750000D02*
X136250000Y-56500000D01*
X43750000Y-57000000D02*
X43750000Y-57500000D01*
X43750000Y-57000000D02*
X44250000Y-57000000D01*
X45000000Y-58250000D02*
X43750000Y-57000000D01*
X45750000Y-58250000D02*
X45000000Y-58250000D01*
X46750000Y-59250000D02*
X45750000Y-58250000D01*
D11*
X118266666Y-57261904D02*
X117866666Y-57261904D01*
X118066666Y-58061904D02*
X118066666Y-57261904D01*
X117633333Y-57642857D02*
X117400000Y-57642857D01*
X117300000Y-58061904D02*
X117633333Y-58061904D01*
X117633333Y-57261904D01*
X117300000Y-57261904D01*
X117000000Y-58061904D02*
X117000000Y-57261904D01*
X116766666Y-57833333D01*
X116533333Y-57261904D01*
X116533333Y-58061904D01*
X116200000Y-58061904D02*
X116200000Y-57261904D01*
X115933333Y-57261904D01*
X115866666Y-57300000D01*
X115833333Y-57338095D01*
X115800000Y-57414285D01*
X115800000Y-57528571D01*
X115833333Y-57604761D01*
X115866666Y-57642857D01*
X115933333Y-57680952D01*
X116200000Y-57680952D01*
X120383333Y-54386904D02*
X120383333Y-53586904D01*
X120050000Y-54386904D02*
X120050000Y-53586904D01*
X119650000Y-54386904D01*
X119650000Y-53586904D01*
X119350000Y-54348809D02*
X119250000Y-54386904D01*
X119083333Y-54386904D01*
X119016666Y-54348809D01*
X118983333Y-54310714D01*
X118950000Y-54234523D01*
X118950000Y-54158333D01*
X118983333Y-54082142D01*
X119016666Y-54044047D01*
X119083333Y-54005952D01*
X119216666Y-53967857D01*
X119283333Y-53929761D01*
X119316666Y-53891666D01*
X119350000Y-53815476D01*
X119350000Y-53739285D01*
X119316666Y-53663095D01*
X119283333Y-53625000D01*
X119216666Y-53586904D01*
X119050000Y-53586904D01*
X118950000Y-53625000D01*
X118750000Y-53586904D02*
X118350000Y-53586904D01*
X118550000Y-54386904D02*
X118550000Y-53586904D01*
X118150000Y-54158333D02*
X117816666Y-54158333D01*
X118216666Y-54386904D02*
X117983333Y-53586904D01*
X117750000Y-54386904D01*
X117183333Y-54386904D02*
X117516666Y-54386904D01*
X117516666Y-53586904D01*
X116616666Y-54386904D02*
X116950000Y-54386904D01*
X116950000Y-53586904D01*
X115716666Y-53586904D02*
X115583333Y-53586904D01*
X115516666Y-53625000D01*
X115450000Y-53701190D01*
X115416666Y-53853571D01*
X115416666Y-54120238D01*
X115450000Y-54272619D01*
X115516666Y-54348809D01*
X115583333Y-54386904D01*
X115716666Y-54386904D01*
X115783333Y-54348809D01*
X115850000Y-54272619D01*
X115883333Y-54120238D01*
X115883333Y-53853571D01*
X115850000Y-53701190D01*
X115783333Y-53625000D01*
X115716666Y-53586904D01*
X115116666Y-54386904D02*
X115116666Y-53586904D01*
X114716666Y-54386904D01*
X114716666Y-53586904D01*
X113850000Y-54386904D02*
X113850000Y-53586904D01*
X113616666Y-54158333D01*
X113383333Y-53586904D01*
X113383333Y-54386904D01*
X113083333Y-54158333D02*
X112750000Y-54158333D01*
X113150000Y-54386904D02*
X112916666Y-53586904D01*
X112683333Y-54386904D01*
X112483333Y-54348809D02*
X112383333Y-54386904D01*
X112216666Y-54386904D01*
X112150000Y-54348809D01*
X112116666Y-54310714D01*
X112083333Y-54234523D01*
X112083333Y-54158333D01*
X112116666Y-54082142D01*
X112150000Y-54044047D01*
X112216666Y-54005952D01*
X112350000Y-53967857D01*
X112416666Y-53929761D01*
X112450000Y-53891666D01*
X112483333Y-53815476D01*
X112483333Y-53739285D01*
X112450000Y-53663095D01*
X112416666Y-53625000D01*
X112350000Y-53586904D01*
X112183333Y-53586904D01*
X112083333Y-53625000D01*
X111883333Y-53586904D02*
X111483333Y-53586904D01*
X111683333Y-54386904D02*
X111683333Y-53586904D01*
X111250000Y-53967857D02*
X111016666Y-53967857D01*
X110916666Y-54386904D02*
X111250000Y-54386904D01*
X111250000Y-53586904D01*
X110916666Y-53586904D01*
X110216666Y-54386904D02*
X110450000Y-54005952D01*
X110616666Y-54386904D02*
X110616666Y-53586904D01*
X110350000Y-53586904D01*
X110283333Y-53625000D01*
X110250000Y-53663095D01*
X110216666Y-53739285D01*
X110216666Y-53853571D01*
X110250000Y-53929761D01*
X110283333Y-53967857D01*
X110350000Y-54005952D01*
X110616666Y-54005952D01*
X118550000Y-55736904D02*
X118550000Y-54936904D01*
X118316666Y-55508333D01*
X118083333Y-54936904D01*
X118083333Y-55736904D01*
X117616666Y-54936904D02*
X117483333Y-54936904D01*
X117416666Y-54975000D01*
X117350000Y-55051190D01*
X117316666Y-55203571D01*
X117316666Y-55470238D01*
X117350000Y-55622619D01*
X117416666Y-55698809D01*
X117483333Y-55736904D01*
X117616666Y-55736904D01*
X117683333Y-55698809D01*
X117750000Y-55622619D01*
X117783333Y-55470238D01*
X117783333Y-55203571D01*
X117750000Y-55051190D01*
X117683333Y-54975000D01*
X117616666Y-54936904D01*
X117016666Y-55736904D02*
X117016666Y-54936904D01*
X116850000Y-54936904D01*
X116750000Y-54975000D01*
X116683333Y-55051190D01*
X116650000Y-55127380D01*
X116616666Y-55279761D01*
X116616666Y-55394047D01*
X116650000Y-55546428D01*
X116683333Y-55622619D01*
X116750000Y-55698809D01*
X116850000Y-55736904D01*
X117016666Y-55736904D01*
X116316666Y-54936904D02*
X116316666Y-55584523D01*
X116283333Y-55660714D01*
X116250000Y-55698809D01*
X116183333Y-55736904D01*
X116050000Y-55736904D01*
X115983333Y-55698809D01*
X115950000Y-55660714D01*
X115916666Y-55584523D01*
X115916666Y-54936904D01*
X115250000Y-55736904D02*
X115583333Y-55736904D01*
X115583333Y-54936904D01*
X115016666Y-55317857D02*
X114783333Y-55317857D01*
X114683333Y-55736904D02*
X115016666Y-55736904D01*
X115016666Y-54936904D01*
X114683333Y-54936904D01*
X113716666Y-54936904D02*
X113583333Y-54936904D01*
X113516666Y-54975000D01*
X113450000Y-55051190D01*
X113416666Y-55203571D01*
X113416666Y-55470238D01*
X113450000Y-55622619D01*
X113516666Y-55698809D01*
X113583333Y-55736904D01*
X113716666Y-55736904D01*
X113783333Y-55698809D01*
X113850000Y-55622619D01*
X113883333Y-55470238D01*
X113883333Y-55203571D01*
X113850000Y-55051190D01*
X113783333Y-54975000D01*
X113716666Y-54936904D01*
X113116666Y-55736904D02*
X113116666Y-54936904D01*
X112716666Y-55736904D01*
X112716666Y-54936904D01*
X112050000Y-55736904D02*
X112383333Y-55736904D01*
X112383333Y-54936904D01*
X111683333Y-55355952D02*
X111683333Y-55736904D01*
X111916666Y-54936904D02*
X111683333Y-55355952D01*
X111450000Y-54936904D01*
D10*
X110000000Y-53500000D02*
X110000000Y-51000000D01*
X131000000Y-62000000D02*
X110000000Y-62000000D01*
X131000000Y-51000000D02*
X131000000Y-62000000D01*
X94000000Y-51000000D02*
X131000000Y-51000000D01*
X86000000Y-51000000D02*
X94000000Y-51000000D01*
X94000000Y-51000000D02*
X94000000Y-61550000D01*
X86000000Y-55850000D02*
X86000000Y-61550000D01*
D11*
X45133333Y-58811904D02*
X45466666Y-58811904D01*
X45500000Y-59192857D01*
X45466666Y-59154761D01*
X45400000Y-59116666D01*
X45233333Y-59116666D01*
X45166666Y-59154761D01*
X45133333Y-59192857D01*
X45100000Y-59269047D01*
X45100000Y-59459523D01*
X45133333Y-59535714D01*
X45166666Y-59573809D01*
X45233333Y-59611904D01*
X45400000Y-59611904D01*
X45466666Y-59573809D01*
X45500000Y-59535714D01*
X44900000Y-58811904D02*
X44666666Y-59611904D01*
X44433333Y-58811904D01*
X45766666Y-53761904D02*
X45600000Y-54561904D01*
X45466666Y-53990476D01*
X45333333Y-54561904D01*
X45166666Y-53761904D01*
X44900000Y-54561904D02*
X44900000Y-53761904D01*
X44900000Y-54142857D02*
X44500000Y-54142857D01*
X44500000Y-54561904D02*
X44500000Y-53761904D01*
X49066666Y-58811904D02*
X48900000Y-59611904D01*
X48766666Y-59040476D01*
X48633333Y-59611904D01*
X48466666Y-58811904D01*
X48266666Y-58811904D02*
X48100000Y-59611904D01*
X47966666Y-59040476D01*
X47833333Y-59611904D01*
X47666666Y-58811904D01*
X47400000Y-59611904D02*
X47400000Y-58811904D01*
X47400000Y-59192857D02*
X47000000Y-59192857D01*
X47000000Y-59611904D02*
X47000000Y-58811904D01*
X47933333Y-52361904D02*
X48333333Y-52361904D01*
X48133333Y-52361904D02*
X48133333Y-51561904D01*
X48200000Y-51676190D01*
X48266666Y-51752380D01*
X48333333Y-51790476D01*
X47666666Y-51638095D02*
X47633333Y-51600000D01*
X47566666Y-51561904D01*
X47400000Y-51561904D01*
X47333333Y-51600000D01*
X47300000Y-51638095D01*
X47266666Y-51714285D01*
X47266666Y-51790476D01*
X47300000Y-51904761D01*
X47700000Y-52361904D01*
X47266666Y-52361904D01*
X47066666Y-51561904D02*
X46833333Y-52361904D01*
X46600000Y-51561904D01*
X48133333Y-60600000D02*
X48200000Y-60561904D01*
X48300000Y-60561904D01*
X48400000Y-60600000D01*
X48466666Y-60676190D01*
X48500000Y-60752380D01*
X48533333Y-60904761D01*
X48533333Y-61019047D01*
X48500000Y-61171428D01*
X48466666Y-61247619D01*
X48400000Y-61323809D01*
X48300000Y-61361904D01*
X48233333Y-61361904D01*
X48133333Y-61323809D01*
X48100000Y-61285714D01*
X48100000Y-61019047D01*
X48233333Y-61019047D01*
X47800000Y-61361904D02*
X47800000Y-60561904D01*
X47400000Y-61361904D01*
X47400000Y-60561904D01*
X47066666Y-61361904D02*
X47066666Y-60561904D01*
X46900000Y-60561904D01*
X46800000Y-60600000D01*
X46733333Y-60676190D01*
X46700000Y-60752380D01*
X46666666Y-60904761D01*
X46666666Y-61019047D01*
X46700000Y-61171428D01*
X46733333Y-61247619D01*
X46800000Y-61323809D01*
X46900000Y-61361904D01*
X47066666Y-61361904D01*
X133033333Y-60700000D02*
X133100000Y-60661904D01*
X133200000Y-60661904D01*
X133300000Y-60700000D01*
X133366666Y-60776190D01*
X133400000Y-60852380D01*
X133433333Y-61004761D01*
X133433333Y-61119047D01*
X133400000Y-61271428D01*
X133366666Y-61347619D01*
X133300000Y-61423809D01*
X133200000Y-61461904D01*
X133133333Y-61461904D01*
X133033333Y-61423809D01*
X133000000Y-61385714D01*
X133000000Y-61119047D01*
X133133333Y-61119047D01*
X132700000Y-61461904D02*
X132700000Y-60661904D01*
X132300000Y-61461904D01*
X132300000Y-60661904D01*
X131966666Y-61461904D02*
X131966666Y-60661904D01*
X131800000Y-60661904D01*
X131700000Y-60700000D01*
X131633333Y-60776190D01*
X131600000Y-60852380D01*
X131566666Y-61004761D01*
X131566666Y-61119047D01*
X131600000Y-61271428D01*
X131633333Y-61347619D01*
X131700000Y-61423809D01*
X131800000Y-61461904D01*
X131966666Y-61461904D01*
X135133333Y-58811904D02*
X135466666Y-58811904D01*
X135500000Y-59192857D01*
X135466666Y-59154761D01*
X135400000Y-59116666D01*
X135233333Y-59116666D01*
X135166666Y-59154761D01*
X135133333Y-59192857D01*
X135100000Y-59269047D01*
X135100000Y-59459523D01*
X135133333Y-59535714D01*
X135166666Y-59573809D01*
X135233333Y-59611904D01*
X135400000Y-59611904D01*
X135466666Y-59573809D01*
X135500000Y-59535714D01*
X134900000Y-58811904D02*
X134666666Y-59611904D01*
X134433333Y-58811904D01*
X133566666Y-58811904D02*
X133400000Y-59611904D01*
X133266666Y-59040476D01*
X133133333Y-59611904D01*
X132966666Y-58811904D01*
X132766666Y-58811904D02*
X132600000Y-59611904D01*
X132466666Y-59040476D01*
X132333333Y-59611904D01*
X132166666Y-58811904D01*
X131900000Y-59611904D02*
X131900000Y-58811904D01*
X131900000Y-59192857D02*
X131500000Y-59192857D01*
X131500000Y-59611904D02*
X131500000Y-58811904D01*
X135266666Y-53861904D02*
X135100000Y-54661904D01*
X134966666Y-54090476D01*
X134833333Y-54661904D01*
X134666666Y-53861904D01*
X134400000Y-54661904D02*
X134400000Y-53861904D01*
X134400000Y-54242857D02*
X134000000Y-54242857D01*
X134000000Y-54661904D02*
X134000000Y-53861904D01*
X132533333Y-52361904D02*
X132933333Y-52361904D01*
X132733333Y-52361904D02*
X132733333Y-51561904D01*
X132800000Y-51676190D01*
X132866666Y-51752380D01*
X132933333Y-51790476D01*
X132266666Y-51638095D02*
X132233333Y-51600000D01*
X132166666Y-51561904D01*
X132000000Y-51561904D01*
X131933333Y-51600000D01*
X131900000Y-51638095D01*
X131866666Y-51714285D01*
X131866666Y-51790476D01*
X131900000Y-51904761D01*
X132300000Y-52361904D01*
X131866666Y-52361904D01*
X131666666Y-51561904D02*
X131433333Y-52361904D01*
X131200000Y-51561904D01*
D10*
%TO.C,R1*%
X92750000Y-52273000D02*
X92750000Y-52527000D01*
X92650000Y-52273000D02*
X92750000Y-52273000D01*
X92650000Y-52527000D02*
X92650000Y-52273000D01*
X92750000Y-52527000D02*
X92650000Y-52527000D01*
X92537221Y-52910000D02*
X92862779Y-52910000D01*
X92537221Y-51890000D02*
X92862779Y-51890000D01*
D15*
%TO.C,svg2mod*%
G36*
X128201638Y-52397124D02*
G01*
X128190803Y-52502633D01*
X128158299Y-52579766D01*
X128022091Y-52642710D01*
X127944701Y-52632391D01*
X127879693Y-52605563D01*
X127879693Y-52139155D01*
X127931286Y-52130900D01*
X127978753Y-52128836D01*
X128102578Y-52158646D01*
X128176873Y-52248075D01*
X128201638Y-52397124D01*
G37*
X128201638Y-52397124D02*
X128190803Y-52502633D01*
X128158299Y-52579766D01*
X128022091Y-52642710D01*
X127944701Y-52632391D01*
X127879693Y-52605563D01*
X127879693Y-52139155D01*
X127931286Y-52130900D01*
X127978753Y-52128836D01*
X128102578Y-52158646D01*
X128176873Y-52248075D01*
X128201638Y-52397124D01*
G36*
X130510130Y-50968189D02*
G01*
X130444934Y-51635600D01*
X130189029Y-51635600D01*
X130189029Y-52702559D01*
X129642135Y-52702559D01*
X129642135Y-52913061D01*
X129036424Y-52906870D01*
X129143739Y-52823288D01*
X129200493Y-52690176D01*
X129212875Y-52606079D01*
X129217003Y-52510630D01*
X129217003Y-52153601D01*
X129485290Y-52153601D01*
X129485290Y-51943099D01*
X128963161Y-51943099D01*
X128963161Y-52543650D01*
X128931173Y-52672634D01*
X128824890Y-52714941D01*
X128740276Y-52705654D01*
X128628834Y-52667475D01*
X128361578Y-52729388D01*
X128416038Y-52639271D01*
X128448714Y-52528516D01*
X128459606Y-52397124D01*
X128444931Y-52251056D01*
X128400904Y-52132047D01*
X128327526Y-52040095D01*
X128228925Y-51974743D01*
X128109227Y-51935532D01*
X127968434Y-51922461D01*
X127859514Y-51928194D01*
X127744632Y-51945392D01*
X127623788Y-51974055D01*
X127623788Y-52795428D01*
X127365819Y-52913061D01*
X127365819Y-51524158D01*
X127111978Y-51480819D01*
X127111978Y-51951354D01*
X127037683Y-51931748D01*
X126961324Y-51922461D01*
X126862780Y-51930458D01*
X126781778Y-51954449D01*
X126666208Y-52045254D01*
X126604295Y-52185589D01*
X126590365Y-52271493D01*
X126585721Y-52366168D01*
X126585721Y-52913061D01*
X126839563Y-52913061D01*
X126839563Y-52399188D01*
X126847302Y-52282070D01*
X126870519Y-52203131D01*
X126988153Y-52143283D01*
X127057288Y-52151538D01*
X127111978Y-52165984D01*
X127111978Y-52913061D01*
X127365819Y-52913061D01*
X127623788Y-52795428D01*
X127636514Y-52939890D01*
X127674693Y-53056836D01*
X127738326Y-53146265D01*
X127830163Y-53209324D01*
X127952956Y-53247160D01*
X128106705Y-53259771D01*
X128195704Y-53255128D01*
X128281092Y-53241198D01*
X128441033Y-53197859D01*
X128393566Y-52983229D01*
X128267678Y-53025536D01*
X128102578Y-53045141D01*
X127993199Y-53029663D01*
X127925095Y-52987356D01*
X127890011Y-52924412D01*
X127879693Y-52847021D01*
X127879693Y-52807810D01*
X127977721Y-52838766D01*
X128073685Y-52849085D01*
X128190058Y-52835785D01*
X128286022Y-52795886D01*
X128361578Y-52729388D01*
X128628834Y-52667475D01*
X128595814Y-52871786D01*
X128743372Y-52922348D01*
X128870293Y-52935763D01*
X128961355Y-52928539D01*
X129036424Y-52906870D01*
X129642135Y-52913061D01*
X130444934Y-52913061D01*
X130444934Y-51635600D01*
X130510130Y-50968189D01*
X131022760Y-50968189D01*
X130376952Y-54305330D01*
X130290765Y-54249981D01*
X130185375Y-54216771D01*
X130060781Y-54205701D01*
X129952257Y-54212309D01*
X129858473Y-54232133D01*
X129713095Y-54291097D01*
X129786293Y-54484256D01*
X129899138Y-54435458D01*
X130042482Y-54415126D01*
X130191926Y-54451216D01*
X130241741Y-54559487D01*
X130221408Y-54623534D01*
X130169560Y-54672332D01*
X130098397Y-54709947D01*
X130020116Y-54740446D01*
X129897105Y-54790261D01*
X129779176Y-54863458D01*
X129690730Y-54977320D01*
X129192583Y-55492749D01*
X129192583Y-54441558D01*
X129524003Y-54441558D01*
X129524003Y-54234166D01*
X128609040Y-54234166D01*
X128609040Y-54441558D01*
X128940460Y-54441558D01*
X128940460Y-55492749D01*
X129192583Y-55492749D01*
X129690730Y-54977320D01*
X129664806Y-55054329D01*
X129656164Y-55149129D01*
X129684884Y-55305944D01*
X129771043Y-55422602D01*
X129860845Y-55476257D01*
X129977079Y-55508450D01*
X130119746Y-55519181D01*
X130260548Y-55510794D01*
X130369836Y-55485632D01*
X130510130Y-55423618D01*
X130436933Y-55220293D01*
X130305788Y-55281291D01*
X130221154Y-55302640D01*
X130119746Y-55309756D01*
X130015033Y-55296540D01*
X129948953Y-55259942D01*
X129915404Y-55207077D01*
X129906254Y-55147096D01*
X129928620Y-55077966D01*
X129985551Y-55024084D01*
X130062815Y-54981386D01*
X130148211Y-54945804D01*
X130266140Y-54899040D01*
X130376952Y-54831942D01*
X130459299Y-54731296D01*
X130491831Y-54581852D01*
X130463111Y-54424275D01*
X130376952Y-54305330D01*
X131022760Y-50968189D01*
X131022760Y-56031811D01*
X128448413Y-55492749D01*
X128448413Y-55285357D01*
X128173924Y-55285357D01*
X128173924Y-54441558D01*
X128448413Y-54441558D01*
X128448413Y-54234166D01*
X127649345Y-54234166D01*
X127649345Y-54441558D01*
X127921801Y-54441558D01*
X127921801Y-55285357D01*
X127649345Y-55285357D01*
X127649345Y-55492749D01*
X128448413Y-55492749D01*
X131022760Y-56031811D01*
X130510130Y-56031811D01*
X126939741Y-55519181D01*
X127103305Y-55500204D01*
X127238855Y-55443273D01*
X127346391Y-55348388D01*
X127407770Y-55253969D01*
X127451612Y-55141505D01*
X127477917Y-55010995D01*
X127486685Y-54862441D01*
X127476011Y-54714522D01*
X127443987Y-54583886D01*
X127392902Y-54471294D01*
X127325042Y-54377511D01*
X127241679Y-54303297D01*
X127144083Y-54249416D01*
X127034541Y-54216630D01*
X126915342Y-54205701D01*
X126794363Y-54216884D01*
X126699817Y-54242299D01*
X126631703Y-54272798D01*
X126590022Y-54297197D01*
X126655086Y-54496456D01*
X126767931Y-54444608D01*
X126919408Y-54423259D01*
X127034287Y-54444608D01*
X127133916Y-54515772D01*
X127205080Y-54648950D01*
X127225667Y-54742479D01*
X127232529Y-54856341D01*
X127224283Y-54988841D01*
X127199545Y-55098976D01*
X127158315Y-55186745D01*
X127060465Y-55272904D01*
X126915342Y-55301623D01*
X126753698Y-55279257D01*
X126651019Y-55234526D01*
X126587988Y-55431751D01*
X126731333Y-55491732D01*
X126828674Y-55512319D01*
X126939741Y-55519181D01*
X130510130Y-56031811D01*
X125489870Y-56031811D01*
X125813320Y-55492749D01*
X125877367Y-55339238D01*
X125921336Y-55257908D01*
X125969880Y-55178612D01*
X126021982Y-55102873D01*
X126076626Y-55032217D01*
X126183371Y-54917339D01*
X126183371Y-55492749D01*
X126433461Y-55492749D01*
X126433461Y-54234166D01*
X126183371Y-54234166D01*
X126183371Y-54756712D01*
X126089842Y-54630650D01*
X125997329Y-54492389D01*
X125917015Y-54356161D01*
X125856018Y-54234166D01*
X125573396Y-54234166D01*
X125641510Y-54359211D01*
X125683954Y-54430883D01*
X125731990Y-54505605D01*
X125784600Y-54582615D01*
X125840769Y-54661149D01*
X125899987Y-54738921D01*
X125961747Y-54813643D01*
X125898208Y-54879215D01*
X125833652Y-54953937D01*
X125770367Y-55036030D01*
X125710640Y-55123714D01*
X125655489Y-55215210D01*
X125605928Y-55308740D01*
X125563738Y-55402015D01*
X125530698Y-55492749D01*
X125813320Y-55492749D01*
X125489870Y-56031811D01*
X124977240Y-56031811D01*
X125799433Y-52935763D01*
X125956278Y-52921316D01*
X126071848Y-52865595D01*
X126144079Y-52748993D01*
X126162653Y-52662058D01*
X126168844Y-52551905D01*
X126168844Y-52153601D01*
X126389665Y-52153601D01*
X126389665Y-51943099D01*
X126168844Y-51943099D01*
X126168844Y-51699576D01*
X125915003Y-51658301D01*
X125915003Y-51943099D01*
X125508444Y-51943099D01*
X125508444Y-52153601D01*
X125915003Y-52153601D01*
X125915003Y-52545714D01*
X125904684Y-52632391D01*
X125875791Y-52683985D01*
X125830389Y-52708750D01*
X125770540Y-52714941D01*
X125705532Y-52712878D01*
X125647747Y-52705654D01*
X125589962Y-52690176D01*
X125524954Y-52663348D01*
X125489870Y-52882105D01*
X125641556Y-52923380D01*
X125799433Y-52935763D01*
X124977240Y-56031811D01*
X124977240Y-50968189D01*
X128973480Y-51664493D01*
X129020946Y-51782126D01*
X129134453Y-51825465D01*
X129246927Y-51782126D01*
X129293361Y-51664493D01*
X129246927Y-51544795D01*
X129134453Y-51501456D01*
X129020946Y-51544795D01*
X128973480Y-51664493D01*
X124977240Y-50968189D01*
X125489870Y-50968189D01*
X130510130Y-50968189D01*
G37*
X130510130Y-50968189D02*
X130444934Y-51635600D01*
X130189029Y-51635600D01*
X130189029Y-52702559D01*
X129642135Y-52702559D01*
X129642135Y-52913061D01*
X129036424Y-52906870D01*
X129143739Y-52823288D01*
X129200493Y-52690176D01*
X129212875Y-52606079D01*
X129217003Y-52510630D01*
X129217003Y-52153601D01*
X129485290Y-52153601D01*
X129485290Y-51943099D01*
X128963161Y-51943099D01*
X128963161Y-52543650D01*
X128931173Y-52672634D01*
X128824890Y-52714941D01*
X128740276Y-52705654D01*
X128628834Y-52667475D01*
X128361578Y-52729388D01*
X128416038Y-52639271D01*
X128448714Y-52528516D01*
X128459606Y-52397124D01*
X128444931Y-52251056D01*
X128400904Y-52132047D01*
X128327526Y-52040095D01*
X128228925Y-51974743D01*
X128109227Y-51935532D01*
X127968434Y-51922461D01*
X127859514Y-51928194D01*
X127744632Y-51945392D01*
X127623788Y-51974055D01*
X127623788Y-52795428D01*
X127365819Y-52913061D01*
X127365819Y-51524158D01*
X127111978Y-51480819D01*
X127111978Y-51951354D01*
X127037683Y-51931748D01*
X126961324Y-51922461D01*
X126862780Y-51930458D01*
X126781778Y-51954449D01*
X126666208Y-52045254D01*
X126604295Y-52185589D01*
X126590365Y-52271493D01*
X126585721Y-52366168D01*
X126585721Y-52913061D01*
X126839563Y-52913061D01*
X126839563Y-52399188D01*
X126847302Y-52282070D01*
X126870519Y-52203131D01*
X126988153Y-52143283D01*
X127057288Y-52151538D01*
X127111978Y-52165984D01*
X127111978Y-52913061D01*
X127365819Y-52913061D01*
X127623788Y-52795428D01*
X127636514Y-52939890D01*
X127674693Y-53056836D01*
X127738326Y-53146265D01*
X127830163Y-53209324D01*
X127952956Y-53247160D01*
X128106705Y-53259771D01*
X128195704Y-53255128D01*
X128281092Y-53241198D01*
X128441033Y-53197859D01*
X128393566Y-52983229D01*
X128267678Y-53025536D01*
X128102578Y-53045141D01*
X127993199Y-53029663D01*
X127925095Y-52987356D01*
X127890011Y-52924412D01*
X127879693Y-52847021D01*
X127879693Y-52807810D01*
X127977721Y-52838766D01*
X128073685Y-52849085D01*
X128190058Y-52835785D01*
X128286022Y-52795886D01*
X128361578Y-52729388D01*
X128628834Y-52667475D01*
X128595814Y-52871786D01*
X128743372Y-52922348D01*
X128870293Y-52935763D01*
X128961355Y-52928539D01*
X129036424Y-52906870D01*
X129642135Y-52913061D01*
X130444934Y-52913061D01*
X130444934Y-51635600D01*
X130510130Y-50968189D01*
X131022760Y-50968189D01*
X130376952Y-54305330D01*
X130290765Y-54249981D01*
X130185375Y-54216771D01*
X130060781Y-54205701D01*
X129952257Y-54212309D01*
X129858473Y-54232133D01*
X129713095Y-54291097D01*
X129786293Y-54484256D01*
X129899138Y-54435458D01*
X130042482Y-54415126D01*
X130191926Y-54451216D01*
X130241741Y-54559487D01*
X130221408Y-54623534D01*
X130169560Y-54672332D01*
X130098397Y-54709947D01*
X130020116Y-54740446D01*
X129897105Y-54790261D01*
X129779176Y-54863458D01*
X129690730Y-54977320D01*
X129192583Y-55492749D01*
X129192583Y-54441558D01*
X129524003Y-54441558D01*
X129524003Y-54234166D01*
X128609040Y-54234166D01*
X128609040Y-54441558D01*
X128940460Y-54441558D01*
X128940460Y-55492749D01*
X129192583Y-55492749D01*
X129690730Y-54977320D01*
X129664806Y-55054329D01*
X129656164Y-55149129D01*
X129684884Y-55305944D01*
X129771043Y-55422602D01*
X129860845Y-55476257D01*
X129977079Y-55508450D01*
X130119746Y-55519181D01*
X130260548Y-55510794D01*
X130369836Y-55485632D01*
X130510130Y-55423618D01*
X130436933Y-55220293D01*
X130305788Y-55281291D01*
X130221154Y-55302640D01*
X130119746Y-55309756D01*
X130015033Y-55296540D01*
X129948953Y-55259942D01*
X129915404Y-55207077D01*
X129906254Y-55147096D01*
X129928620Y-55077966D01*
X129985551Y-55024084D01*
X130062815Y-54981386D01*
X130148211Y-54945804D01*
X130266140Y-54899040D01*
X130376952Y-54831942D01*
X130459299Y-54731296D01*
X130491831Y-54581852D01*
X130463111Y-54424275D01*
X130376952Y-54305330D01*
X131022760Y-50968189D01*
X131022760Y-56031811D01*
X128448413Y-55492749D01*
X128448413Y-55285357D01*
X128173924Y-55285357D01*
X128173924Y-54441558D01*
X128448413Y-54441558D01*
X128448413Y-54234166D01*
X127649345Y-54234166D01*
X127649345Y-54441558D01*
X127921801Y-54441558D01*
X127921801Y-55285357D01*
X127649345Y-55285357D01*
X127649345Y-55492749D01*
X128448413Y-55492749D01*
X131022760Y-56031811D01*
X130510130Y-56031811D01*
X126939741Y-55519181D01*
X127103305Y-55500204D01*
X127238855Y-55443273D01*
X127346391Y-55348388D01*
X127407770Y-55253969D01*
X127451612Y-55141505D01*
X127477917Y-55010995D01*
X127486685Y-54862441D01*
X127476011Y-54714522D01*
X127443987Y-54583886D01*
X127392902Y-54471294D01*
X127325042Y-54377511D01*
X127241679Y-54303297D01*
X127144083Y-54249416D01*
X127034541Y-54216630D01*
X126915342Y-54205701D01*
X126794363Y-54216884D01*
X126699817Y-54242299D01*
X126631703Y-54272798D01*
X126590022Y-54297197D01*
X126655086Y-54496456D01*
X126767931Y-54444608D01*
X126919408Y-54423259D01*
X127034287Y-54444608D01*
X127133916Y-54515772D01*
X127205080Y-54648950D01*
X127225667Y-54742479D01*
X127232529Y-54856341D01*
X127224283Y-54988841D01*
X127199545Y-55098976D01*
X127158315Y-55186745D01*
X127060465Y-55272904D01*
X126915342Y-55301623D01*
X126753698Y-55279257D01*
X126651019Y-55234526D01*
X126587988Y-55431751D01*
X126731333Y-55491732D01*
X126828674Y-55512319D01*
X126939741Y-55519181D01*
X130510130Y-56031811D01*
X125489870Y-56031811D01*
X125813320Y-55492749D01*
X125877367Y-55339238D01*
X125921336Y-55257908D01*
X125969880Y-55178612D01*
X126021982Y-55102873D01*
X126076626Y-55032217D01*
X126183371Y-54917339D01*
X126183371Y-55492749D01*
X126433461Y-55492749D01*
X126433461Y-54234166D01*
X126183371Y-54234166D01*
X126183371Y-54756712D01*
X126089842Y-54630650D01*
X125997329Y-54492389D01*
X125917015Y-54356161D01*
X125856018Y-54234166D01*
X125573396Y-54234166D01*
X125641510Y-54359211D01*
X125683954Y-54430883D01*
X125731990Y-54505605D01*
X125784600Y-54582615D01*
X125840769Y-54661149D01*
X125899987Y-54738921D01*
X125961747Y-54813643D01*
X125898208Y-54879215D01*
X125833652Y-54953937D01*
X125770367Y-55036030D01*
X125710640Y-55123714D01*
X125655489Y-55215210D01*
X125605928Y-55308740D01*
X125563738Y-55402015D01*
X125530698Y-55492749D01*
X125813320Y-55492749D01*
X125489870Y-56031811D01*
X124977240Y-56031811D01*
X125799433Y-52935763D01*
X125956278Y-52921316D01*
X126071848Y-52865595D01*
X126144079Y-52748993D01*
X126162653Y-52662058D01*
X126168844Y-52551905D01*
X126168844Y-52153601D01*
X126389665Y-52153601D01*
X126389665Y-51943099D01*
X126168844Y-51943099D01*
X126168844Y-51699576D01*
X125915003Y-51658301D01*
X125915003Y-51943099D01*
X125508444Y-51943099D01*
X125508444Y-52153601D01*
X125915003Y-52153601D01*
X125915003Y-52545714D01*
X125904684Y-52632391D01*
X125875791Y-52683985D01*
X125830389Y-52708750D01*
X125770540Y-52714941D01*
X125705532Y-52712878D01*
X125647747Y-52705654D01*
X125589962Y-52690176D01*
X125524954Y-52663348D01*
X125489870Y-52882105D01*
X125641556Y-52923380D01*
X125799433Y-52935763D01*
X124977240Y-56031811D01*
X124977240Y-50968189D01*
X128973480Y-51664493D01*
X129020946Y-51782126D01*
X129134453Y-51825465D01*
X129246927Y-51782126D01*
X129293361Y-51664493D01*
X129246927Y-51544795D01*
X129134453Y-51501456D01*
X129020946Y-51544795D01*
X128973480Y-51664493D01*
X124977240Y-50968189D01*
X125489870Y-50968189D01*
X130510130Y-50968189D01*
D13*
%TO.C,U4*%
X106999360Y-57914780D02*
X102000640Y-57914780D01*
X106999360Y-55085220D02*
X106999360Y-57914780D01*
X102000640Y-55085220D02*
X106999360Y-55085220D01*
X102000640Y-57914780D02*
X102000640Y-55085220D01*
D16*
X102741421Y-52372500D02*
G75*
G03*
X102741421Y-52372500I-141421J0D01*
G01*
D13*
X102000000Y-56000000D02*
G75*
G02*
X102000000Y-57000000I0J-500000D01*
G01*
D10*
%TO.C,J18*%
X73650000Y-60700000D02*
G75*
G03*
X73650000Y-60700000I-700000J0D01*
G01*
D13*
%TO.C,IC1*%
X64330502Y-58231200D02*
G75*
G03*
X64330502Y-58231200I-154502J0D01*
G01*
D10*
X66600000Y-57860000D02*
X64150000Y-57860000D01*
X64800000Y-54640000D02*
X66600000Y-54640000D01*
%TO.C,R23*%
X68841422Y-59590000D02*
X69358578Y-59590000D01*
X68841422Y-61010000D02*
X69358578Y-61010000D01*
X69000000Y-60554000D02*
X69200000Y-60554000D01*
X69200000Y-60558000D02*
X69200000Y-60050000D01*
X69200000Y-60046000D02*
X69000000Y-60046000D01*
X69000000Y-60050000D02*
X69000000Y-60550000D01*
%TO.C,R22*%
X114262779Y-57910000D02*
X113937221Y-57910000D01*
X114262779Y-56890000D02*
X113937221Y-56890000D01*
X114050000Y-57273000D02*
X114150000Y-57273000D01*
X114150000Y-57273000D02*
X114150000Y-57527000D01*
X114150000Y-57527000D02*
X114050000Y-57527000D01*
X114050000Y-57527000D02*
X114050000Y-57273000D01*
%TO.C,R21*%
X128112779Y-57910000D02*
X127787221Y-57910000D01*
X128112779Y-56890000D02*
X127787221Y-56890000D01*
X127900000Y-57273000D02*
X128000000Y-57273000D01*
X128000000Y-57273000D02*
X128000000Y-57527000D01*
X128000000Y-57527000D02*
X127900000Y-57527000D01*
X127900000Y-57527000D02*
X127900000Y-57273000D01*
%TO.C,R20*%
X54362779Y-59310000D02*
X54037221Y-59310000D01*
X54362779Y-58290000D02*
X54037221Y-58290000D01*
X54150000Y-58673000D02*
X54250000Y-58673000D01*
X54250000Y-58673000D02*
X54250000Y-58927000D01*
X54250000Y-58927000D02*
X54150000Y-58927000D01*
X54150000Y-58927000D02*
X54150000Y-58673000D01*
%TO.C,R19*%
X65574721Y-58390000D02*
X65900279Y-58390000D01*
X65574721Y-59410000D02*
X65900279Y-59410000D01*
X65787500Y-59027000D02*
X65687500Y-59027000D01*
X65687500Y-59027000D02*
X65687500Y-58773000D01*
X65687500Y-58773000D02*
X65787500Y-58773000D01*
X65787500Y-58773000D02*
X65787500Y-59027000D01*
%TO.C,R18*%
X61637221Y-60040000D02*
X61962779Y-60040000D01*
X61637221Y-61060000D02*
X61962779Y-61060000D01*
X61850000Y-60677000D02*
X61750000Y-60677000D01*
X61750000Y-60677000D02*
X61750000Y-60423000D01*
X61750000Y-60423000D02*
X61850000Y-60423000D01*
X61850000Y-60423000D02*
X61850000Y-60677000D01*
%TO.C,Q4*%
X52570000Y-55440000D02*
X53500000Y-55440000D01*
X55730000Y-55440000D02*
X54800000Y-55440000D01*
X55730000Y-55440000D02*
X55730000Y-57600000D01*
X52570000Y-55440000D02*
X52570000Y-56900000D01*
%TO.C,Q3*%
X53240000Y-54230000D02*
X53240000Y-53300000D01*
X53240000Y-51070000D02*
X53240000Y-52000000D01*
X53240000Y-51070000D02*
X55400000Y-51070000D01*
X53240000Y-54230000D02*
X54700000Y-54230000D01*
%TO.C,C16*%
X69327000Y-58500000D02*
G75*
G03*
X69327000Y-58500000I-127000J0D01*
G01*
X69037221Y-59010000D02*
X69362779Y-59010000D01*
X69037221Y-57990000D02*
X69362779Y-57990000D01*
%TO.C,R17*%
X87285000Y-57587221D02*
X87285000Y-57912779D01*
X86265000Y-57587221D02*
X86265000Y-57912779D01*
X86648000Y-57800000D02*
X86648000Y-57700000D01*
X86648000Y-57700000D02*
X86902000Y-57700000D01*
X86902000Y-57700000D02*
X86902000Y-57800000D01*
X86902000Y-57800000D02*
X86648000Y-57800000D01*
%TO.C,U6*%
X88265000Y-54590000D02*
X88265000Y-54140000D01*
X91485000Y-57360000D02*
X91035000Y-57360000D01*
X91485000Y-56910000D02*
X91485000Y-57360000D01*
X91485000Y-54140000D02*
X91035000Y-54140000D01*
X91485000Y-54590000D02*
X91485000Y-54140000D01*
X88265000Y-57360000D02*
X88715000Y-57360000D01*
X88265000Y-56910000D02*
X88265000Y-57360000D01*
%TO.C,Q1*%
X84150000Y-55600000D02*
X82850000Y-55600000D01*
X82600000Y-57400000D02*
X84150000Y-57400000D01*
D13*
X82058114Y-57000000D02*
G75*
G03*
X82058114Y-57000000I-158114J0D01*
G01*
D10*
%TO.C,Q2*%
X95750000Y-57400000D02*
X97050000Y-57400000D01*
X97300000Y-55600000D02*
X95750000Y-55600000D01*
D13*
X98158114Y-56000000D02*
G75*
G03*
X98158114Y-56000000I-158114J0D01*
G01*
D10*
%TO.C,R16*%
X69037221Y-56240000D02*
X69362779Y-56240000D01*
X69037221Y-57260000D02*
X69362779Y-57260000D01*
X69250000Y-56877000D02*
X69150000Y-56877000D01*
X69150000Y-56877000D02*
X69150000Y-56623000D01*
X69150000Y-56623000D02*
X69250000Y-56623000D01*
X69250000Y-56623000D02*
X69250000Y-56877000D01*
D17*
%TO.C,C14*%
X51304000Y-54350000D02*
G75*
G03*
X51304000Y-54350000I-254000J0D01*
G01*
D10*
X51960000Y-54952064D02*
X51960000Y-53747936D01*
X50140000Y-54952064D02*
X50140000Y-53747936D01*
%TO.C,C15*%
X69327000Y-55200000D02*
G75*
G03*
X69327000Y-55200000I-127000J0D01*
G01*
X69362779Y-54690000D02*
X69037221Y-54690000D01*
X69362779Y-55710000D02*
X69037221Y-55710000D01*
%TO.C,C13*%
X89387221Y-52190000D02*
X89712779Y-52190000D01*
X89387221Y-53210000D02*
X89712779Y-53210000D01*
X89677000Y-52700000D02*
G75*
G03*
X89677000Y-52700000I-127000J0D01*
G01*
%TO.C,R6*%
X56423000Y-52500000D02*
X56677000Y-52500000D01*
X56423000Y-52600000D02*
X56423000Y-52500000D01*
X56677000Y-52600000D02*
X56423000Y-52600000D01*
X56677000Y-52500000D02*
X56677000Y-52600000D01*
X57060000Y-52712779D02*
X57060000Y-52387221D01*
X56040000Y-52712779D02*
X56040000Y-52387221D01*
%TO.C,C10*%
X101527000Y-61000000D02*
G75*
G03*
X101527000Y-61000000I-127000J0D01*
G01*
X101237221Y-61510000D02*
X101562779Y-61510000D01*
X101237221Y-60490000D02*
X101562779Y-60490000D01*
%TO.C,C9*%
X104627000Y-60950000D02*
G75*
G03*
X104627000Y-60950000I-127000J0D01*
G01*
X104337221Y-61460000D02*
X104662779Y-61460000D01*
X104337221Y-60440000D02*
X104662779Y-60440000D01*
%TO.C,C8*%
X101327000Y-53500000D02*
G75*
G03*
X101327000Y-53500000I-127000J0D01*
G01*
X101710000Y-53662779D02*
X101710000Y-53337221D01*
X100690000Y-53662779D02*
X100690000Y-53337221D01*
%TO.C,C5*%
X79527000Y-51800000D02*
G75*
G03*
X79527000Y-51800000I-127000J0D01*
G01*
X79237221Y-52310000D02*
X79562779Y-52310000D01*
X79237221Y-51290000D02*
X79562779Y-51290000D01*
%TO.C,C3*%
X76127000Y-52200000D02*
G75*
G03*
X76127000Y-52200000I-127000J0D01*
G01*
X76162779Y-51690000D02*
X75837221Y-51690000D01*
X76162779Y-52710000D02*
X75837221Y-52710000D01*
%TO.C,C1*%
X77827000Y-60800000D02*
G75*
G03*
X77827000Y-60800000I-127000J0D01*
G01*
X77862779Y-60290000D02*
X77537221Y-60290000D01*
X77862779Y-61310000D02*
X77537221Y-61310000D01*
%TO.C,C4*%
X119827000Y-59900000D02*
G75*
G03*
X119827000Y-59900000I-127000J0D01*
G01*
X120210000Y-60062779D02*
X120210000Y-59737221D01*
X119190000Y-60062779D02*
X119190000Y-59737221D01*
%TO.C,C2*%
X117727000Y-59900000D02*
G75*
G03*
X117727000Y-59900000I-127000J0D01*
G01*
X118110000Y-60062779D02*
X118110000Y-59737221D01*
X117090000Y-60062779D02*
X117090000Y-59737221D01*
%TO.C,R11*%
X96841422Y-57890000D02*
X97358578Y-57890000D01*
X96841422Y-59310000D02*
X97358578Y-59310000D01*
X97000000Y-58854000D02*
X97200000Y-58854000D01*
X97200000Y-58858000D02*
X97200000Y-58350000D01*
X97200000Y-58346000D02*
X97000000Y-58346000D01*
X97000000Y-58350000D02*
X97000000Y-58850000D01*
%TO.C,R10*%
X96541422Y-53690000D02*
X97058578Y-53690000D01*
X96541422Y-55110000D02*
X97058578Y-55110000D01*
X96700000Y-54654000D02*
X96900000Y-54654000D01*
X96900000Y-54658000D02*
X96900000Y-54150000D01*
X96900000Y-54146000D02*
X96700000Y-54146000D01*
X96700000Y-54150000D02*
X96700000Y-54650000D01*
%TO.C,C12*%
X88327000Y-61700000D02*
G75*
G03*
X88327000Y-61700000I-127000J0D01*
G01*
X88037221Y-62210000D02*
X88362779Y-62210000D01*
X88037221Y-61190000D02*
X88362779Y-61190000D01*
%TO.C,C11*%
X91927000Y-61700000D02*
G75*
G03*
X91927000Y-61700000I-127000J0D01*
G01*
X91962779Y-61190000D02*
X91637221Y-61190000D01*
X91962779Y-62210000D02*
X91637221Y-62210000D01*
%TO.C,J13*%
X85700000Y-60850000D02*
G75*
G03*
X85700000Y-60850000I-700000J0D01*
G01*
%TO.C,C7*%
X61127000Y-58650000D02*
G75*
G03*
X61127000Y-58650000I-127000J0D01*
G01*
X61162779Y-58140000D02*
X60837221Y-58140000D01*
X61162779Y-59160000D02*
X60837221Y-59160000D01*
%TO.C,C6*%
X57627000Y-55000000D02*
G75*
G03*
X57627000Y-55000000I-127000J0D01*
G01*
X57662779Y-54490000D02*
X57337221Y-54490000D01*
X57662779Y-55510000D02*
X57337221Y-55510000D01*
%TO.C,U3*%
X60040000Y-57630000D02*
X60040000Y-56700000D01*
X60040000Y-54470000D02*
X60040000Y-55400000D01*
X60040000Y-54470000D02*
X62200000Y-54470000D01*
X60040000Y-57630000D02*
X61500000Y-57630000D01*
D13*
%TO.C,U1*%
X74000640Y-55085220D02*
X78999360Y-55085220D01*
X74000640Y-57914780D02*
X74000640Y-55085220D01*
X78999360Y-57914780D02*
X74000640Y-57914780D01*
X78999360Y-55085220D02*
X78999360Y-57914780D01*
D16*
X79591421Y-58950000D02*
G75*
G03*
X79591421Y-58950000I-141421J0D01*
G01*
D13*
X79000000Y-57000000D02*
G75*
G02*
X79000000Y-56000000I0J500000D01*
G01*
D10*
%TO.C,R4*%
X83058578Y-55110000D02*
X82541422Y-55110000D01*
X83058578Y-53690000D02*
X82541422Y-53690000D01*
X82900000Y-54146000D02*
X82700000Y-54146000D01*
X82700000Y-54142000D02*
X82700000Y-54650000D01*
X82700000Y-54654000D02*
X82900000Y-54654000D01*
X82900000Y-54650000D02*
X82900000Y-54150000D01*
%TO.C,R3*%
X83058578Y-59310000D02*
X82541422Y-59310000D01*
X83058578Y-57890000D02*
X82541422Y-57890000D01*
X82900000Y-58346000D02*
X82700000Y-58346000D01*
X82700000Y-58342000D02*
X82700000Y-58850000D01*
X82700000Y-58854000D02*
X82900000Y-58854000D01*
X82900000Y-58850000D02*
X82900000Y-58350000D01*
%TO.C,R15*%
X88037221Y-59590000D02*
X88362779Y-59590000D01*
X88037221Y-60610000D02*
X88362779Y-60610000D01*
X88250000Y-60227000D02*
X88150000Y-60227000D01*
X88150000Y-60227000D02*
X88150000Y-59973000D01*
X88150000Y-59973000D02*
X88250000Y-59973000D01*
X88250000Y-59973000D02*
X88250000Y-60227000D01*
%TO.C,R14*%
X91962779Y-60610000D02*
X91637221Y-60610000D01*
X91962779Y-59590000D02*
X91637221Y-59590000D01*
X91750000Y-59973000D02*
X91850000Y-59973000D01*
X91850000Y-59973000D02*
X91850000Y-60227000D01*
X91850000Y-60227000D02*
X91750000Y-60227000D01*
X91750000Y-60227000D02*
X91750000Y-59973000D01*
%TO.C,R12*%
X96950000Y-60727000D02*
X96950000Y-60473000D01*
X97050000Y-60727000D02*
X96950000Y-60727000D01*
X97050000Y-60473000D02*
X97050000Y-60727000D01*
X96950000Y-60473000D02*
X97050000Y-60473000D01*
X97162779Y-60090000D02*
X96837221Y-60090000D01*
X97162779Y-61110000D02*
X96837221Y-61110000D01*
%TO.C,R9*%
X99527000Y-53950000D02*
X99273000Y-53950000D01*
X99527000Y-53850000D02*
X99527000Y-53950000D01*
X99273000Y-53850000D02*
X99527000Y-53850000D01*
X99273000Y-53950000D02*
X99273000Y-53850000D01*
X98890000Y-53737221D02*
X98890000Y-54062779D01*
X99910000Y-53737221D02*
X99910000Y-54062779D01*
%TO.C,R8*%
X108527000Y-55350000D02*
X108273000Y-55350000D01*
X108527000Y-55250000D02*
X108527000Y-55350000D01*
X108273000Y-55250000D02*
X108527000Y-55250000D01*
X108273000Y-55350000D02*
X108273000Y-55250000D01*
X107890000Y-55137221D02*
X107890000Y-55462779D01*
X108910000Y-55137221D02*
X108910000Y-55462779D01*
%TO.C,R7*%
X72927000Y-54650000D02*
X72673000Y-54650000D01*
X72927000Y-54550000D02*
X72927000Y-54650000D01*
X72673000Y-54550000D02*
X72927000Y-54550000D01*
X72673000Y-54650000D02*
X72673000Y-54550000D01*
X72290000Y-54437221D02*
X72290000Y-54762779D01*
X73310000Y-54437221D02*
X73310000Y-54762779D01*
%TO.C,R5*%
X80073000Y-54250000D02*
X80327000Y-54250000D01*
X80073000Y-54350000D02*
X80073000Y-54250000D01*
X80327000Y-54350000D02*
X80073000Y-54350000D01*
X80327000Y-54250000D02*
X80327000Y-54350000D01*
X80710000Y-54462779D02*
X80710000Y-54137221D01*
X79690000Y-54462779D02*
X79690000Y-54137221D01*
%TO.C,R2*%
X81450000Y-60527000D02*
X81450000Y-60273000D01*
X81550000Y-60527000D02*
X81450000Y-60527000D01*
X81550000Y-60273000D02*
X81550000Y-60527000D01*
X81450000Y-60273000D02*
X81550000Y-60273000D01*
X81662779Y-59890000D02*
X81337221Y-59890000D01*
X81662779Y-60910000D02*
X81337221Y-60910000D01*
%TD*%
M02*
