%TF.GenerationSoftware,KiCad,Pcbnew,5.1.10-88a1d61d58~90~ubuntu20.04.1*%
%TF.CreationDate,2021-10-17T13:06:20+02:00*%
%TF.ProjectId,LightSTICK,4c696768-7453-4544-9943-4b2e6b696361,rev?*%
%TF.SameCoordinates,Original*%
%TF.FileFunction,Copper,L1,Top*%
%TF.FilePolarity,Positive*%
%FSLAX46Y46*%
G04 Gerber Fmt 4.6, Leading zero omitted, Abs format (unit mm)*
G04 Created by KiCad (PCBNEW 5.1.10-88a1d61d58~90~ubuntu20.04.1) date 2021-10-17 13:06:20*
%MOMM*%
%LPD*%
G01*
G04 APERTURE LIST*
%TA.AperFunction,SMDPad,CuDef*%
%ADD10R,2.800000X1.000000*%
%TD*%
%TA.AperFunction,SMDPad,CuDef*%
%ADD11R,2.000000X1.000000*%
%TD*%
%TA.AperFunction,ViaPad*%
%ADD12C,0.700000*%
%TD*%
%TA.AperFunction,ViaPad*%
%ADD13C,1.000000*%
%TD*%
%TA.AperFunction,ViaPad*%
%ADD14C,0.800000*%
%TD*%
%TA.AperFunction,Conductor*%
%ADD15C,0.600000*%
%TD*%
%TA.AperFunction,Conductor*%
%ADD16C,1.000000*%
%TD*%
%TA.AperFunction,Conductor*%
%ADD17C,0.250000*%
%TD*%
%TA.AperFunction,Conductor*%
%ADD18C,0.800000*%
%TD*%
%TA.AperFunction,Conductor*%
%ADD19C,0.180000*%
%TD*%
%TA.AperFunction,Conductor*%
%ADD20C,0.100000*%
%TD*%
%TA.AperFunction,Conductor*%
%ADD21C,0.025400*%
%TD*%
G04 APERTURE END LIST*
%TO.P,D4,5*%
%TO.N,GND*%
%TA.AperFunction,SMDPad,CuDef*%
G36*
G01*
X126630000Y-58913000D02*
X126630000Y-54087000D01*
G75*
G02*
X126717000Y-54000000I87000J0D01*
G01*
X128283000Y-54000000D01*
G75*
G02*
X128370000Y-54087000I0J-87000D01*
G01*
X128370000Y-58913000D01*
G75*
G02*
X128283000Y-59000000I-87000J0D01*
G01*
X126717000Y-59000000D01*
G75*
G02*
X126630000Y-58913000I0J87000D01*
G01*
G37*
%TD.AperFunction*%
%TO.P,D4,4*%
%TO.N,+12V*%
%TA.AperFunction,SMDPad,CuDef*%
G36*
G01*
X128850000Y-58450000D02*
X128850000Y-57750000D01*
G75*
G02*
X129000000Y-57600000I150000J0D01*
G01*
X130700000Y-57600000D01*
G75*
G02*
X130850000Y-57750000I0J-150000D01*
G01*
X130850000Y-58450000D01*
G75*
G02*
X130700000Y-58600000I-150000J0D01*
G01*
X129000000Y-58600000D01*
G75*
G02*
X128850000Y-58450000I0J150000D01*
G01*
G37*
%TD.AperFunction*%
D10*
%TO.P,D4,5*%
%TO.N,GND*%
X129500000Y-56500000D03*
%TO.P,D4,6*%
%TO.N,+12V*%
%TA.AperFunction,SMDPad,CuDef*%
G36*
G01*
X128850000Y-55250000D02*
X128850000Y-54550000D01*
G75*
G02*
X129000000Y-54400000I150000J0D01*
G01*
X130700000Y-54400000D01*
G75*
G02*
X130850000Y-54550000I0J-150000D01*
G01*
X130850000Y-55250000D01*
G75*
G02*
X130700000Y-55400000I-150000J0D01*
G01*
X129000000Y-55400000D01*
G75*
G02*
X128850000Y-55250000I0J150000D01*
G01*
G37*
%TD.AperFunction*%
%TO.P,D4,3*%
%TO.N,Net-(D4-Pad3)*%
%TA.AperFunction,SMDPad,CuDef*%
G36*
G01*
X124150000Y-58450000D02*
X124150000Y-57750000D01*
G75*
G02*
X124300000Y-57600000I150000J0D01*
G01*
X126000000Y-57600000D01*
G75*
G02*
X126150000Y-57750000I0J-150000D01*
G01*
X126150000Y-58450000D01*
G75*
G02*
X126000000Y-58600000I-150000J0D01*
G01*
X124300000Y-58600000D01*
G75*
G02*
X124150000Y-58450000I0J150000D01*
G01*
G37*
%TD.AperFunction*%
%TO.P,D4,2*%
%TO.N,GND*%
%TA.AperFunction,SMDPad,CuDef*%
G36*
G01*
X124100000Y-56850000D02*
X124100000Y-56150000D01*
G75*
G02*
X124250000Y-56000000I150000J0D01*
G01*
X125950000Y-56000000D01*
G75*
G02*
X126100000Y-56150000I0J-150000D01*
G01*
X126100000Y-56850000D01*
G75*
G02*
X125950000Y-57000000I-150000J0D01*
G01*
X124250000Y-57000000D01*
G75*
G02*
X124100000Y-56850000I0J150000D01*
G01*
G37*
%TD.AperFunction*%
D11*
%TO.P,D4,1*%
%TO.N,Net-(D4-Pad1)*%
X125150000Y-54900000D03*
%TD*%
%TO.P,D5,5*%
%TO.N,GND*%
%TA.AperFunction,SMDPad,CuDef*%
G36*
G01*
X111630000Y-58913000D02*
X111630000Y-54087000D01*
G75*
G02*
X111717000Y-54000000I87000J0D01*
G01*
X113283000Y-54000000D01*
G75*
G02*
X113370000Y-54087000I0J-87000D01*
G01*
X113370000Y-58913000D01*
G75*
G02*
X113283000Y-59000000I-87000J0D01*
G01*
X111717000Y-59000000D01*
G75*
G02*
X111630000Y-58913000I0J87000D01*
G01*
G37*
%TD.AperFunction*%
%TO.P,D5,4*%
%TO.N,Net-(D4-Pad3)*%
%TA.AperFunction,SMDPad,CuDef*%
G36*
G01*
X113850000Y-58450000D02*
X113850000Y-57750000D01*
G75*
G02*
X114000000Y-57600000I150000J0D01*
G01*
X115700000Y-57600000D01*
G75*
G02*
X115850000Y-57750000I0J-150000D01*
G01*
X115850000Y-58450000D01*
G75*
G02*
X115700000Y-58600000I-150000J0D01*
G01*
X114000000Y-58600000D01*
G75*
G02*
X113850000Y-58450000I0J150000D01*
G01*
G37*
%TD.AperFunction*%
D10*
%TO.P,D5,5*%
%TO.N,GND*%
X114500000Y-56500000D03*
%TO.P,D5,6*%
%TO.N,Net-(D4-Pad1)*%
%TA.AperFunction,SMDPad,CuDef*%
G36*
G01*
X113850000Y-55250000D02*
X113850000Y-54550000D01*
G75*
G02*
X114000000Y-54400000I150000J0D01*
G01*
X115700000Y-54400000D01*
G75*
G02*
X115850000Y-54550000I0J-150000D01*
G01*
X115850000Y-55250000D01*
G75*
G02*
X115700000Y-55400000I-150000J0D01*
G01*
X114000000Y-55400000D01*
G75*
G02*
X113850000Y-55250000I0J150000D01*
G01*
G37*
%TD.AperFunction*%
%TO.P,D5,3*%
%TO.N,Net-(D5-Pad3)*%
%TA.AperFunction,SMDPad,CuDef*%
G36*
G01*
X109150000Y-58450000D02*
X109150000Y-57750000D01*
G75*
G02*
X109300000Y-57600000I150000J0D01*
G01*
X111000000Y-57600000D01*
G75*
G02*
X111150000Y-57750000I0J-150000D01*
G01*
X111150000Y-58450000D01*
G75*
G02*
X111000000Y-58600000I-150000J0D01*
G01*
X109300000Y-58600000D01*
G75*
G02*
X109150000Y-58450000I0J150000D01*
G01*
G37*
%TD.AperFunction*%
%TO.P,D5,2*%
%TO.N,GND*%
%TA.AperFunction,SMDPad,CuDef*%
G36*
G01*
X109100000Y-56850000D02*
X109100000Y-56150000D01*
G75*
G02*
X109250000Y-56000000I150000J0D01*
G01*
X110950000Y-56000000D01*
G75*
G02*
X111100000Y-56150000I0J-150000D01*
G01*
X111100000Y-56850000D01*
G75*
G02*
X110950000Y-57000000I-150000J0D01*
G01*
X109250000Y-57000000D01*
G75*
G02*
X109100000Y-56850000I0J150000D01*
G01*
G37*
%TD.AperFunction*%
D11*
%TO.P,D5,1*%
%TO.N,Net-(D5-Pad1)*%
X110150000Y-54900000D03*
%TD*%
%TO.P,D3,5*%
%TO.N,GND*%
%TA.AperFunction,SMDPad,CuDef*%
G36*
G01*
X83370000Y-54087000D02*
X83370000Y-58913000D01*
G75*
G02*
X83283000Y-59000000I-87000J0D01*
G01*
X81717000Y-59000000D01*
G75*
G02*
X81630000Y-58913000I0J87000D01*
G01*
X81630000Y-54087000D01*
G75*
G02*
X81717000Y-54000000I87000J0D01*
G01*
X83283000Y-54000000D01*
G75*
G02*
X83370000Y-54087000I0J-87000D01*
G01*
G37*
%TD.AperFunction*%
%TO.P,D3,4*%
%TO.N,Net-(D2-Pad3)*%
%TA.AperFunction,SMDPad,CuDef*%
G36*
G01*
X81150000Y-54550000D02*
X81150000Y-55250000D01*
G75*
G02*
X81000000Y-55400000I-150000J0D01*
G01*
X79300000Y-55400000D01*
G75*
G02*
X79150000Y-55250000I0J150000D01*
G01*
X79150000Y-54550000D01*
G75*
G02*
X79300000Y-54400000I150000J0D01*
G01*
X81000000Y-54400000D01*
G75*
G02*
X81150000Y-54550000I0J-150000D01*
G01*
G37*
%TD.AperFunction*%
D10*
%TO.P,D3,5*%
%TO.N,GND*%
X80500000Y-56500000D03*
%TO.P,D3,6*%
%TO.N,Net-(D2-Pad1)*%
%TA.AperFunction,SMDPad,CuDef*%
G36*
G01*
X81150000Y-57750000D02*
X81150000Y-58450000D01*
G75*
G02*
X81000000Y-58600000I-150000J0D01*
G01*
X79300000Y-58600000D01*
G75*
G02*
X79150000Y-58450000I0J150000D01*
G01*
X79150000Y-57750000D01*
G75*
G02*
X79300000Y-57600000I150000J0D01*
G01*
X81000000Y-57600000D01*
G75*
G02*
X81150000Y-57750000I0J-150000D01*
G01*
G37*
%TD.AperFunction*%
%TO.P,D3,3*%
%TO.N,Net-(D3-Pad3)*%
%TA.AperFunction,SMDPad,CuDef*%
G36*
G01*
X85850000Y-54550000D02*
X85850000Y-55250000D01*
G75*
G02*
X85700000Y-55400000I-150000J0D01*
G01*
X84000000Y-55400000D01*
G75*
G02*
X83850000Y-55250000I0J150000D01*
G01*
X83850000Y-54550000D01*
G75*
G02*
X84000000Y-54400000I150000J0D01*
G01*
X85700000Y-54400000D01*
G75*
G02*
X85850000Y-54550000I0J-150000D01*
G01*
G37*
%TD.AperFunction*%
%TO.P,D3,2*%
%TO.N,GND*%
%TA.AperFunction,SMDPad,CuDef*%
G36*
G01*
X85900000Y-56150000D02*
X85900000Y-56850000D01*
G75*
G02*
X85750000Y-57000000I-150000J0D01*
G01*
X84050000Y-57000000D01*
G75*
G02*
X83900000Y-56850000I0J150000D01*
G01*
X83900000Y-56150000D01*
G75*
G02*
X84050000Y-56000000I150000J0D01*
G01*
X85750000Y-56000000D01*
G75*
G02*
X85900000Y-56150000I0J-150000D01*
G01*
G37*
%TD.AperFunction*%
D11*
%TO.P,D3,1*%
%TO.N,Net-(D3-Pad1)*%
X84850000Y-58100000D03*
%TD*%
%TO.P,D2,5*%
%TO.N,GND*%
%TA.AperFunction,SMDPad,CuDef*%
G36*
G01*
X68370000Y-54087000D02*
X68370000Y-58913000D01*
G75*
G02*
X68283000Y-59000000I-87000J0D01*
G01*
X66717000Y-59000000D01*
G75*
G02*
X66630000Y-58913000I0J87000D01*
G01*
X66630000Y-54087000D01*
G75*
G02*
X66717000Y-54000000I87000J0D01*
G01*
X68283000Y-54000000D01*
G75*
G02*
X68370000Y-54087000I0J-87000D01*
G01*
G37*
%TD.AperFunction*%
%TO.P,D2,4*%
%TO.N,Net-(D1-Pad3)*%
%TA.AperFunction,SMDPad,CuDef*%
G36*
G01*
X66150000Y-54550000D02*
X66150000Y-55250000D01*
G75*
G02*
X66000000Y-55400000I-150000J0D01*
G01*
X64300000Y-55400000D01*
G75*
G02*
X64150000Y-55250000I0J150000D01*
G01*
X64150000Y-54550000D01*
G75*
G02*
X64300000Y-54400000I150000J0D01*
G01*
X66000000Y-54400000D01*
G75*
G02*
X66150000Y-54550000I0J-150000D01*
G01*
G37*
%TD.AperFunction*%
D10*
%TO.P,D2,5*%
%TO.N,GND*%
X65500000Y-56500000D03*
%TO.P,D2,6*%
%TO.N,Net-(D1-Pad1)*%
%TA.AperFunction,SMDPad,CuDef*%
G36*
G01*
X66150000Y-57750000D02*
X66150000Y-58450000D01*
G75*
G02*
X66000000Y-58600000I-150000J0D01*
G01*
X64300000Y-58600000D01*
G75*
G02*
X64150000Y-58450000I0J150000D01*
G01*
X64150000Y-57750000D01*
G75*
G02*
X64300000Y-57600000I150000J0D01*
G01*
X66000000Y-57600000D01*
G75*
G02*
X66150000Y-57750000I0J-150000D01*
G01*
G37*
%TD.AperFunction*%
%TO.P,D2,3*%
%TO.N,Net-(D2-Pad3)*%
%TA.AperFunction,SMDPad,CuDef*%
G36*
G01*
X70850000Y-54550000D02*
X70850000Y-55250000D01*
G75*
G02*
X70700000Y-55400000I-150000J0D01*
G01*
X69000000Y-55400000D01*
G75*
G02*
X68850000Y-55250000I0J150000D01*
G01*
X68850000Y-54550000D01*
G75*
G02*
X69000000Y-54400000I150000J0D01*
G01*
X70700000Y-54400000D01*
G75*
G02*
X70850000Y-54550000I0J-150000D01*
G01*
G37*
%TD.AperFunction*%
%TO.P,D2,2*%
%TO.N,GND*%
%TA.AperFunction,SMDPad,CuDef*%
G36*
G01*
X70900000Y-56150000D02*
X70900000Y-56850000D01*
G75*
G02*
X70750000Y-57000000I-150000J0D01*
G01*
X69050000Y-57000000D01*
G75*
G02*
X68900000Y-56850000I0J150000D01*
G01*
X68900000Y-56150000D01*
G75*
G02*
X69050000Y-56000000I150000J0D01*
G01*
X70750000Y-56000000D01*
G75*
G02*
X70900000Y-56150000I0J-150000D01*
G01*
G37*
%TD.AperFunction*%
D11*
%TO.P,D2,1*%
%TO.N,Net-(D2-Pad1)*%
X69850000Y-58100000D03*
%TD*%
%TO.P,D1,5*%
%TO.N,GND*%
%TA.AperFunction,SMDPad,CuDef*%
G36*
G01*
X53370000Y-54086999D02*
X53370000Y-58912999D01*
G75*
G02*
X53283000Y-58999999I-87000J0D01*
G01*
X51717000Y-58999999D01*
G75*
G02*
X51630000Y-58912999I0J87000D01*
G01*
X51630000Y-54086999D01*
G75*
G02*
X51717000Y-53999999I87000J0D01*
G01*
X53283000Y-53999999D01*
G75*
G02*
X53370000Y-54086999I0J-87000D01*
G01*
G37*
%TD.AperFunction*%
%TO.P,D1,4*%
%TO.N,+12V*%
%TA.AperFunction,SMDPad,CuDef*%
G36*
G01*
X51150000Y-54549999D02*
X51150000Y-55249999D01*
G75*
G02*
X51000000Y-55399999I-150000J0D01*
G01*
X49300000Y-55399999D01*
G75*
G02*
X49150000Y-55249999I0J150000D01*
G01*
X49150000Y-54549999D01*
G75*
G02*
X49300000Y-54399999I150000J0D01*
G01*
X51000000Y-54399999D01*
G75*
G02*
X51150000Y-54549999I0J-150000D01*
G01*
G37*
%TD.AperFunction*%
D10*
%TO.P,D1,5*%
%TO.N,GND*%
X50500000Y-56499999D03*
%TO.P,D1,6*%
%TO.N,+12V*%
%TA.AperFunction,SMDPad,CuDef*%
G36*
G01*
X51150000Y-57749999D02*
X51150000Y-58449999D01*
G75*
G02*
X51000000Y-58599999I-150000J0D01*
G01*
X49300000Y-58599999D01*
G75*
G02*
X49150000Y-58449999I0J150000D01*
G01*
X49150000Y-57749999D01*
G75*
G02*
X49300000Y-57599999I150000J0D01*
G01*
X51000000Y-57599999D01*
G75*
G02*
X51150000Y-57749999I0J-150000D01*
G01*
G37*
%TD.AperFunction*%
%TO.P,D1,3*%
%TO.N,Net-(D1-Pad3)*%
%TA.AperFunction,SMDPad,CuDef*%
G36*
G01*
X55850000Y-54549999D02*
X55850000Y-55249999D01*
G75*
G02*
X55700000Y-55399999I-150000J0D01*
G01*
X54000000Y-55399999D01*
G75*
G02*
X53850000Y-55249999I0J150000D01*
G01*
X53850000Y-54549999D01*
G75*
G02*
X54000000Y-54399999I150000J0D01*
G01*
X55700000Y-54399999D01*
G75*
G02*
X55850000Y-54549999I0J-150000D01*
G01*
G37*
%TD.AperFunction*%
%TO.P,D1,2*%
%TO.N,GND*%
%TA.AperFunction,SMDPad,CuDef*%
G36*
G01*
X55900000Y-56149999D02*
X55900000Y-56849999D01*
G75*
G02*
X55750000Y-56999999I-150000J0D01*
G01*
X54050000Y-56999999D01*
G75*
G02*
X53900000Y-56849999I0J150000D01*
G01*
X53900000Y-56149999D01*
G75*
G02*
X54050000Y-55999999I150000J0D01*
G01*
X55750000Y-55999999D01*
G75*
G02*
X55900000Y-56149999I0J-150000D01*
G01*
G37*
%TD.AperFunction*%
D11*
%TO.P,D1,1*%
%TO.N,Net-(D1-Pad1)*%
X54850000Y-58099999D03*
%TD*%
%TO.P,D6,5*%
%TO.N,GND*%
%TA.AperFunction,SMDPad,CuDef*%
G36*
G01*
X96630000Y-58913000D02*
X96630000Y-54087000D01*
G75*
G02*
X96717000Y-54000000I87000J0D01*
G01*
X98283000Y-54000000D01*
G75*
G02*
X98370000Y-54087000I0J-87000D01*
G01*
X98370000Y-58913000D01*
G75*
G02*
X98283000Y-59000000I-87000J0D01*
G01*
X96717000Y-59000000D01*
G75*
G02*
X96630000Y-58913000I0J87000D01*
G01*
G37*
%TD.AperFunction*%
%TO.P,D6,4*%
%TO.N,Net-(D5-Pad3)*%
%TA.AperFunction,SMDPad,CuDef*%
G36*
G01*
X98850000Y-58450000D02*
X98850000Y-57750000D01*
G75*
G02*
X99000000Y-57600000I150000J0D01*
G01*
X100700000Y-57600000D01*
G75*
G02*
X100850000Y-57750000I0J-150000D01*
G01*
X100850000Y-58450000D01*
G75*
G02*
X100700000Y-58600000I-150000J0D01*
G01*
X99000000Y-58600000D01*
G75*
G02*
X98850000Y-58450000I0J150000D01*
G01*
G37*
%TD.AperFunction*%
D10*
%TO.P,D6,5*%
%TO.N,GND*%
X99500000Y-56500000D03*
%TO.P,D6,6*%
%TO.N,Net-(D5-Pad1)*%
%TA.AperFunction,SMDPad,CuDef*%
G36*
G01*
X98850000Y-55250000D02*
X98850000Y-54550000D01*
G75*
G02*
X99000000Y-54400000I150000J0D01*
G01*
X100700000Y-54400000D01*
G75*
G02*
X100850000Y-54550000I0J-150000D01*
G01*
X100850000Y-55250000D01*
G75*
G02*
X100700000Y-55400000I-150000J0D01*
G01*
X99000000Y-55400000D01*
G75*
G02*
X98850000Y-55250000I0J150000D01*
G01*
G37*
%TD.AperFunction*%
%TO.P,D6,3*%
%TO.N,Net-(D6-Pad3)*%
%TA.AperFunction,SMDPad,CuDef*%
G36*
G01*
X94150000Y-58450000D02*
X94150000Y-57750000D01*
G75*
G02*
X94300000Y-57600000I150000J0D01*
G01*
X96000000Y-57600000D01*
G75*
G02*
X96150000Y-57750000I0J-150000D01*
G01*
X96150000Y-58450000D01*
G75*
G02*
X96000000Y-58600000I-150000J0D01*
G01*
X94300000Y-58600000D01*
G75*
G02*
X94150000Y-58450000I0J150000D01*
G01*
G37*
%TD.AperFunction*%
%TO.P,D6,2*%
%TO.N,GND*%
%TA.AperFunction,SMDPad,CuDef*%
G36*
G01*
X94100000Y-56850000D02*
X94100000Y-56150000D01*
G75*
G02*
X94250000Y-56000000I150000J0D01*
G01*
X95950000Y-56000000D01*
G75*
G02*
X96100000Y-56150000I0J-150000D01*
G01*
X96100000Y-56850000D01*
G75*
G02*
X95950000Y-57000000I-150000J0D01*
G01*
X94250000Y-57000000D01*
G75*
G02*
X94100000Y-56850000I0J150000D01*
G01*
G37*
%TD.AperFunction*%
D11*
%TO.P,D6,1*%
%TO.N,Net-(D6-Pad1)*%
X95150000Y-54900000D03*
%TD*%
%TO.P,J12,1*%
%TO.N,/WWHITE_LVL*%
%TA.AperFunction,ComponentPad*%
G36*
G01*
X136750000Y-56875000D02*
X136750000Y-56125000D01*
G75*
G02*
X137125000Y-55750000I375000J0D01*
G01*
X138875000Y-55750000D01*
G75*
G02*
X139250000Y-56125000I0J-375000D01*
G01*
X139250000Y-56875000D01*
G75*
G02*
X138875000Y-57250000I-375000J0D01*
G01*
X137125000Y-57250000D01*
G75*
G02*
X136750000Y-56875000I0J375000D01*
G01*
G37*
%TD.AperFunction*%
%TD*%
%TO.P,J11,1*%
%TO.N,/WHITE_LVL*%
%TA.AperFunction,ComponentPad*%
G36*
G01*
X136000000Y-54625000D02*
X136000000Y-53875000D01*
G75*
G02*
X136375000Y-53500000I375000J0D01*
G01*
X138125000Y-53500000D01*
G75*
G02*
X138500000Y-53875000I0J-375000D01*
G01*
X138500000Y-54625000D01*
G75*
G02*
X138125000Y-55000000I-375000J0D01*
G01*
X136375000Y-55000000D01*
G75*
G02*
X136000000Y-54625000I0J375000D01*
G01*
G37*
%TD.AperFunction*%
%TD*%
%TO.P,J10,1*%
%TO.N,/5VAUX*%
%TA.AperFunction,ComponentPad*%
G36*
G01*
X136000000Y-59125000D02*
X136000000Y-58375000D01*
G75*
G02*
X136375000Y-58000000I375000J0D01*
G01*
X138125000Y-58000000D01*
G75*
G02*
X138500000Y-58375000I0J-375000D01*
G01*
X138500000Y-59125000D01*
G75*
G02*
X138125000Y-59500000I-375000J0D01*
G01*
X136375000Y-59500000D01*
G75*
G02*
X136000000Y-59125000I0J375000D01*
G01*
G37*
%TD.AperFunction*%
%TD*%
%TO.P,J9,1*%
%TO.N,+12V*%
%TA.AperFunction,ComponentPad*%
G36*
G01*
X133750000Y-52375000D02*
X133750000Y-51625000D01*
G75*
G02*
X134125000Y-51250000I375000J0D01*
G01*
X135875000Y-51250000D01*
G75*
G02*
X136250000Y-51625000I0J-375000D01*
G01*
X136250000Y-52375000D01*
G75*
G02*
X135875000Y-52750000I-375000J0D01*
G01*
X134125000Y-52750000D01*
G75*
G02*
X133750000Y-52375000I0J375000D01*
G01*
G37*
%TD.AperFunction*%
%TD*%
%TO.P,J8,1*%
%TO.N,GND*%
%TA.AperFunction,ComponentPad*%
G36*
G01*
X133750000Y-61375000D02*
X133750000Y-60625000D01*
G75*
G02*
X134125000Y-60250000I375000J0D01*
G01*
X135875000Y-60250000D01*
G75*
G02*
X136250000Y-60625000I0J-375000D01*
G01*
X136250000Y-61375000D01*
G75*
G02*
X135875000Y-61750000I-375000J0D01*
G01*
X134125000Y-61750000D01*
G75*
G02*
X133750000Y-61375000I0J375000D01*
G01*
G37*
%TD.AperFunction*%
%TD*%
%TO.P,J7,1*%
%TO.N,GND*%
%TA.AperFunction,ComponentPad*%
G36*
G01*
X43750000Y-61375000D02*
X43750000Y-60625000D01*
G75*
G02*
X44125000Y-60250000I375000J0D01*
G01*
X45875000Y-60250000D01*
G75*
G02*
X46250000Y-60625000I0J-375000D01*
G01*
X46250000Y-61375000D01*
G75*
G02*
X45875000Y-61750000I-375000J0D01*
G01*
X44125000Y-61750000D01*
G75*
G02*
X43750000Y-61375000I0J375000D01*
G01*
G37*
%TD.AperFunction*%
%TD*%
%TO.P,J6,1*%
%TO.N,+12V*%
%TA.AperFunction,ComponentPad*%
G36*
G01*
X43750000Y-52375000D02*
X43750000Y-51625000D01*
G75*
G02*
X44125000Y-51250000I375000J0D01*
G01*
X45875000Y-51250000D01*
G75*
G02*
X46250000Y-51625000I0J-375000D01*
G01*
X46250000Y-52375000D01*
G75*
G02*
X45875000Y-52750000I-375000J0D01*
G01*
X44125000Y-52750000D01*
G75*
G02*
X43750000Y-52375000I0J375000D01*
G01*
G37*
%TD.AperFunction*%
%TD*%
%TO.P,J5,1*%
%TO.N,/5VAUX*%
%TA.AperFunction,ComponentPad*%
G36*
G01*
X41500000Y-59125000D02*
X41500000Y-58375000D01*
G75*
G02*
X41875000Y-58000000I375000J0D01*
G01*
X43625000Y-58000000D01*
G75*
G02*
X44000000Y-58375000I0J-375000D01*
G01*
X44000000Y-59125000D01*
G75*
G02*
X43625000Y-59500000I-375000J0D01*
G01*
X41875000Y-59500000D01*
G75*
G02*
X41500000Y-59125000I0J375000D01*
G01*
G37*
%TD.AperFunction*%
%TD*%
%TO.P,J4,1*%
%TO.N,/WHITE_LVL*%
%TA.AperFunction,ComponentPad*%
G36*
G01*
X41500000Y-54625000D02*
X41500000Y-53875000D01*
G75*
G02*
X41875000Y-53500000I375000J0D01*
G01*
X43625000Y-53500000D01*
G75*
G02*
X44000000Y-53875000I0J-375000D01*
G01*
X44000000Y-54625000D01*
G75*
G02*
X43625000Y-55000000I-375000J0D01*
G01*
X41875000Y-55000000D01*
G75*
G02*
X41500000Y-54625000I0J375000D01*
G01*
G37*
%TD.AperFunction*%
%TD*%
%TO.P,J1,1*%
%TO.N,/WWHITE_LVL*%
%TA.AperFunction,ComponentPad*%
G36*
G01*
X40750000Y-56875000D02*
X40750000Y-56125000D01*
G75*
G02*
X41125000Y-55750000I375000J0D01*
G01*
X42875000Y-55750000D01*
G75*
G02*
X43250000Y-56125000I0J-375000D01*
G01*
X43250000Y-56875000D01*
G75*
G02*
X42875000Y-57250000I-375000J0D01*
G01*
X41125000Y-57250000D01*
G75*
G02*
X40750000Y-56875000I0J375000D01*
G01*
G37*
%TD.AperFunction*%
%TD*%
D12*
%TO.N,GND*%
X101500000Y-59200000D03*
D13*
X78250000Y-56500000D03*
X72750000Y-56500000D03*
X76750000Y-56500000D03*
X75250000Y-56500000D03*
X74000000Y-56500000D03*
X104750000Y-56500000D03*
X106250000Y-56500000D03*
X103250000Y-56500000D03*
X101750000Y-56500000D03*
X116750000Y-56500000D03*
X118250000Y-56500000D03*
X119750000Y-56500000D03*
X121250000Y-56500000D03*
X122750000Y-56500000D03*
X122000000Y-59750000D03*
X123500000Y-59750000D03*
X56750000Y-56500000D03*
X58000000Y-56500000D03*
X56750000Y-59500000D03*
X58000000Y-59500000D03*
X63250000Y-56500000D03*
D12*
X89936586Y-58900000D03*
X89875000Y-55750000D03*
D13*
X63350000Y-59500000D03*
D14*
%TO.N,Net-(D3-Pad3)*%
X84849992Y-53949992D03*
%TO.N,Net-(D3-Pad1)*%
X84900000Y-59000000D03*
%TO.N,Net-(D6-Pad3)*%
X95005010Y-59100005D03*
%TO.N,Net-(D6-Pad1)*%
X94600000Y-54000000D03*
D12*
%TO.N,/WWHITE_LVL*%
X86200000Y-60819990D03*
X108200000Y-60700000D03*
%TO.N,/WHITE_LVL*%
X71300000Y-59600000D03*
X107400000Y-60300000D03*
X93660050Y-60436877D03*
%TO.N,/IRDA_RX*%
X65700000Y-59845000D03*
X93122190Y-59146532D03*
%TO.N,/AIN7_BRIGHT*%
X120500000Y-59945000D03*
X92388497Y-56983895D03*
%TO.N,/AIN6_COLORTEMP*%
X118500000Y-59945000D03*
X92901298Y-57753129D03*
%TO.N,/5V_EN*%
X93000000Y-55250000D03*
X63779600Y-53850000D03*
%TO.N,/PWR12*%
X88200000Y-58700000D03*
X53450000Y-59845000D03*
%TD*%
D15*
%TO.N,GND*%
X52500000Y-56499999D02*
X50400000Y-56499999D01*
X67500000Y-56500000D02*
X67500000Y-56500000D01*
X80400000Y-56500000D02*
X82500000Y-56500000D01*
X129600000Y-56500000D02*
X127500000Y-56500000D01*
X114600000Y-56500000D02*
X112500000Y-56500000D01*
X99600000Y-56500000D02*
X97500000Y-56500000D01*
X65500000Y-56500000D02*
X65400000Y-56500000D01*
X67500000Y-56500000D02*
X65500000Y-56500000D01*
D16*
%TO.N,+12V*%
X131700000Y-53500000D02*
X133200000Y-52000000D01*
X131700000Y-57374002D02*
X131700000Y-53500000D01*
X133200000Y-52000000D02*
X135000000Y-52000000D01*
X129850000Y-58100000D02*
X130974002Y-58100000D01*
X130974002Y-58100000D02*
X131700000Y-57374002D01*
X131700000Y-54900000D02*
X131700000Y-54200000D01*
X129850000Y-54900000D02*
X131700000Y-54900000D01*
X48700001Y-54899999D02*
X50150000Y-54899999D01*
X48300000Y-55300000D02*
X48700001Y-54899999D01*
X48300000Y-57700000D02*
X48300000Y-55300000D01*
X50150000Y-58099999D02*
X48699999Y-58099999D01*
X48699999Y-58099999D02*
X48300000Y-57700000D01*
X46800000Y-52000000D02*
X45000000Y-52000000D01*
X48700001Y-54899999D02*
X48700001Y-53900001D01*
X48700001Y-53900001D02*
X46800000Y-52000000D01*
%TO.N,Net-(D1-Pad3)*%
X55850001Y-54900000D02*
X65150000Y-54900000D01*
X54850000Y-54899999D02*
X55850001Y-54900000D01*
%TO.N,Net-(D1-Pad1)*%
X56850001Y-58100000D02*
X65150000Y-58100000D01*
X54850000Y-58099999D02*
X56850001Y-58100000D01*
%TO.N,Net-(D2-Pad3)*%
X69850000Y-54900000D02*
X80150000Y-54900000D01*
%TO.N,Net-(D2-Pad1)*%
X69850000Y-58100000D02*
X80150000Y-58100000D01*
D17*
%TO.N,Net-(D3-Pad3)*%
X84849992Y-53949992D02*
X84850000Y-53950000D01*
D18*
X84849992Y-54899992D02*
X84850000Y-54900000D01*
X84849992Y-53949992D02*
X84849992Y-54899992D01*
%TO.N,Net-(D3-Pad1)*%
X84850000Y-58100000D02*
X84850000Y-58950000D01*
X84850000Y-58950000D02*
X84900000Y-59000000D01*
D16*
%TO.N,Net-(D4-Pad3)*%
X125150000Y-58100000D02*
X114850000Y-58100000D01*
%TO.N,Net-(D4-Pad1)*%
X125150000Y-54900000D02*
X114850000Y-54900000D01*
%TO.N,Net-(D5-Pad3)*%
X110150000Y-58100000D02*
X99850000Y-58100000D01*
%TO.N,Net-(D5-Pad1)*%
X110150000Y-54900000D02*
X99850000Y-54900000D01*
D18*
%TO.N,Net-(D6-Pad3)*%
X95150000Y-58100000D02*
X95150000Y-58955015D01*
X95150000Y-58955015D02*
X95005010Y-59100005D01*
%TO.N,Net-(D6-Pad1)*%
X95150000Y-54900000D02*
X95150000Y-54550000D01*
X95150000Y-54550000D02*
X94600000Y-54000000D01*
%TD*%
D19*
%TO.N,GND*%
X135894044Y-50910231D02*
X135875000Y-50908355D01*
X134125000Y-50908355D01*
X133985189Y-50922125D01*
X133850752Y-50962906D01*
X133726853Y-51029131D01*
X133618255Y-51118255D01*
X133584017Y-51159975D01*
X133509885Y-51160000D01*
X133241253Y-51160000D01*
X133199999Y-51155937D01*
X133158745Y-51160000D01*
X133158736Y-51160000D01*
X133035331Y-51172154D01*
X132876991Y-51220187D01*
X132731063Y-51298186D01*
X132603157Y-51403157D01*
X132576853Y-51435208D01*
X131135208Y-52876854D01*
X131103158Y-52903157D01*
X131076855Y-52935207D01*
X131076853Y-52935209D01*
X130998186Y-53031064D01*
X130950549Y-53120188D01*
X130920188Y-53176991D01*
X130872155Y-53335331D01*
X130862726Y-53431064D01*
X130855937Y-53500000D01*
X130860001Y-53541263D01*
X130860001Y-54060000D01*
X130716702Y-54060000D01*
X130700000Y-54058355D01*
X129000000Y-54058355D01*
X128904085Y-54067802D01*
X128811856Y-54095779D01*
X128726857Y-54141212D01*
X128652354Y-54202354D01*
X128591212Y-54276857D01*
X128545779Y-54361856D01*
X128517802Y-54454085D01*
X128508355Y-54550000D01*
X128508355Y-55250000D01*
X128517802Y-55345915D01*
X128545779Y-55438144D01*
X128591212Y-55523143D01*
X128652354Y-55597646D01*
X128726857Y-55658788D01*
X128811856Y-55704221D01*
X128904085Y-55732198D01*
X129000000Y-55741645D01*
X130700000Y-55741645D01*
X130716702Y-55740000D01*
X130860000Y-55740000D01*
X130860000Y-57026063D01*
X130627709Y-57258355D01*
X129000000Y-57258355D01*
X128904085Y-57267802D01*
X128811856Y-57295779D01*
X128726857Y-57341212D01*
X128652354Y-57402354D01*
X128591212Y-57476857D01*
X128545779Y-57561856D01*
X128517802Y-57654085D01*
X128508355Y-57750000D01*
X128508355Y-58450000D01*
X128517802Y-58545915D01*
X128545779Y-58638144D01*
X128591212Y-58723143D01*
X128652354Y-58797646D01*
X128726857Y-58858788D01*
X128811856Y-58904221D01*
X128904085Y-58932198D01*
X129000000Y-58941645D01*
X130700000Y-58941645D01*
X130716702Y-58940000D01*
X130932749Y-58940000D01*
X130974002Y-58944063D01*
X131015255Y-58940000D01*
X131015266Y-58940000D01*
X131138671Y-58927846D01*
X131297011Y-58879813D01*
X131442939Y-58801814D01*
X131570845Y-58696843D01*
X131597153Y-58664787D01*
X132264793Y-57997148D01*
X132296843Y-57970845D01*
X132401814Y-57842939D01*
X132479813Y-57697011D01*
X132527846Y-57538671D01*
X132540000Y-57415266D01*
X132540000Y-57415257D01*
X132544063Y-57374003D01*
X132540000Y-57332749D01*
X132540000Y-56358172D01*
X132560000Y-56358172D01*
X132560000Y-56641828D01*
X132615338Y-56920033D01*
X132723888Y-57182096D01*
X132881479Y-57417947D01*
X133082053Y-57618521D01*
X133317904Y-57776112D01*
X133579967Y-57884662D01*
X133858172Y-57940000D01*
X134141828Y-57940000D01*
X134420033Y-57884662D01*
X134682096Y-57776112D01*
X134917947Y-57618521D01*
X135118521Y-57417947D01*
X135276112Y-57182096D01*
X135384662Y-56920033D01*
X135440000Y-56641828D01*
X135440000Y-56358172D01*
X135384662Y-56079967D01*
X135276112Y-55817904D01*
X135118521Y-55582053D01*
X134917947Y-55381479D01*
X134682096Y-55223888D01*
X134420033Y-55115338D01*
X134141828Y-55060000D01*
X133858172Y-55060000D01*
X133579967Y-55115338D01*
X133317904Y-55223888D01*
X133082053Y-55381479D01*
X132881479Y-55582053D01*
X132723888Y-55817904D01*
X132615338Y-56079967D01*
X132560000Y-56358172D01*
X132540000Y-56358172D01*
X132540000Y-54941262D01*
X132544064Y-54900000D01*
X132540000Y-54858736D01*
X132540000Y-53847938D01*
X133547926Y-52840013D01*
X133584016Y-52840025D01*
X133618255Y-52881745D01*
X133726853Y-52970869D01*
X133850752Y-53037094D01*
X133985189Y-53077875D01*
X134125000Y-53091645D01*
X135875000Y-53091645D01*
X136014811Y-53077875D01*
X136149248Y-53037094D01*
X136160000Y-53031347D01*
X136160000Y-53194933D01*
X136100752Y-53212906D01*
X135976853Y-53279131D01*
X135868255Y-53368255D01*
X135779131Y-53476853D01*
X135712906Y-53600752D01*
X135672125Y-53735189D01*
X135658355Y-53875000D01*
X135658355Y-54625000D01*
X135672125Y-54764811D01*
X135712906Y-54899248D01*
X135779131Y-55023147D01*
X135868255Y-55131745D01*
X135976853Y-55220869D01*
X136100752Y-55287094D01*
X136160000Y-55305067D01*
X136160000Y-57694933D01*
X136100752Y-57712906D01*
X135976853Y-57779131D01*
X135868255Y-57868255D01*
X135779131Y-57976853D01*
X135712906Y-58100752D01*
X135672125Y-58235189D01*
X135658355Y-58375000D01*
X135658355Y-59125000D01*
X135672125Y-59264811D01*
X135712906Y-59399248D01*
X135779131Y-59523147D01*
X135868255Y-59631745D01*
X135976853Y-59720869D01*
X136100752Y-59787094D01*
X136160000Y-59805067D01*
X136160000Y-61823813D01*
X135848813Y-62135000D01*
X44151188Y-62135000D01*
X43840000Y-61823812D01*
X43840000Y-60752031D01*
X85510000Y-60752031D01*
X85510000Y-60887949D01*
X85536516Y-61021256D01*
X85588530Y-61146828D01*
X85664042Y-61259840D01*
X85760150Y-61355948D01*
X85873162Y-61431460D01*
X85998734Y-61483474D01*
X86132041Y-61509990D01*
X86267959Y-61509990D01*
X86401266Y-61483474D01*
X86526838Y-61431460D01*
X86639850Y-61355948D01*
X86735958Y-61259840D01*
X86811470Y-61146828D01*
X86863484Y-61021256D01*
X86890000Y-60887949D01*
X86890000Y-60752031D01*
X86863484Y-60618724D01*
X86811470Y-60493152D01*
X86735958Y-60380140D01*
X86724736Y-60368918D01*
X92970050Y-60368918D01*
X92970050Y-60504836D01*
X92996566Y-60638143D01*
X93048580Y-60763715D01*
X93124092Y-60876727D01*
X93220200Y-60972835D01*
X93333212Y-61048347D01*
X93458784Y-61100361D01*
X93592091Y-61126877D01*
X93728009Y-61126877D01*
X93861316Y-61100361D01*
X93986888Y-61048347D01*
X94099900Y-60972835D01*
X94196008Y-60876727D01*
X94271520Y-60763715D01*
X94323534Y-60638143D01*
X94350050Y-60504836D01*
X94350050Y-60368918D01*
X94323534Y-60235611D01*
X94322056Y-60232041D01*
X106710000Y-60232041D01*
X106710000Y-60367959D01*
X106736516Y-60501266D01*
X106788530Y-60626838D01*
X106864042Y-60739850D01*
X106960150Y-60835958D01*
X107073162Y-60911470D01*
X107198734Y-60963484D01*
X107332041Y-60990000D01*
X107467959Y-60990000D01*
X107565255Y-60970647D01*
X107588530Y-61026838D01*
X107664042Y-61139850D01*
X107760150Y-61235958D01*
X107873162Y-61311470D01*
X107998734Y-61363484D01*
X108132041Y-61390000D01*
X108267959Y-61390000D01*
X108401266Y-61363484D01*
X108526838Y-61311470D01*
X108639850Y-61235958D01*
X108735958Y-61139850D01*
X108811470Y-61026838D01*
X108863484Y-60901266D01*
X108890000Y-60767959D01*
X108890000Y-60632041D01*
X108863484Y-60498734D01*
X108811470Y-60373162D01*
X108735958Y-60260150D01*
X108639850Y-60164042D01*
X108526838Y-60088530D01*
X108401266Y-60036516D01*
X108267959Y-60010000D01*
X108132041Y-60010000D01*
X108034745Y-60029353D01*
X108011470Y-59973162D01*
X107947245Y-59877041D01*
X117810000Y-59877041D01*
X117810000Y-60012959D01*
X117836516Y-60146266D01*
X117888530Y-60271838D01*
X117964042Y-60384850D01*
X118060150Y-60480958D01*
X118173162Y-60556470D01*
X118298734Y-60608484D01*
X118432041Y-60635000D01*
X118567959Y-60635000D01*
X118701266Y-60608484D01*
X118826838Y-60556470D01*
X118939850Y-60480958D01*
X119035958Y-60384850D01*
X119111470Y-60271838D01*
X119163484Y-60146266D01*
X119190000Y-60012959D01*
X119190000Y-59877041D01*
X119810000Y-59877041D01*
X119810000Y-60012959D01*
X119836516Y-60146266D01*
X119888530Y-60271838D01*
X119964042Y-60384850D01*
X120060150Y-60480958D01*
X120173162Y-60556470D01*
X120298734Y-60608484D01*
X120432041Y-60635000D01*
X120567959Y-60635000D01*
X120701266Y-60608484D01*
X120826838Y-60556470D01*
X120939850Y-60480958D01*
X121035958Y-60384850D01*
X121111470Y-60271838D01*
X121163484Y-60146266D01*
X121190000Y-60012959D01*
X121190000Y-59877041D01*
X121163484Y-59743734D01*
X121111470Y-59618162D01*
X121035958Y-59505150D01*
X120939850Y-59409042D01*
X120826838Y-59333530D01*
X120701266Y-59281516D01*
X120567959Y-59255000D01*
X120432041Y-59255000D01*
X120298734Y-59281516D01*
X120173162Y-59333530D01*
X120060150Y-59409042D01*
X119964042Y-59505150D01*
X119888530Y-59618162D01*
X119836516Y-59743734D01*
X119810000Y-59877041D01*
X119190000Y-59877041D01*
X119163484Y-59743734D01*
X119111470Y-59618162D01*
X119035958Y-59505150D01*
X118939850Y-59409042D01*
X118826838Y-59333530D01*
X118701266Y-59281516D01*
X118567959Y-59255000D01*
X118432041Y-59255000D01*
X118298734Y-59281516D01*
X118173162Y-59333530D01*
X118060150Y-59409042D01*
X117964042Y-59505150D01*
X117888530Y-59618162D01*
X117836516Y-59743734D01*
X117810000Y-59877041D01*
X107947245Y-59877041D01*
X107935958Y-59860150D01*
X107839850Y-59764042D01*
X107726838Y-59688530D01*
X107601266Y-59636516D01*
X107467959Y-59610000D01*
X107332041Y-59610000D01*
X107198734Y-59636516D01*
X107073162Y-59688530D01*
X106960150Y-59764042D01*
X106864042Y-59860150D01*
X106788530Y-59973162D01*
X106736516Y-60098734D01*
X106710000Y-60232041D01*
X94322056Y-60232041D01*
X94271520Y-60110039D01*
X94196008Y-59997027D01*
X94099900Y-59900919D01*
X93986888Y-59825407D01*
X93861316Y-59773393D01*
X93728009Y-59746877D01*
X93592091Y-59746877D01*
X93458784Y-59773393D01*
X93333212Y-59825407D01*
X93220200Y-59900919D01*
X93124092Y-59997027D01*
X93048580Y-60110039D01*
X92996566Y-60235611D01*
X92970050Y-60368918D01*
X86724736Y-60368918D01*
X86639850Y-60284032D01*
X86526838Y-60208520D01*
X86401266Y-60156506D01*
X86267959Y-60129990D01*
X86132041Y-60129990D01*
X85998734Y-60156506D01*
X85873162Y-60208520D01*
X85760150Y-60284032D01*
X85664042Y-60380140D01*
X85588530Y-60493152D01*
X85536516Y-60618724D01*
X85510000Y-60752031D01*
X43840000Y-60752031D01*
X43840000Y-59805067D01*
X43899248Y-59787094D01*
X43918055Y-59777041D01*
X52760000Y-59777041D01*
X52760000Y-59912959D01*
X52786516Y-60046266D01*
X52838530Y-60171838D01*
X52914042Y-60284850D01*
X53010150Y-60380958D01*
X53123162Y-60456470D01*
X53248734Y-60508484D01*
X53382041Y-60535000D01*
X53517959Y-60535000D01*
X53651266Y-60508484D01*
X53776838Y-60456470D01*
X53889850Y-60380958D01*
X53985958Y-60284850D01*
X54061470Y-60171838D01*
X54113484Y-60046266D01*
X54140000Y-59912959D01*
X54140000Y-59777041D01*
X65010000Y-59777041D01*
X65010000Y-59912959D01*
X65036516Y-60046266D01*
X65088530Y-60171838D01*
X65164042Y-60284850D01*
X65260150Y-60380958D01*
X65373162Y-60456470D01*
X65498734Y-60508484D01*
X65632041Y-60535000D01*
X65767959Y-60535000D01*
X65901266Y-60508484D01*
X66026838Y-60456470D01*
X66139850Y-60380958D01*
X66235958Y-60284850D01*
X66311470Y-60171838D01*
X66363484Y-60046266D01*
X66390000Y-59912959D01*
X66390000Y-59777041D01*
X66363484Y-59643734D01*
X66311470Y-59518162D01*
X66235958Y-59405150D01*
X66139850Y-59309042D01*
X66026838Y-59233530D01*
X65901266Y-59181516D01*
X65767959Y-59155000D01*
X65632041Y-59155000D01*
X65498734Y-59181516D01*
X65373162Y-59233530D01*
X65260150Y-59309042D01*
X65164042Y-59405150D01*
X65088530Y-59518162D01*
X65036516Y-59643734D01*
X65010000Y-59777041D01*
X54140000Y-59777041D01*
X54113484Y-59643734D01*
X54061470Y-59518162D01*
X53985958Y-59405150D01*
X53889850Y-59309042D01*
X53776838Y-59233530D01*
X53651266Y-59181516D01*
X53517959Y-59155000D01*
X53382041Y-59155000D01*
X53248734Y-59181516D01*
X53123162Y-59233530D01*
X53010150Y-59309042D01*
X52914042Y-59405150D01*
X52838530Y-59518162D01*
X52786516Y-59643734D01*
X52760000Y-59777041D01*
X43918055Y-59777041D01*
X44023147Y-59720869D01*
X44131745Y-59631745D01*
X44220869Y-59523147D01*
X44287094Y-59399248D01*
X44327875Y-59264811D01*
X44341645Y-59125000D01*
X44341645Y-58375000D01*
X44327875Y-58235189D01*
X44287094Y-58100752D01*
X44220869Y-57976853D01*
X44131745Y-57868255D01*
X44023147Y-57779131D01*
X43899248Y-57712906D01*
X43840000Y-57694933D01*
X43840000Y-56358172D01*
X44560000Y-56358172D01*
X44560000Y-56641828D01*
X44615338Y-56920033D01*
X44723888Y-57182096D01*
X44881479Y-57417947D01*
X45082053Y-57618521D01*
X45317904Y-57776112D01*
X45579967Y-57884662D01*
X45858172Y-57940000D01*
X46141828Y-57940000D01*
X46420033Y-57884662D01*
X46682096Y-57776112D01*
X46917947Y-57618521D01*
X47118521Y-57417947D01*
X47276112Y-57182096D01*
X47384662Y-56920033D01*
X47440000Y-56641828D01*
X47440000Y-56358172D01*
X47384662Y-56079967D01*
X47276112Y-55817904D01*
X47118521Y-55582053D01*
X46917947Y-55381479D01*
X46682096Y-55223888D01*
X46420033Y-55115338D01*
X46141828Y-55060000D01*
X45858172Y-55060000D01*
X45579967Y-55115338D01*
X45317904Y-55223888D01*
X45082053Y-55381479D01*
X44881479Y-55582053D01*
X44723888Y-55817904D01*
X44615338Y-56079967D01*
X44560000Y-56358172D01*
X43840000Y-56358172D01*
X43840000Y-55305067D01*
X43899248Y-55287094D01*
X44023147Y-55220869D01*
X44131745Y-55131745D01*
X44220869Y-55023147D01*
X44287094Y-54899248D01*
X44327875Y-54764811D01*
X44341645Y-54625000D01*
X44341645Y-53875000D01*
X44327875Y-53735189D01*
X44287094Y-53600752D01*
X44220869Y-53476853D01*
X44131745Y-53368255D01*
X44023147Y-53279131D01*
X43899248Y-53212906D01*
X43840000Y-53194933D01*
X43840000Y-53031347D01*
X43850752Y-53037094D01*
X43985189Y-53077875D01*
X44125000Y-53091645D01*
X45875000Y-53091645D01*
X46014811Y-53077875D01*
X46149248Y-53037094D01*
X46273147Y-52970869D01*
X46381745Y-52881745D01*
X46415984Y-52840025D01*
X46452075Y-52840013D01*
X47860002Y-54247940D01*
X47860001Y-54552061D01*
X47735208Y-54676854D01*
X47703158Y-54703157D01*
X47676855Y-54735207D01*
X47676853Y-54735209D01*
X47598186Y-54831064D01*
X47541913Y-54936346D01*
X47520188Y-54976991D01*
X47472155Y-55135331D01*
X47460861Y-55250000D01*
X47455937Y-55300000D01*
X47460001Y-55341263D01*
X47460000Y-57658746D01*
X47455937Y-57700000D01*
X47460000Y-57741253D01*
X47460000Y-57741263D01*
X47472154Y-57864668D01*
X47520187Y-58023008D01*
X47598186Y-58168936D01*
X47703157Y-58296843D01*
X47735213Y-58323151D01*
X48076848Y-58664786D01*
X48103156Y-58696842D01*
X48231062Y-58801813D01*
X48376990Y-58879812D01*
X48535330Y-58927845D01*
X48658735Y-58939999D01*
X48658745Y-58939999D01*
X48699998Y-58944062D01*
X48741252Y-58939999D01*
X49283298Y-58939999D01*
X49300000Y-58941644D01*
X51000000Y-58941644D01*
X51095915Y-58932197D01*
X51188144Y-58904220D01*
X51273143Y-58858787D01*
X51347646Y-58797645D01*
X51408788Y-58723142D01*
X51454221Y-58638143D01*
X51482198Y-58545914D01*
X51491645Y-58449999D01*
X51491645Y-57749999D01*
X51482198Y-57654084D01*
X51465792Y-57599999D01*
X53508355Y-57599999D01*
X53508355Y-58599999D01*
X53514920Y-58666651D01*
X53534361Y-58730741D01*
X53565933Y-58789807D01*
X53608421Y-58841578D01*
X53660192Y-58884066D01*
X53719258Y-58915638D01*
X53783348Y-58935079D01*
X53850000Y-58941644D01*
X55850000Y-58941644D01*
X55866701Y-58939999D01*
X56808736Y-58940000D01*
X64283298Y-58940000D01*
X64300000Y-58941645D01*
X66000000Y-58941645D01*
X66095915Y-58932198D01*
X66188144Y-58904221D01*
X66273143Y-58858788D01*
X66347646Y-58797646D01*
X66408788Y-58723143D01*
X66454221Y-58638144D01*
X66482198Y-58545915D01*
X66491645Y-58450000D01*
X66491645Y-57750000D01*
X66482198Y-57654085D01*
X66465792Y-57600000D01*
X68508355Y-57600000D01*
X68508355Y-58600000D01*
X68514920Y-58666652D01*
X68534361Y-58730742D01*
X68565933Y-58789808D01*
X68608421Y-58841579D01*
X68660192Y-58884067D01*
X68719258Y-58915639D01*
X68783348Y-58935080D01*
X68850000Y-58941645D01*
X70850000Y-58941645D01*
X70866701Y-58940000D01*
X71090323Y-58940000D01*
X70973162Y-58988530D01*
X70860150Y-59064042D01*
X70764042Y-59160150D01*
X70688530Y-59273162D01*
X70636516Y-59398734D01*
X70610000Y-59532041D01*
X70610000Y-59667959D01*
X70636516Y-59801266D01*
X70688530Y-59926838D01*
X70764042Y-60039850D01*
X70860150Y-60135958D01*
X70973162Y-60211470D01*
X71098734Y-60263484D01*
X71232041Y-60290000D01*
X71367959Y-60290000D01*
X71501266Y-60263484D01*
X71626838Y-60211470D01*
X71739850Y-60135958D01*
X71835958Y-60039850D01*
X71911470Y-59926838D01*
X71963484Y-59801266D01*
X71990000Y-59667959D01*
X71990000Y-59532041D01*
X71963484Y-59398734D01*
X71911470Y-59273162D01*
X71835958Y-59160150D01*
X71739850Y-59064042D01*
X71626838Y-58988530D01*
X71509677Y-58940000D01*
X79283298Y-58940000D01*
X79300000Y-58941645D01*
X81000000Y-58941645D01*
X81095915Y-58932198D01*
X81188144Y-58904221D01*
X81273143Y-58858788D01*
X81347646Y-58797646D01*
X81408788Y-58723143D01*
X81454221Y-58638144D01*
X81482198Y-58545915D01*
X81491645Y-58450000D01*
X81491645Y-57750000D01*
X81482198Y-57654085D01*
X81465792Y-57600000D01*
X83508355Y-57600000D01*
X83508355Y-58600000D01*
X83514920Y-58666652D01*
X83534361Y-58730742D01*
X83565933Y-58789808D01*
X83608421Y-58841579D01*
X83660192Y-58884067D01*
X83719258Y-58915639D01*
X83783348Y-58935080D01*
X83850000Y-58941645D01*
X84107244Y-58941645D01*
X84106421Y-58950000D01*
X84110000Y-58986340D01*
X84110000Y-58986347D01*
X84114016Y-59027121D01*
X84120708Y-59095065D01*
X84163022Y-59234555D01*
X84183658Y-59273162D01*
X84231737Y-59363111D01*
X84260972Y-59398734D01*
X84301040Y-59447557D01*
X84301043Y-59447560D01*
X84324211Y-59475790D01*
X84352430Y-59498949D01*
X84428277Y-59574796D01*
X84458672Y-59595105D01*
X84486890Y-59618263D01*
X84519083Y-59635471D01*
X84549478Y-59655780D01*
X84583247Y-59669768D01*
X84615445Y-59686978D01*
X84650383Y-59697576D01*
X84684150Y-59711563D01*
X84719995Y-59718693D01*
X84754936Y-59729292D01*
X84791275Y-59732871D01*
X84827116Y-59740000D01*
X84863660Y-59740000D01*
X84900000Y-59743579D01*
X84936340Y-59740000D01*
X84972884Y-59740000D01*
X85008724Y-59732871D01*
X85045065Y-59729292D01*
X85080007Y-59718692D01*
X85115850Y-59711563D01*
X85149616Y-59697577D01*
X85184555Y-59686978D01*
X85216754Y-59669767D01*
X85250522Y-59655780D01*
X85280914Y-59635473D01*
X85313111Y-59618263D01*
X85341332Y-59595102D01*
X85371723Y-59574796D01*
X85397567Y-59548952D01*
X85425790Y-59525790D01*
X85448952Y-59497567D01*
X85474796Y-59471723D01*
X85495102Y-59441332D01*
X85518263Y-59413111D01*
X85535473Y-59380914D01*
X85555780Y-59350522D01*
X85569767Y-59316754D01*
X85586978Y-59284555D01*
X85597577Y-59249616D01*
X85611563Y-59215850D01*
X85618692Y-59180007D01*
X85629292Y-59145065D01*
X85632871Y-59108724D01*
X85640000Y-59072884D01*
X85640000Y-59036340D01*
X85643579Y-59000000D01*
X85640000Y-58963660D01*
X85640000Y-58941645D01*
X85850000Y-58941645D01*
X85916652Y-58935080D01*
X85980742Y-58915639D01*
X86039808Y-58884067D01*
X86091579Y-58841579D01*
X86134067Y-58789808D01*
X86165639Y-58730742D01*
X86185080Y-58666652D01*
X86188489Y-58632041D01*
X87510000Y-58632041D01*
X87510000Y-58767959D01*
X87536516Y-58901266D01*
X87588530Y-59026838D01*
X87664042Y-59139850D01*
X87760150Y-59235958D01*
X87873162Y-59311470D01*
X87998734Y-59363484D01*
X88132041Y-59390000D01*
X88267959Y-59390000D01*
X88401266Y-59363484D01*
X88526838Y-59311470D01*
X88639850Y-59235958D01*
X88735958Y-59139850D01*
X88776901Y-59078573D01*
X92432190Y-59078573D01*
X92432190Y-59214491D01*
X92458706Y-59347798D01*
X92510720Y-59473370D01*
X92586232Y-59586382D01*
X92682340Y-59682490D01*
X92795352Y-59758002D01*
X92920924Y-59810016D01*
X93054231Y-59836532D01*
X93190149Y-59836532D01*
X93323456Y-59810016D01*
X93449028Y-59758002D01*
X93562040Y-59682490D01*
X93658148Y-59586382D01*
X93733660Y-59473370D01*
X93785674Y-59347798D01*
X93812190Y-59214491D01*
X93812190Y-59078573D01*
X93785674Y-58945266D01*
X93733660Y-58819694D01*
X93658148Y-58706682D01*
X93562040Y-58610574D01*
X93449028Y-58535062D01*
X93323456Y-58483048D01*
X93190149Y-58456532D01*
X93054231Y-58456532D01*
X92920924Y-58483048D01*
X92795352Y-58535062D01*
X92682340Y-58610574D01*
X92586232Y-58706682D01*
X92510720Y-58819694D01*
X92458706Y-58945266D01*
X92432190Y-59078573D01*
X88776901Y-59078573D01*
X88811470Y-59026838D01*
X88863484Y-58901266D01*
X88890000Y-58767959D01*
X88890000Y-58632041D01*
X88863484Y-58498734D01*
X88811470Y-58373162D01*
X88735958Y-58260150D01*
X88639850Y-58164042D01*
X88526838Y-58088530D01*
X88401266Y-58036516D01*
X88267959Y-58010000D01*
X88132041Y-58010000D01*
X87998734Y-58036516D01*
X87873162Y-58088530D01*
X87760150Y-58164042D01*
X87664042Y-58260150D01*
X87588530Y-58373162D01*
X87536516Y-58498734D01*
X87510000Y-58632041D01*
X86188489Y-58632041D01*
X86191645Y-58600000D01*
X86191645Y-57600000D01*
X86185080Y-57533348D01*
X86165639Y-57469258D01*
X86134067Y-57410192D01*
X86091579Y-57358421D01*
X86039808Y-57315933D01*
X85980742Y-57284361D01*
X85916652Y-57264920D01*
X85850000Y-57258355D01*
X83850000Y-57258355D01*
X83783348Y-57264920D01*
X83719258Y-57284361D01*
X83660192Y-57315933D01*
X83608421Y-57358421D01*
X83565933Y-57410192D01*
X83534361Y-57469258D01*
X83514920Y-57533348D01*
X83508355Y-57600000D01*
X81465792Y-57600000D01*
X81454221Y-57561856D01*
X81408788Y-57476857D01*
X81347646Y-57402354D01*
X81273143Y-57341212D01*
X81188144Y-57295779D01*
X81095915Y-57267802D01*
X81000000Y-57258355D01*
X79300000Y-57258355D01*
X79283298Y-57260000D01*
X70866701Y-57260000D01*
X70850000Y-57258355D01*
X68850000Y-57258355D01*
X68783348Y-57264920D01*
X68719258Y-57284361D01*
X68660192Y-57315933D01*
X68608421Y-57358421D01*
X68565933Y-57410192D01*
X68534361Y-57469258D01*
X68514920Y-57533348D01*
X68508355Y-57600000D01*
X66465792Y-57600000D01*
X66454221Y-57561856D01*
X66408788Y-57476857D01*
X66347646Y-57402354D01*
X66273143Y-57341212D01*
X66188144Y-57295779D01*
X66095915Y-57267802D01*
X66000000Y-57258355D01*
X64300000Y-57258355D01*
X64283298Y-57260000D01*
X56808737Y-57260000D01*
X56808728Y-57260001D01*
X55866711Y-57260000D01*
X55850000Y-57258354D01*
X53850000Y-57258354D01*
X53783348Y-57264919D01*
X53719258Y-57284360D01*
X53660192Y-57315932D01*
X53608421Y-57358420D01*
X53565933Y-57410191D01*
X53534361Y-57469257D01*
X53514920Y-57533347D01*
X53508355Y-57599999D01*
X51465792Y-57599999D01*
X51454221Y-57561855D01*
X51408788Y-57476856D01*
X51347646Y-57402353D01*
X51273143Y-57341211D01*
X51188144Y-57295778D01*
X51095915Y-57267801D01*
X51000000Y-57258354D01*
X49300000Y-57258354D01*
X49283298Y-57259999D01*
X49140000Y-57259999D01*
X49140000Y-56915936D01*
X91698497Y-56915936D01*
X91698497Y-57051854D01*
X91725013Y-57185161D01*
X91777027Y-57310733D01*
X91852539Y-57423745D01*
X91948647Y-57519853D01*
X92061659Y-57595365D01*
X92187231Y-57647379D01*
X92217613Y-57653422D01*
X92211298Y-57685170D01*
X92211298Y-57821088D01*
X92237814Y-57954395D01*
X92289828Y-58079967D01*
X92365340Y-58192979D01*
X92461448Y-58289087D01*
X92574460Y-58364599D01*
X92700032Y-58416613D01*
X92833339Y-58443129D01*
X92969257Y-58443129D01*
X93102564Y-58416613D01*
X93228136Y-58364599D01*
X93341148Y-58289087D01*
X93437256Y-58192979D01*
X93512768Y-58079967D01*
X93564782Y-57954395D01*
X93591298Y-57821088D01*
X93591298Y-57750000D01*
X93808355Y-57750000D01*
X93808355Y-58450000D01*
X93817802Y-58545915D01*
X93845779Y-58638144D01*
X93891212Y-58723143D01*
X93952354Y-58797646D01*
X94026857Y-58858788D01*
X94111856Y-58904221D01*
X94204085Y-58932198D01*
X94280338Y-58939708D01*
X94275718Y-58954940D01*
X94272139Y-58991281D01*
X94265010Y-59027121D01*
X94265010Y-59063665D01*
X94261431Y-59100005D01*
X94265010Y-59136345D01*
X94265010Y-59172889D01*
X94272139Y-59208729D01*
X94275718Y-59245070D01*
X94286318Y-59280012D01*
X94293447Y-59315855D01*
X94307433Y-59349621D01*
X94318032Y-59384560D01*
X94335242Y-59416758D01*
X94349230Y-59450527D01*
X94369539Y-59480922D01*
X94386747Y-59513115D01*
X94409905Y-59541333D01*
X94430214Y-59571728D01*
X94456059Y-59597573D01*
X94479220Y-59625795D01*
X94507442Y-59648956D01*
X94533287Y-59674801D01*
X94563682Y-59695110D01*
X94591900Y-59718268D01*
X94624093Y-59735476D01*
X94654488Y-59755785D01*
X94688257Y-59769773D01*
X94720455Y-59786983D01*
X94755394Y-59797582D01*
X94789160Y-59811568D01*
X94825003Y-59818697D01*
X94859945Y-59829297D01*
X94896286Y-59832876D01*
X94932126Y-59840005D01*
X94968670Y-59840005D01*
X95005010Y-59843584D01*
X95041350Y-59840005D01*
X95077894Y-59840005D01*
X95113734Y-59832876D01*
X95150075Y-59829297D01*
X95185017Y-59818697D01*
X95220860Y-59811568D01*
X95254626Y-59797582D01*
X95289565Y-59786983D01*
X95321763Y-59769773D01*
X95355532Y-59755785D01*
X95385927Y-59735476D01*
X95418120Y-59718268D01*
X95446338Y-59695110D01*
X95476733Y-59674801D01*
X95579806Y-59571728D01*
X95579810Y-59571722D01*
X95647555Y-59503977D01*
X95675790Y-59480805D01*
X95768264Y-59368126D01*
X95836978Y-59239571D01*
X95879292Y-59100080D01*
X95890000Y-58991362D01*
X95890000Y-58991355D01*
X95893579Y-58955015D01*
X95892262Y-58941645D01*
X96000000Y-58941645D01*
X96095915Y-58932198D01*
X96188144Y-58904221D01*
X96273143Y-58858788D01*
X96347646Y-58797646D01*
X96408788Y-58723143D01*
X96454221Y-58638144D01*
X96482198Y-58545915D01*
X96491645Y-58450000D01*
X96491645Y-57750000D01*
X98508355Y-57750000D01*
X98508355Y-58450000D01*
X98517802Y-58545915D01*
X98545779Y-58638144D01*
X98591212Y-58723143D01*
X98652354Y-58797646D01*
X98726857Y-58858788D01*
X98811856Y-58904221D01*
X98904085Y-58932198D01*
X99000000Y-58941645D01*
X100700000Y-58941645D01*
X100716702Y-58940000D01*
X109283298Y-58940000D01*
X109300000Y-58941645D01*
X111000000Y-58941645D01*
X111095915Y-58932198D01*
X111188144Y-58904221D01*
X111273143Y-58858788D01*
X111347646Y-58797646D01*
X111408788Y-58723143D01*
X111454221Y-58638144D01*
X111482198Y-58545915D01*
X111491645Y-58450000D01*
X111491645Y-57750000D01*
X113508355Y-57750000D01*
X113508355Y-58450000D01*
X113517802Y-58545915D01*
X113545779Y-58638144D01*
X113591212Y-58723143D01*
X113652354Y-58797646D01*
X113726857Y-58858788D01*
X113811856Y-58904221D01*
X113904085Y-58932198D01*
X114000000Y-58941645D01*
X115700000Y-58941645D01*
X115716702Y-58940000D01*
X124283298Y-58940000D01*
X124300000Y-58941645D01*
X126000000Y-58941645D01*
X126095915Y-58932198D01*
X126188144Y-58904221D01*
X126273143Y-58858788D01*
X126347646Y-58797646D01*
X126408788Y-58723143D01*
X126454221Y-58638144D01*
X126482198Y-58545915D01*
X126491645Y-58450000D01*
X126491645Y-57750000D01*
X126482198Y-57654085D01*
X126454221Y-57561856D01*
X126408788Y-57476857D01*
X126347646Y-57402354D01*
X126273143Y-57341212D01*
X126188144Y-57295779D01*
X126095915Y-57267802D01*
X126000000Y-57258355D01*
X124300000Y-57258355D01*
X124283298Y-57260000D01*
X115716702Y-57260000D01*
X115700000Y-57258355D01*
X114000000Y-57258355D01*
X113904085Y-57267802D01*
X113811856Y-57295779D01*
X113726857Y-57341212D01*
X113652354Y-57402354D01*
X113591212Y-57476857D01*
X113545779Y-57561856D01*
X113517802Y-57654085D01*
X113508355Y-57750000D01*
X111491645Y-57750000D01*
X111482198Y-57654085D01*
X111454221Y-57561856D01*
X111408788Y-57476857D01*
X111347646Y-57402354D01*
X111273143Y-57341212D01*
X111188144Y-57295779D01*
X111095915Y-57267802D01*
X111000000Y-57258355D01*
X109300000Y-57258355D01*
X109283298Y-57260000D01*
X100716702Y-57260000D01*
X100700000Y-57258355D01*
X99000000Y-57258355D01*
X98904085Y-57267802D01*
X98811856Y-57295779D01*
X98726857Y-57341212D01*
X98652354Y-57402354D01*
X98591212Y-57476857D01*
X98545779Y-57561856D01*
X98517802Y-57654085D01*
X98508355Y-57750000D01*
X96491645Y-57750000D01*
X96482198Y-57654085D01*
X96454221Y-57561856D01*
X96408788Y-57476857D01*
X96347646Y-57402354D01*
X96273143Y-57341212D01*
X96188144Y-57295779D01*
X96095915Y-57267802D01*
X96000000Y-57258355D01*
X94300000Y-57258355D01*
X94204085Y-57267802D01*
X94111856Y-57295779D01*
X94026857Y-57341212D01*
X93952354Y-57402354D01*
X93891212Y-57476857D01*
X93845779Y-57561856D01*
X93817802Y-57654085D01*
X93808355Y-57750000D01*
X93591298Y-57750000D01*
X93591298Y-57685170D01*
X93564782Y-57551863D01*
X93512768Y-57426291D01*
X93437256Y-57313279D01*
X93341148Y-57217171D01*
X93228136Y-57141659D01*
X93102564Y-57089645D01*
X93072182Y-57083602D01*
X93078497Y-57051854D01*
X93078497Y-56915936D01*
X93051981Y-56782629D01*
X92999967Y-56657057D01*
X92924455Y-56544045D01*
X92828347Y-56447937D01*
X92715335Y-56372425D01*
X92589763Y-56320411D01*
X92456456Y-56293895D01*
X92320538Y-56293895D01*
X92187231Y-56320411D01*
X92061659Y-56372425D01*
X91948647Y-56447937D01*
X91852539Y-56544045D01*
X91777027Y-56657057D01*
X91725013Y-56782629D01*
X91698497Y-56915936D01*
X49140000Y-56915936D01*
X49140000Y-55739999D01*
X49283298Y-55739999D01*
X49300000Y-55741644D01*
X51000000Y-55741644D01*
X51095915Y-55732197D01*
X51188144Y-55704220D01*
X51273143Y-55658787D01*
X51347646Y-55597645D01*
X51408788Y-55523142D01*
X51454221Y-55438143D01*
X51482198Y-55345914D01*
X51491645Y-55249999D01*
X51491645Y-54549999D01*
X53508355Y-54549999D01*
X53508355Y-55249999D01*
X53517802Y-55345914D01*
X53545779Y-55438143D01*
X53591212Y-55523142D01*
X53652354Y-55597645D01*
X53726857Y-55658787D01*
X53811856Y-55704220D01*
X53904085Y-55732197D01*
X54000000Y-55741644D01*
X55700000Y-55741644D01*
X55716695Y-55740000D01*
X64283298Y-55740000D01*
X64300000Y-55741645D01*
X66000000Y-55741645D01*
X66095915Y-55732198D01*
X66188144Y-55704221D01*
X66273143Y-55658788D01*
X66347646Y-55597646D01*
X66408788Y-55523143D01*
X66454221Y-55438144D01*
X66482198Y-55345915D01*
X66491645Y-55250000D01*
X66491645Y-54550000D01*
X68508355Y-54550000D01*
X68508355Y-55250000D01*
X68517802Y-55345915D01*
X68545779Y-55438144D01*
X68591212Y-55523143D01*
X68652354Y-55597646D01*
X68726857Y-55658788D01*
X68811856Y-55704221D01*
X68904085Y-55732198D01*
X69000000Y-55741645D01*
X70700000Y-55741645D01*
X70716702Y-55740000D01*
X79283298Y-55740000D01*
X79300000Y-55741645D01*
X81000000Y-55741645D01*
X81095915Y-55732198D01*
X81188144Y-55704221D01*
X81273143Y-55658788D01*
X81347646Y-55597646D01*
X81408788Y-55523143D01*
X81454221Y-55438144D01*
X81482198Y-55345915D01*
X81491645Y-55250000D01*
X81491645Y-54550000D01*
X83508355Y-54550000D01*
X83508355Y-55250000D01*
X83517802Y-55345915D01*
X83545779Y-55438144D01*
X83591212Y-55523143D01*
X83652354Y-55597646D01*
X83726857Y-55658788D01*
X83811856Y-55704221D01*
X83904085Y-55732198D01*
X84000000Y-55741645D01*
X85700000Y-55741645D01*
X85795915Y-55732198D01*
X85888144Y-55704221D01*
X85973143Y-55658788D01*
X86047646Y-55597646D01*
X86108788Y-55523143D01*
X86154221Y-55438144D01*
X86182198Y-55345915D01*
X86191645Y-55250000D01*
X86191645Y-55182041D01*
X92310000Y-55182041D01*
X92310000Y-55317959D01*
X92336516Y-55451266D01*
X92388530Y-55576838D01*
X92464042Y-55689850D01*
X92560150Y-55785958D01*
X92673162Y-55861470D01*
X92798734Y-55913484D01*
X92932041Y-55940000D01*
X93067959Y-55940000D01*
X93201266Y-55913484D01*
X93326838Y-55861470D01*
X93439850Y-55785958D01*
X93535958Y-55689850D01*
X93611470Y-55576838D01*
X93663484Y-55451266D01*
X93690000Y-55317959D01*
X93690000Y-55182041D01*
X93663484Y-55048734D01*
X93611470Y-54923162D01*
X93535958Y-54810150D01*
X93439850Y-54714042D01*
X93326838Y-54638530D01*
X93201266Y-54586516D01*
X93067959Y-54560000D01*
X92932041Y-54560000D01*
X92798734Y-54586516D01*
X92673162Y-54638530D01*
X92560150Y-54714042D01*
X92464042Y-54810150D01*
X92388530Y-54923162D01*
X92336516Y-55048734D01*
X92310000Y-55182041D01*
X86191645Y-55182041D01*
X86191645Y-54550000D01*
X86182198Y-54454085D01*
X86165792Y-54400000D01*
X93808355Y-54400000D01*
X93808355Y-55400000D01*
X93814920Y-55466652D01*
X93834361Y-55530742D01*
X93865933Y-55589808D01*
X93908421Y-55641579D01*
X93960192Y-55684067D01*
X94019258Y-55715639D01*
X94083348Y-55735080D01*
X94150000Y-55741645D01*
X96150000Y-55741645D01*
X96216652Y-55735080D01*
X96280742Y-55715639D01*
X96339808Y-55684067D01*
X96391579Y-55641579D01*
X96434067Y-55589808D01*
X96465639Y-55530742D01*
X96485080Y-55466652D01*
X96491645Y-55400000D01*
X96491645Y-54550000D01*
X98508355Y-54550000D01*
X98508355Y-55250000D01*
X98517802Y-55345915D01*
X98545779Y-55438144D01*
X98591212Y-55523143D01*
X98652354Y-55597646D01*
X98726857Y-55658788D01*
X98811856Y-55704221D01*
X98904085Y-55732198D01*
X99000000Y-55741645D01*
X100700000Y-55741645D01*
X100716702Y-55740000D01*
X109133299Y-55740000D01*
X109150000Y-55741645D01*
X111150000Y-55741645D01*
X111216652Y-55735080D01*
X111280742Y-55715639D01*
X111339808Y-55684067D01*
X111391579Y-55641579D01*
X111434067Y-55589808D01*
X111465639Y-55530742D01*
X111485080Y-55466652D01*
X111491645Y-55400000D01*
X111491645Y-54550000D01*
X113508355Y-54550000D01*
X113508355Y-55250000D01*
X113517802Y-55345915D01*
X113545779Y-55438144D01*
X113591212Y-55523143D01*
X113652354Y-55597646D01*
X113726857Y-55658788D01*
X113811856Y-55704221D01*
X113904085Y-55732198D01*
X114000000Y-55741645D01*
X115700000Y-55741645D01*
X115716702Y-55740000D01*
X124133299Y-55740000D01*
X124150000Y-55741645D01*
X126150000Y-55741645D01*
X126216652Y-55735080D01*
X126280742Y-55715639D01*
X126339808Y-55684067D01*
X126391579Y-55641579D01*
X126434067Y-55589808D01*
X126465639Y-55530742D01*
X126485080Y-55466652D01*
X126491645Y-55400000D01*
X126491645Y-54400000D01*
X126485080Y-54333348D01*
X126465639Y-54269258D01*
X126434067Y-54210192D01*
X126391579Y-54158421D01*
X126339808Y-54115933D01*
X126280742Y-54084361D01*
X126216652Y-54064920D01*
X126150000Y-54058355D01*
X124150000Y-54058355D01*
X124133299Y-54060000D01*
X115716702Y-54060000D01*
X115700000Y-54058355D01*
X114000000Y-54058355D01*
X113904085Y-54067802D01*
X113811856Y-54095779D01*
X113726857Y-54141212D01*
X113652354Y-54202354D01*
X113591212Y-54276857D01*
X113545779Y-54361856D01*
X113517802Y-54454085D01*
X113508355Y-54550000D01*
X111491645Y-54550000D01*
X111491645Y-54400000D01*
X111485080Y-54333348D01*
X111465639Y-54269258D01*
X111434067Y-54210192D01*
X111391579Y-54158421D01*
X111339808Y-54115933D01*
X111280742Y-54084361D01*
X111216652Y-54064920D01*
X111150000Y-54058355D01*
X109150000Y-54058355D01*
X109133299Y-54060000D01*
X100716702Y-54060000D01*
X100700000Y-54058355D01*
X99000000Y-54058355D01*
X98904085Y-54067802D01*
X98811856Y-54095779D01*
X98726857Y-54141212D01*
X98652354Y-54202354D01*
X98591212Y-54276857D01*
X98545779Y-54361856D01*
X98517802Y-54454085D01*
X98508355Y-54550000D01*
X96491645Y-54550000D01*
X96491645Y-54400000D01*
X96485080Y-54333348D01*
X96465639Y-54269258D01*
X96434067Y-54210192D01*
X96391579Y-54158421D01*
X96339808Y-54115933D01*
X96280742Y-54084361D01*
X96216652Y-54064920D01*
X96150000Y-54058355D01*
X95703813Y-54058355D01*
X95698959Y-54052441D01*
X95698958Y-54052440D01*
X95675790Y-54024210D01*
X95647560Y-54001042D01*
X95174800Y-53528283D01*
X95174796Y-53528277D01*
X95071723Y-53425204D01*
X95041328Y-53404895D01*
X95013110Y-53381737D01*
X94980917Y-53364529D01*
X94950522Y-53344220D01*
X94916753Y-53330232D01*
X94884555Y-53313022D01*
X94849616Y-53302423D01*
X94815850Y-53288437D01*
X94780007Y-53281308D01*
X94745065Y-53270708D01*
X94708724Y-53267129D01*
X94672884Y-53260000D01*
X94636340Y-53260000D01*
X94600000Y-53256421D01*
X94563660Y-53260000D01*
X94527116Y-53260000D01*
X94491276Y-53267129D01*
X94454935Y-53270708D01*
X94419993Y-53281308D01*
X94384150Y-53288437D01*
X94350384Y-53302423D01*
X94315445Y-53313022D01*
X94283247Y-53330232D01*
X94249478Y-53344220D01*
X94219083Y-53364529D01*
X94186890Y-53381737D01*
X94158672Y-53404895D01*
X94128277Y-53425204D01*
X94102432Y-53451049D01*
X94074210Y-53474210D01*
X94051049Y-53502432D01*
X94025204Y-53528277D01*
X94004895Y-53558672D01*
X93981737Y-53586890D01*
X93964529Y-53619083D01*
X93944220Y-53649478D01*
X93930232Y-53683247D01*
X93913022Y-53715445D01*
X93902423Y-53750384D01*
X93888437Y-53784150D01*
X93881308Y-53819993D01*
X93870708Y-53854935D01*
X93867129Y-53891276D01*
X93860000Y-53927116D01*
X93860000Y-53963660D01*
X93856421Y-54000000D01*
X93860000Y-54036340D01*
X93860000Y-54072884D01*
X93867129Y-54108724D01*
X93870708Y-54145065D01*
X93881308Y-54180007D01*
X93883141Y-54189224D01*
X93865933Y-54210192D01*
X93834361Y-54269258D01*
X93814920Y-54333348D01*
X93808355Y-54400000D01*
X86165792Y-54400000D01*
X86154221Y-54361856D01*
X86108788Y-54276857D01*
X86047646Y-54202354D01*
X85973143Y-54141212D01*
X85888144Y-54095779D01*
X85795915Y-54067802D01*
X85700000Y-54058355D01*
X85589992Y-54058355D01*
X85589992Y-53877108D01*
X85582864Y-53841270D01*
X85579284Y-53804927D01*
X85568684Y-53769984D01*
X85561555Y-53734142D01*
X85547570Y-53700378D01*
X85536970Y-53665436D01*
X85519757Y-53633233D01*
X85505772Y-53599470D01*
X85485469Y-53569085D01*
X85468256Y-53536881D01*
X85445091Y-53508655D01*
X85424788Y-53478269D01*
X85398945Y-53452426D01*
X85375782Y-53424202D01*
X85347559Y-53401040D01*
X85321715Y-53375196D01*
X85291325Y-53354890D01*
X85263102Y-53331728D01*
X85230903Y-53314517D01*
X85200514Y-53294212D01*
X85166747Y-53280225D01*
X85134547Y-53263014D01*
X85099609Y-53252416D01*
X85065842Y-53238429D01*
X85029997Y-53231299D01*
X84995056Y-53220700D01*
X84958715Y-53217121D01*
X84922876Y-53209992D01*
X84886339Y-53209992D01*
X84849992Y-53206412D01*
X84813645Y-53209992D01*
X84777108Y-53209992D01*
X84741270Y-53217120D01*
X84704927Y-53220700D01*
X84669984Y-53231300D01*
X84634142Y-53238429D01*
X84600378Y-53252414D01*
X84565436Y-53263014D01*
X84533233Y-53280227D01*
X84499470Y-53294212D01*
X84469085Y-53314515D01*
X84436881Y-53331728D01*
X84408655Y-53354893D01*
X84378269Y-53375196D01*
X84352426Y-53401039D01*
X84324202Y-53424202D01*
X84301040Y-53452425D01*
X84275196Y-53478269D01*
X84254890Y-53508659D01*
X84231728Y-53536882D01*
X84214517Y-53569081D01*
X84194212Y-53599470D01*
X84180225Y-53633237D01*
X84163014Y-53665437D01*
X84152416Y-53700375D01*
X84138429Y-53734142D01*
X84131299Y-53769987D01*
X84120700Y-53804928D01*
X84117121Y-53841269D01*
X84109992Y-53877108D01*
X84109992Y-54058355D01*
X84000000Y-54058355D01*
X83904085Y-54067802D01*
X83811856Y-54095779D01*
X83726857Y-54141212D01*
X83652354Y-54202354D01*
X83591212Y-54276857D01*
X83545779Y-54361856D01*
X83517802Y-54454085D01*
X83508355Y-54550000D01*
X81491645Y-54550000D01*
X81482198Y-54454085D01*
X81454221Y-54361856D01*
X81408788Y-54276857D01*
X81347646Y-54202354D01*
X81273143Y-54141212D01*
X81188144Y-54095779D01*
X81095915Y-54067802D01*
X81000000Y-54058355D01*
X79300000Y-54058355D01*
X79283298Y-54060000D01*
X70716702Y-54060000D01*
X70700000Y-54058355D01*
X69000000Y-54058355D01*
X68904085Y-54067802D01*
X68811856Y-54095779D01*
X68726857Y-54141212D01*
X68652354Y-54202354D01*
X68591212Y-54276857D01*
X68545779Y-54361856D01*
X68517802Y-54454085D01*
X68508355Y-54550000D01*
X66491645Y-54550000D01*
X66482198Y-54454085D01*
X66454221Y-54361856D01*
X66408788Y-54276857D01*
X66347646Y-54202354D01*
X66273143Y-54141212D01*
X66188144Y-54095779D01*
X66095915Y-54067802D01*
X66000000Y-54058355D01*
X64440148Y-54058355D01*
X64443084Y-54051266D01*
X64469600Y-53917959D01*
X64469600Y-53782041D01*
X64443084Y-53648734D01*
X64391070Y-53523162D01*
X64315558Y-53410150D01*
X64219450Y-53314042D01*
X64106438Y-53238530D01*
X63980866Y-53186516D01*
X63847559Y-53160000D01*
X63711641Y-53160000D01*
X63578334Y-53186516D01*
X63452762Y-53238530D01*
X63339750Y-53314042D01*
X63243642Y-53410150D01*
X63168130Y-53523162D01*
X63116116Y-53648734D01*
X63089600Y-53782041D01*
X63089600Y-53917959D01*
X63116116Y-54051266D01*
X63119734Y-54060000D01*
X55808737Y-54060000D01*
X55808728Y-54060001D01*
X55716719Y-54060001D01*
X55700000Y-54058354D01*
X54000000Y-54058354D01*
X53904085Y-54067801D01*
X53811856Y-54095778D01*
X53726857Y-54141211D01*
X53652354Y-54202353D01*
X53591212Y-54276856D01*
X53545779Y-54361855D01*
X53517802Y-54454084D01*
X53508355Y-54549999D01*
X51491645Y-54549999D01*
X51482198Y-54454084D01*
X51454221Y-54361855D01*
X51408788Y-54276856D01*
X51347646Y-54202353D01*
X51273143Y-54141211D01*
X51188144Y-54095778D01*
X51095915Y-54067801D01*
X51000000Y-54058354D01*
X49540001Y-54058354D01*
X49540001Y-53941254D01*
X49544064Y-53900000D01*
X49540001Y-53858746D01*
X49540001Y-53858737D01*
X49527847Y-53735332D01*
X49479814Y-53576992D01*
X49401815Y-53431064D01*
X49296844Y-53303158D01*
X49264793Y-53276854D01*
X47423151Y-51435213D01*
X47396843Y-51403157D01*
X47268937Y-51298186D01*
X47123009Y-51220187D01*
X46964669Y-51172154D01*
X46841264Y-51160000D01*
X46841253Y-51160000D01*
X46800000Y-51155937D01*
X46758747Y-51160000D01*
X46490115Y-51160000D01*
X46415983Y-51159975D01*
X46381745Y-51118255D01*
X46273147Y-51029131D01*
X46149248Y-50962906D01*
X46014811Y-50922125D01*
X45875000Y-50908355D01*
X44125000Y-50908355D01*
X44105957Y-50910231D01*
X44151188Y-50865000D01*
X135848813Y-50865000D01*
X135894044Y-50910231D01*
%TA.AperFunction,Conductor*%
D20*
G36*
X135894044Y-50910231D02*
G01*
X135875000Y-50908355D01*
X134125000Y-50908355D01*
X133985189Y-50922125D01*
X133850752Y-50962906D01*
X133726853Y-51029131D01*
X133618255Y-51118255D01*
X133584017Y-51159975D01*
X133509885Y-51160000D01*
X133241253Y-51160000D01*
X133199999Y-51155937D01*
X133158745Y-51160000D01*
X133158736Y-51160000D01*
X133035331Y-51172154D01*
X132876991Y-51220187D01*
X132731063Y-51298186D01*
X132603157Y-51403157D01*
X132576853Y-51435208D01*
X131135208Y-52876854D01*
X131103158Y-52903157D01*
X131076855Y-52935207D01*
X131076853Y-52935209D01*
X130998186Y-53031064D01*
X130950549Y-53120188D01*
X130920188Y-53176991D01*
X130872155Y-53335331D01*
X130862726Y-53431064D01*
X130855937Y-53500000D01*
X130860001Y-53541263D01*
X130860001Y-54060000D01*
X130716702Y-54060000D01*
X130700000Y-54058355D01*
X129000000Y-54058355D01*
X128904085Y-54067802D01*
X128811856Y-54095779D01*
X128726857Y-54141212D01*
X128652354Y-54202354D01*
X128591212Y-54276857D01*
X128545779Y-54361856D01*
X128517802Y-54454085D01*
X128508355Y-54550000D01*
X128508355Y-55250000D01*
X128517802Y-55345915D01*
X128545779Y-55438144D01*
X128591212Y-55523143D01*
X128652354Y-55597646D01*
X128726857Y-55658788D01*
X128811856Y-55704221D01*
X128904085Y-55732198D01*
X129000000Y-55741645D01*
X130700000Y-55741645D01*
X130716702Y-55740000D01*
X130860000Y-55740000D01*
X130860000Y-57026063D01*
X130627709Y-57258355D01*
X129000000Y-57258355D01*
X128904085Y-57267802D01*
X128811856Y-57295779D01*
X128726857Y-57341212D01*
X128652354Y-57402354D01*
X128591212Y-57476857D01*
X128545779Y-57561856D01*
X128517802Y-57654085D01*
X128508355Y-57750000D01*
X128508355Y-58450000D01*
X128517802Y-58545915D01*
X128545779Y-58638144D01*
X128591212Y-58723143D01*
X128652354Y-58797646D01*
X128726857Y-58858788D01*
X128811856Y-58904221D01*
X128904085Y-58932198D01*
X129000000Y-58941645D01*
X130700000Y-58941645D01*
X130716702Y-58940000D01*
X130932749Y-58940000D01*
X130974002Y-58944063D01*
X131015255Y-58940000D01*
X131015266Y-58940000D01*
X131138671Y-58927846D01*
X131297011Y-58879813D01*
X131442939Y-58801814D01*
X131570845Y-58696843D01*
X131597153Y-58664787D01*
X132264793Y-57997148D01*
X132296843Y-57970845D01*
X132401814Y-57842939D01*
X132479813Y-57697011D01*
X132527846Y-57538671D01*
X132540000Y-57415266D01*
X132540000Y-57415257D01*
X132544063Y-57374003D01*
X132540000Y-57332749D01*
X132540000Y-56358172D01*
X132560000Y-56358172D01*
X132560000Y-56641828D01*
X132615338Y-56920033D01*
X132723888Y-57182096D01*
X132881479Y-57417947D01*
X133082053Y-57618521D01*
X133317904Y-57776112D01*
X133579967Y-57884662D01*
X133858172Y-57940000D01*
X134141828Y-57940000D01*
X134420033Y-57884662D01*
X134682096Y-57776112D01*
X134917947Y-57618521D01*
X135118521Y-57417947D01*
X135276112Y-57182096D01*
X135384662Y-56920033D01*
X135440000Y-56641828D01*
X135440000Y-56358172D01*
X135384662Y-56079967D01*
X135276112Y-55817904D01*
X135118521Y-55582053D01*
X134917947Y-55381479D01*
X134682096Y-55223888D01*
X134420033Y-55115338D01*
X134141828Y-55060000D01*
X133858172Y-55060000D01*
X133579967Y-55115338D01*
X133317904Y-55223888D01*
X133082053Y-55381479D01*
X132881479Y-55582053D01*
X132723888Y-55817904D01*
X132615338Y-56079967D01*
X132560000Y-56358172D01*
X132540000Y-56358172D01*
X132540000Y-54941262D01*
X132544064Y-54900000D01*
X132540000Y-54858736D01*
X132540000Y-53847938D01*
X133547926Y-52840013D01*
X133584016Y-52840025D01*
X133618255Y-52881745D01*
X133726853Y-52970869D01*
X133850752Y-53037094D01*
X133985189Y-53077875D01*
X134125000Y-53091645D01*
X135875000Y-53091645D01*
X136014811Y-53077875D01*
X136149248Y-53037094D01*
X136160000Y-53031347D01*
X136160000Y-53194933D01*
X136100752Y-53212906D01*
X135976853Y-53279131D01*
X135868255Y-53368255D01*
X135779131Y-53476853D01*
X135712906Y-53600752D01*
X135672125Y-53735189D01*
X135658355Y-53875000D01*
X135658355Y-54625000D01*
X135672125Y-54764811D01*
X135712906Y-54899248D01*
X135779131Y-55023147D01*
X135868255Y-55131745D01*
X135976853Y-55220869D01*
X136100752Y-55287094D01*
X136160000Y-55305067D01*
X136160000Y-57694933D01*
X136100752Y-57712906D01*
X135976853Y-57779131D01*
X135868255Y-57868255D01*
X135779131Y-57976853D01*
X135712906Y-58100752D01*
X135672125Y-58235189D01*
X135658355Y-58375000D01*
X135658355Y-59125000D01*
X135672125Y-59264811D01*
X135712906Y-59399248D01*
X135779131Y-59523147D01*
X135868255Y-59631745D01*
X135976853Y-59720869D01*
X136100752Y-59787094D01*
X136160000Y-59805067D01*
X136160000Y-61823813D01*
X135848813Y-62135000D01*
X44151188Y-62135000D01*
X43840000Y-61823812D01*
X43840000Y-60752031D01*
X85510000Y-60752031D01*
X85510000Y-60887949D01*
X85536516Y-61021256D01*
X85588530Y-61146828D01*
X85664042Y-61259840D01*
X85760150Y-61355948D01*
X85873162Y-61431460D01*
X85998734Y-61483474D01*
X86132041Y-61509990D01*
X86267959Y-61509990D01*
X86401266Y-61483474D01*
X86526838Y-61431460D01*
X86639850Y-61355948D01*
X86735958Y-61259840D01*
X86811470Y-61146828D01*
X86863484Y-61021256D01*
X86890000Y-60887949D01*
X86890000Y-60752031D01*
X86863484Y-60618724D01*
X86811470Y-60493152D01*
X86735958Y-60380140D01*
X86724736Y-60368918D01*
X92970050Y-60368918D01*
X92970050Y-60504836D01*
X92996566Y-60638143D01*
X93048580Y-60763715D01*
X93124092Y-60876727D01*
X93220200Y-60972835D01*
X93333212Y-61048347D01*
X93458784Y-61100361D01*
X93592091Y-61126877D01*
X93728009Y-61126877D01*
X93861316Y-61100361D01*
X93986888Y-61048347D01*
X94099900Y-60972835D01*
X94196008Y-60876727D01*
X94271520Y-60763715D01*
X94323534Y-60638143D01*
X94350050Y-60504836D01*
X94350050Y-60368918D01*
X94323534Y-60235611D01*
X94322056Y-60232041D01*
X106710000Y-60232041D01*
X106710000Y-60367959D01*
X106736516Y-60501266D01*
X106788530Y-60626838D01*
X106864042Y-60739850D01*
X106960150Y-60835958D01*
X107073162Y-60911470D01*
X107198734Y-60963484D01*
X107332041Y-60990000D01*
X107467959Y-60990000D01*
X107565255Y-60970647D01*
X107588530Y-61026838D01*
X107664042Y-61139850D01*
X107760150Y-61235958D01*
X107873162Y-61311470D01*
X107998734Y-61363484D01*
X108132041Y-61390000D01*
X108267959Y-61390000D01*
X108401266Y-61363484D01*
X108526838Y-61311470D01*
X108639850Y-61235958D01*
X108735958Y-61139850D01*
X108811470Y-61026838D01*
X108863484Y-60901266D01*
X108890000Y-60767959D01*
X108890000Y-60632041D01*
X108863484Y-60498734D01*
X108811470Y-60373162D01*
X108735958Y-60260150D01*
X108639850Y-60164042D01*
X108526838Y-60088530D01*
X108401266Y-60036516D01*
X108267959Y-60010000D01*
X108132041Y-60010000D01*
X108034745Y-60029353D01*
X108011470Y-59973162D01*
X107947245Y-59877041D01*
X117810000Y-59877041D01*
X117810000Y-60012959D01*
X117836516Y-60146266D01*
X117888530Y-60271838D01*
X117964042Y-60384850D01*
X118060150Y-60480958D01*
X118173162Y-60556470D01*
X118298734Y-60608484D01*
X118432041Y-60635000D01*
X118567959Y-60635000D01*
X118701266Y-60608484D01*
X118826838Y-60556470D01*
X118939850Y-60480958D01*
X119035958Y-60384850D01*
X119111470Y-60271838D01*
X119163484Y-60146266D01*
X119190000Y-60012959D01*
X119190000Y-59877041D01*
X119810000Y-59877041D01*
X119810000Y-60012959D01*
X119836516Y-60146266D01*
X119888530Y-60271838D01*
X119964042Y-60384850D01*
X120060150Y-60480958D01*
X120173162Y-60556470D01*
X120298734Y-60608484D01*
X120432041Y-60635000D01*
X120567959Y-60635000D01*
X120701266Y-60608484D01*
X120826838Y-60556470D01*
X120939850Y-60480958D01*
X121035958Y-60384850D01*
X121111470Y-60271838D01*
X121163484Y-60146266D01*
X121190000Y-60012959D01*
X121190000Y-59877041D01*
X121163484Y-59743734D01*
X121111470Y-59618162D01*
X121035958Y-59505150D01*
X120939850Y-59409042D01*
X120826838Y-59333530D01*
X120701266Y-59281516D01*
X120567959Y-59255000D01*
X120432041Y-59255000D01*
X120298734Y-59281516D01*
X120173162Y-59333530D01*
X120060150Y-59409042D01*
X119964042Y-59505150D01*
X119888530Y-59618162D01*
X119836516Y-59743734D01*
X119810000Y-59877041D01*
X119190000Y-59877041D01*
X119163484Y-59743734D01*
X119111470Y-59618162D01*
X119035958Y-59505150D01*
X118939850Y-59409042D01*
X118826838Y-59333530D01*
X118701266Y-59281516D01*
X118567959Y-59255000D01*
X118432041Y-59255000D01*
X118298734Y-59281516D01*
X118173162Y-59333530D01*
X118060150Y-59409042D01*
X117964042Y-59505150D01*
X117888530Y-59618162D01*
X117836516Y-59743734D01*
X117810000Y-59877041D01*
X107947245Y-59877041D01*
X107935958Y-59860150D01*
X107839850Y-59764042D01*
X107726838Y-59688530D01*
X107601266Y-59636516D01*
X107467959Y-59610000D01*
X107332041Y-59610000D01*
X107198734Y-59636516D01*
X107073162Y-59688530D01*
X106960150Y-59764042D01*
X106864042Y-59860150D01*
X106788530Y-59973162D01*
X106736516Y-60098734D01*
X106710000Y-60232041D01*
X94322056Y-60232041D01*
X94271520Y-60110039D01*
X94196008Y-59997027D01*
X94099900Y-59900919D01*
X93986888Y-59825407D01*
X93861316Y-59773393D01*
X93728009Y-59746877D01*
X93592091Y-59746877D01*
X93458784Y-59773393D01*
X93333212Y-59825407D01*
X93220200Y-59900919D01*
X93124092Y-59997027D01*
X93048580Y-60110039D01*
X92996566Y-60235611D01*
X92970050Y-60368918D01*
X86724736Y-60368918D01*
X86639850Y-60284032D01*
X86526838Y-60208520D01*
X86401266Y-60156506D01*
X86267959Y-60129990D01*
X86132041Y-60129990D01*
X85998734Y-60156506D01*
X85873162Y-60208520D01*
X85760150Y-60284032D01*
X85664042Y-60380140D01*
X85588530Y-60493152D01*
X85536516Y-60618724D01*
X85510000Y-60752031D01*
X43840000Y-60752031D01*
X43840000Y-59805067D01*
X43899248Y-59787094D01*
X43918055Y-59777041D01*
X52760000Y-59777041D01*
X52760000Y-59912959D01*
X52786516Y-60046266D01*
X52838530Y-60171838D01*
X52914042Y-60284850D01*
X53010150Y-60380958D01*
X53123162Y-60456470D01*
X53248734Y-60508484D01*
X53382041Y-60535000D01*
X53517959Y-60535000D01*
X53651266Y-60508484D01*
X53776838Y-60456470D01*
X53889850Y-60380958D01*
X53985958Y-60284850D01*
X54061470Y-60171838D01*
X54113484Y-60046266D01*
X54140000Y-59912959D01*
X54140000Y-59777041D01*
X65010000Y-59777041D01*
X65010000Y-59912959D01*
X65036516Y-60046266D01*
X65088530Y-60171838D01*
X65164042Y-60284850D01*
X65260150Y-60380958D01*
X65373162Y-60456470D01*
X65498734Y-60508484D01*
X65632041Y-60535000D01*
X65767959Y-60535000D01*
X65901266Y-60508484D01*
X66026838Y-60456470D01*
X66139850Y-60380958D01*
X66235958Y-60284850D01*
X66311470Y-60171838D01*
X66363484Y-60046266D01*
X66390000Y-59912959D01*
X66390000Y-59777041D01*
X66363484Y-59643734D01*
X66311470Y-59518162D01*
X66235958Y-59405150D01*
X66139850Y-59309042D01*
X66026838Y-59233530D01*
X65901266Y-59181516D01*
X65767959Y-59155000D01*
X65632041Y-59155000D01*
X65498734Y-59181516D01*
X65373162Y-59233530D01*
X65260150Y-59309042D01*
X65164042Y-59405150D01*
X65088530Y-59518162D01*
X65036516Y-59643734D01*
X65010000Y-59777041D01*
X54140000Y-59777041D01*
X54113484Y-59643734D01*
X54061470Y-59518162D01*
X53985958Y-59405150D01*
X53889850Y-59309042D01*
X53776838Y-59233530D01*
X53651266Y-59181516D01*
X53517959Y-59155000D01*
X53382041Y-59155000D01*
X53248734Y-59181516D01*
X53123162Y-59233530D01*
X53010150Y-59309042D01*
X52914042Y-59405150D01*
X52838530Y-59518162D01*
X52786516Y-59643734D01*
X52760000Y-59777041D01*
X43918055Y-59777041D01*
X44023147Y-59720869D01*
X44131745Y-59631745D01*
X44220869Y-59523147D01*
X44287094Y-59399248D01*
X44327875Y-59264811D01*
X44341645Y-59125000D01*
X44341645Y-58375000D01*
X44327875Y-58235189D01*
X44287094Y-58100752D01*
X44220869Y-57976853D01*
X44131745Y-57868255D01*
X44023147Y-57779131D01*
X43899248Y-57712906D01*
X43840000Y-57694933D01*
X43840000Y-56358172D01*
X44560000Y-56358172D01*
X44560000Y-56641828D01*
X44615338Y-56920033D01*
X44723888Y-57182096D01*
X44881479Y-57417947D01*
X45082053Y-57618521D01*
X45317904Y-57776112D01*
X45579967Y-57884662D01*
X45858172Y-57940000D01*
X46141828Y-57940000D01*
X46420033Y-57884662D01*
X46682096Y-57776112D01*
X46917947Y-57618521D01*
X47118521Y-57417947D01*
X47276112Y-57182096D01*
X47384662Y-56920033D01*
X47440000Y-56641828D01*
X47440000Y-56358172D01*
X47384662Y-56079967D01*
X47276112Y-55817904D01*
X47118521Y-55582053D01*
X46917947Y-55381479D01*
X46682096Y-55223888D01*
X46420033Y-55115338D01*
X46141828Y-55060000D01*
X45858172Y-55060000D01*
X45579967Y-55115338D01*
X45317904Y-55223888D01*
X45082053Y-55381479D01*
X44881479Y-55582053D01*
X44723888Y-55817904D01*
X44615338Y-56079967D01*
X44560000Y-56358172D01*
X43840000Y-56358172D01*
X43840000Y-55305067D01*
X43899248Y-55287094D01*
X44023147Y-55220869D01*
X44131745Y-55131745D01*
X44220869Y-55023147D01*
X44287094Y-54899248D01*
X44327875Y-54764811D01*
X44341645Y-54625000D01*
X44341645Y-53875000D01*
X44327875Y-53735189D01*
X44287094Y-53600752D01*
X44220869Y-53476853D01*
X44131745Y-53368255D01*
X44023147Y-53279131D01*
X43899248Y-53212906D01*
X43840000Y-53194933D01*
X43840000Y-53031347D01*
X43850752Y-53037094D01*
X43985189Y-53077875D01*
X44125000Y-53091645D01*
X45875000Y-53091645D01*
X46014811Y-53077875D01*
X46149248Y-53037094D01*
X46273147Y-52970869D01*
X46381745Y-52881745D01*
X46415984Y-52840025D01*
X46452075Y-52840013D01*
X47860002Y-54247940D01*
X47860001Y-54552061D01*
X47735208Y-54676854D01*
X47703158Y-54703157D01*
X47676855Y-54735207D01*
X47676853Y-54735209D01*
X47598186Y-54831064D01*
X47541913Y-54936346D01*
X47520188Y-54976991D01*
X47472155Y-55135331D01*
X47460861Y-55250000D01*
X47455937Y-55300000D01*
X47460001Y-55341263D01*
X47460000Y-57658746D01*
X47455937Y-57700000D01*
X47460000Y-57741253D01*
X47460000Y-57741263D01*
X47472154Y-57864668D01*
X47520187Y-58023008D01*
X47598186Y-58168936D01*
X47703157Y-58296843D01*
X47735213Y-58323151D01*
X48076848Y-58664786D01*
X48103156Y-58696842D01*
X48231062Y-58801813D01*
X48376990Y-58879812D01*
X48535330Y-58927845D01*
X48658735Y-58939999D01*
X48658745Y-58939999D01*
X48699998Y-58944062D01*
X48741252Y-58939999D01*
X49283298Y-58939999D01*
X49300000Y-58941644D01*
X51000000Y-58941644D01*
X51095915Y-58932197D01*
X51188144Y-58904220D01*
X51273143Y-58858787D01*
X51347646Y-58797645D01*
X51408788Y-58723142D01*
X51454221Y-58638143D01*
X51482198Y-58545914D01*
X51491645Y-58449999D01*
X51491645Y-57749999D01*
X51482198Y-57654084D01*
X51465792Y-57599999D01*
X53508355Y-57599999D01*
X53508355Y-58599999D01*
X53514920Y-58666651D01*
X53534361Y-58730741D01*
X53565933Y-58789807D01*
X53608421Y-58841578D01*
X53660192Y-58884066D01*
X53719258Y-58915638D01*
X53783348Y-58935079D01*
X53850000Y-58941644D01*
X55850000Y-58941644D01*
X55866701Y-58939999D01*
X56808736Y-58940000D01*
X64283298Y-58940000D01*
X64300000Y-58941645D01*
X66000000Y-58941645D01*
X66095915Y-58932198D01*
X66188144Y-58904221D01*
X66273143Y-58858788D01*
X66347646Y-58797646D01*
X66408788Y-58723143D01*
X66454221Y-58638144D01*
X66482198Y-58545915D01*
X66491645Y-58450000D01*
X66491645Y-57750000D01*
X66482198Y-57654085D01*
X66465792Y-57600000D01*
X68508355Y-57600000D01*
X68508355Y-58600000D01*
X68514920Y-58666652D01*
X68534361Y-58730742D01*
X68565933Y-58789808D01*
X68608421Y-58841579D01*
X68660192Y-58884067D01*
X68719258Y-58915639D01*
X68783348Y-58935080D01*
X68850000Y-58941645D01*
X70850000Y-58941645D01*
X70866701Y-58940000D01*
X71090323Y-58940000D01*
X70973162Y-58988530D01*
X70860150Y-59064042D01*
X70764042Y-59160150D01*
X70688530Y-59273162D01*
X70636516Y-59398734D01*
X70610000Y-59532041D01*
X70610000Y-59667959D01*
X70636516Y-59801266D01*
X70688530Y-59926838D01*
X70764042Y-60039850D01*
X70860150Y-60135958D01*
X70973162Y-60211470D01*
X71098734Y-60263484D01*
X71232041Y-60290000D01*
X71367959Y-60290000D01*
X71501266Y-60263484D01*
X71626838Y-60211470D01*
X71739850Y-60135958D01*
X71835958Y-60039850D01*
X71911470Y-59926838D01*
X71963484Y-59801266D01*
X71990000Y-59667959D01*
X71990000Y-59532041D01*
X71963484Y-59398734D01*
X71911470Y-59273162D01*
X71835958Y-59160150D01*
X71739850Y-59064042D01*
X71626838Y-58988530D01*
X71509677Y-58940000D01*
X79283298Y-58940000D01*
X79300000Y-58941645D01*
X81000000Y-58941645D01*
X81095915Y-58932198D01*
X81188144Y-58904221D01*
X81273143Y-58858788D01*
X81347646Y-58797646D01*
X81408788Y-58723143D01*
X81454221Y-58638144D01*
X81482198Y-58545915D01*
X81491645Y-58450000D01*
X81491645Y-57750000D01*
X81482198Y-57654085D01*
X81465792Y-57600000D01*
X83508355Y-57600000D01*
X83508355Y-58600000D01*
X83514920Y-58666652D01*
X83534361Y-58730742D01*
X83565933Y-58789808D01*
X83608421Y-58841579D01*
X83660192Y-58884067D01*
X83719258Y-58915639D01*
X83783348Y-58935080D01*
X83850000Y-58941645D01*
X84107244Y-58941645D01*
X84106421Y-58950000D01*
X84110000Y-58986340D01*
X84110000Y-58986347D01*
X84114016Y-59027121D01*
X84120708Y-59095065D01*
X84163022Y-59234555D01*
X84183658Y-59273162D01*
X84231737Y-59363111D01*
X84260972Y-59398734D01*
X84301040Y-59447557D01*
X84301043Y-59447560D01*
X84324211Y-59475790D01*
X84352430Y-59498949D01*
X84428277Y-59574796D01*
X84458672Y-59595105D01*
X84486890Y-59618263D01*
X84519083Y-59635471D01*
X84549478Y-59655780D01*
X84583247Y-59669768D01*
X84615445Y-59686978D01*
X84650383Y-59697576D01*
X84684150Y-59711563D01*
X84719995Y-59718693D01*
X84754936Y-59729292D01*
X84791275Y-59732871D01*
X84827116Y-59740000D01*
X84863660Y-59740000D01*
X84900000Y-59743579D01*
X84936340Y-59740000D01*
X84972884Y-59740000D01*
X85008724Y-59732871D01*
X85045065Y-59729292D01*
X85080007Y-59718692D01*
X85115850Y-59711563D01*
X85149616Y-59697577D01*
X85184555Y-59686978D01*
X85216754Y-59669767D01*
X85250522Y-59655780D01*
X85280914Y-59635473D01*
X85313111Y-59618263D01*
X85341332Y-59595102D01*
X85371723Y-59574796D01*
X85397567Y-59548952D01*
X85425790Y-59525790D01*
X85448952Y-59497567D01*
X85474796Y-59471723D01*
X85495102Y-59441332D01*
X85518263Y-59413111D01*
X85535473Y-59380914D01*
X85555780Y-59350522D01*
X85569767Y-59316754D01*
X85586978Y-59284555D01*
X85597577Y-59249616D01*
X85611563Y-59215850D01*
X85618692Y-59180007D01*
X85629292Y-59145065D01*
X85632871Y-59108724D01*
X85640000Y-59072884D01*
X85640000Y-59036340D01*
X85643579Y-59000000D01*
X85640000Y-58963660D01*
X85640000Y-58941645D01*
X85850000Y-58941645D01*
X85916652Y-58935080D01*
X85980742Y-58915639D01*
X86039808Y-58884067D01*
X86091579Y-58841579D01*
X86134067Y-58789808D01*
X86165639Y-58730742D01*
X86185080Y-58666652D01*
X86188489Y-58632041D01*
X87510000Y-58632041D01*
X87510000Y-58767959D01*
X87536516Y-58901266D01*
X87588530Y-59026838D01*
X87664042Y-59139850D01*
X87760150Y-59235958D01*
X87873162Y-59311470D01*
X87998734Y-59363484D01*
X88132041Y-59390000D01*
X88267959Y-59390000D01*
X88401266Y-59363484D01*
X88526838Y-59311470D01*
X88639850Y-59235958D01*
X88735958Y-59139850D01*
X88776901Y-59078573D01*
X92432190Y-59078573D01*
X92432190Y-59214491D01*
X92458706Y-59347798D01*
X92510720Y-59473370D01*
X92586232Y-59586382D01*
X92682340Y-59682490D01*
X92795352Y-59758002D01*
X92920924Y-59810016D01*
X93054231Y-59836532D01*
X93190149Y-59836532D01*
X93323456Y-59810016D01*
X93449028Y-59758002D01*
X93562040Y-59682490D01*
X93658148Y-59586382D01*
X93733660Y-59473370D01*
X93785674Y-59347798D01*
X93812190Y-59214491D01*
X93812190Y-59078573D01*
X93785674Y-58945266D01*
X93733660Y-58819694D01*
X93658148Y-58706682D01*
X93562040Y-58610574D01*
X93449028Y-58535062D01*
X93323456Y-58483048D01*
X93190149Y-58456532D01*
X93054231Y-58456532D01*
X92920924Y-58483048D01*
X92795352Y-58535062D01*
X92682340Y-58610574D01*
X92586232Y-58706682D01*
X92510720Y-58819694D01*
X92458706Y-58945266D01*
X92432190Y-59078573D01*
X88776901Y-59078573D01*
X88811470Y-59026838D01*
X88863484Y-58901266D01*
X88890000Y-58767959D01*
X88890000Y-58632041D01*
X88863484Y-58498734D01*
X88811470Y-58373162D01*
X88735958Y-58260150D01*
X88639850Y-58164042D01*
X88526838Y-58088530D01*
X88401266Y-58036516D01*
X88267959Y-58010000D01*
X88132041Y-58010000D01*
X87998734Y-58036516D01*
X87873162Y-58088530D01*
X87760150Y-58164042D01*
X87664042Y-58260150D01*
X87588530Y-58373162D01*
X87536516Y-58498734D01*
X87510000Y-58632041D01*
X86188489Y-58632041D01*
X86191645Y-58600000D01*
X86191645Y-57600000D01*
X86185080Y-57533348D01*
X86165639Y-57469258D01*
X86134067Y-57410192D01*
X86091579Y-57358421D01*
X86039808Y-57315933D01*
X85980742Y-57284361D01*
X85916652Y-57264920D01*
X85850000Y-57258355D01*
X83850000Y-57258355D01*
X83783348Y-57264920D01*
X83719258Y-57284361D01*
X83660192Y-57315933D01*
X83608421Y-57358421D01*
X83565933Y-57410192D01*
X83534361Y-57469258D01*
X83514920Y-57533348D01*
X83508355Y-57600000D01*
X81465792Y-57600000D01*
X81454221Y-57561856D01*
X81408788Y-57476857D01*
X81347646Y-57402354D01*
X81273143Y-57341212D01*
X81188144Y-57295779D01*
X81095915Y-57267802D01*
X81000000Y-57258355D01*
X79300000Y-57258355D01*
X79283298Y-57260000D01*
X70866701Y-57260000D01*
X70850000Y-57258355D01*
X68850000Y-57258355D01*
X68783348Y-57264920D01*
X68719258Y-57284361D01*
X68660192Y-57315933D01*
X68608421Y-57358421D01*
X68565933Y-57410192D01*
X68534361Y-57469258D01*
X68514920Y-57533348D01*
X68508355Y-57600000D01*
X66465792Y-57600000D01*
X66454221Y-57561856D01*
X66408788Y-57476857D01*
X66347646Y-57402354D01*
X66273143Y-57341212D01*
X66188144Y-57295779D01*
X66095915Y-57267802D01*
X66000000Y-57258355D01*
X64300000Y-57258355D01*
X64283298Y-57260000D01*
X56808737Y-57260000D01*
X56808728Y-57260001D01*
X55866711Y-57260000D01*
X55850000Y-57258354D01*
X53850000Y-57258354D01*
X53783348Y-57264919D01*
X53719258Y-57284360D01*
X53660192Y-57315932D01*
X53608421Y-57358420D01*
X53565933Y-57410191D01*
X53534361Y-57469257D01*
X53514920Y-57533347D01*
X53508355Y-57599999D01*
X51465792Y-57599999D01*
X51454221Y-57561855D01*
X51408788Y-57476856D01*
X51347646Y-57402353D01*
X51273143Y-57341211D01*
X51188144Y-57295778D01*
X51095915Y-57267801D01*
X51000000Y-57258354D01*
X49300000Y-57258354D01*
X49283298Y-57259999D01*
X49140000Y-57259999D01*
X49140000Y-56915936D01*
X91698497Y-56915936D01*
X91698497Y-57051854D01*
X91725013Y-57185161D01*
X91777027Y-57310733D01*
X91852539Y-57423745D01*
X91948647Y-57519853D01*
X92061659Y-57595365D01*
X92187231Y-57647379D01*
X92217613Y-57653422D01*
X92211298Y-57685170D01*
X92211298Y-57821088D01*
X92237814Y-57954395D01*
X92289828Y-58079967D01*
X92365340Y-58192979D01*
X92461448Y-58289087D01*
X92574460Y-58364599D01*
X92700032Y-58416613D01*
X92833339Y-58443129D01*
X92969257Y-58443129D01*
X93102564Y-58416613D01*
X93228136Y-58364599D01*
X93341148Y-58289087D01*
X93437256Y-58192979D01*
X93512768Y-58079967D01*
X93564782Y-57954395D01*
X93591298Y-57821088D01*
X93591298Y-57750000D01*
X93808355Y-57750000D01*
X93808355Y-58450000D01*
X93817802Y-58545915D01*
X93845779Y-58638144D01*
X93891212Y-58723143D01*
X93952354Y-58797646D01*
X94026857Y-58858788D01*
X94111856Y-58904221D01*
X94204085Y-58932198D01*
X94280338Y-58939708D01*
X94275718Y-58954940D01*
X94272139Y-58991281D01*
X94265010Y-59027121D01*
X94265010Y-59063665D01*
X94261431Y-59100005D01*
X94265010Y-59136345D01*
X94265010Y-59172889D01*
X94272139Y-59208729D01*
X94275718Y-59245070D01*
X94286318Y-59280012D01*
X94293447Y-59315855D01*
X94307433Y-59349621D01*
X94318032Y-59384560D01*
X94335242Y-59416758D01*
X94349230Y-59450527D01*
X94369539Y-59480922D01*
X94386747Y-59513115D01*
X94409905Y-59541333D01*
X94430214Y-59571728D01*
X94456059Y-59597573D01*
X94479220Y-59625795D01*
X94507442Y-59648956D01*
X94533287Y-59674801D01*
X94563682Y-59695110D01*
X94591900Y-59718268D01*
X94624093Y-59735476D01*
X94654488Y-59755785D01*
X94688257Y-59769773D01*
X94720455Y-59786983D01*
X94755394Y-59797582D01*
X94789160Y-59811568D01*
X94825003Y-59818697D01*
X94859945Y-59829297D01*
X94896286Y-59832876D01*
X94932126Y-59840005D01*
X94968670Y-59840005D01*
X95005010Y-59843584D01*
X95041350Y-59840005D01*
X95077894Y-59840005D01*
X95113734Y-59832876D01*
X95150075Y-59829297D01*
X95185017Y-59818697D01*
X95220860Y-59811568D01*
X95254626Y-59797582D01*
X95289565Y-59786983D01*
X95321763Y-59769773D01*
X95355532Y-59755785D01*
X95385927Y-59735476D01*
X95418120Y-59718268D01*
X95446338Y-59695110D01*
X95476733Y-59674801D01*
X95579806Y-59571728D01*
X95579810Y-59571722D01*
X95647555Y-59503977D01*
X95675790Y-59480805D01*
X95768264Y-59368126D01*
X95836978Y-59239571D01*
X95879292Y-59100080D01*
X95890000Y-58991362D01*
X95890000Y-58991355D01*
X95893579Y-58955015D01*
X95892262Y-58941645D01*
X96000000Y-58941645D01*
X96095915Y-58932198D01*
X96188144Y-58904221D01*
X96273143Y-58858788D01*
X96347646Y-58797646D01*
X96408788Y-58723143D01*
X96454221Y-58638144D01*
X96482198Y-58545915D01*
X96491645Y-58450000D01*
X96491645Y-57750000D01*
X98508355Y-57750000D01*
X98508355Y-58450000D01*
X98517802Y-58545915D01*
X98545779Y-58638144D01*
X98591212Y-58723143D01*
X98652354Y-58797646D01*
X98726857Y-58858788D01*
X98811856Y-58904221D01*
X98904085Y-58932198D01*
X99000000Y-58941645D01*
X100700000Y-58941645D01*
X100716702Y-58940000D01*
X109283298Y-58940000D01*
X109300000Y-58941645D01*
X111000000Y-58941645D01*
X111095915Y-58932198D01*
X111188144Y-58904221D01*
X111273143Y-58858788D01*
X111347646Y-58797646D01*
X111408788Y-58723143D01*
X111454221Y-58638144D01*
X111482198Y-58545915D01*
X111491645Y-58450000D01*
X111491645Y-57750000D01*
X113508355Y-57750000D01*
X113508355Y-58450000D01*
X113517802Y-58545915D01*
X113545779Y-58638144D01*
X113591212Y-58723143D01*
X113652354Y-58797646D01*
X113726857Y-58858788D01*
X113811856Y-58904221D01*
X113904085Y-58932198D01*
X114000000Y-58941645D01*
X115700000Y-58941645D01*
X115716702Y-58940000D01*
X124283298Y-58940000D01*
X124300000Y-58941645D01*
X126000000Y-58941645D01*
X126095915Y-58932198D01*
X126188144Y-58904221D01*
X126273143Y-58858788D01*
X126347646Y-58797646D01*
X126408788Y-58723143D01*
X126454221Y-58638144D01*
X126482198Y-58545915D01*
X126491645Y-58450000D01*
X126491645Y-57750000D01*
X126482198Y-57654085D01*
X126454221Y-57561856D01*
X126408788Y-57476857D01*
X126347646Y-57402354D01*
X126273143Y-57341212D01*
X126188144Y-57295779D01*
X126095915Y-57267802D01*
X126000000Y-57258355D01*
X124300000Y-57258355D01*
X124283298Y-57260000D01*
X115716702Y-57260000D01*
X115700000Y-57258355D01*
X114000000Y-57258355D01*
X113904085Y-57267802D01*
X113811856Y-57295779D01*
X113726857Y-57341212D01*
X113652354Y-57402354D01*
X113591212Y-57476857D01*
X113545779Y-57561856D01*
X113517802Y-57654085D01*
X113508355Y-57750000D01*
X111491645Y-57750000D01*
X111482198Y-57654085D01*
X111454221Y-57561856D01*
X111408788Y-57476857D01*
X111347646Y-57402354D01*
X111273143Y-57341212D01*
X111188144Y-57295779D01*
X111095915Y-57267802D01*
X111000000Y-57258355D01*
X109300000Y-57258355D01*
X109283298Y-57260000D01*
X100716702Y-57260000D01*
X100700000Y-57258355D01*
X99000000Y-57258355D01*
X98904085Y-57267802D01*
X98811856Y-57295779D01*
X98726857Y-57341212D01*
X98652354Y-57402354D01*
X98591212Y-57476857D01*
X98545779Y-57561856D01*
X98517802Y-57654085D01*
X98508355Y-57750000D01*
X96491645Y-57750000D01*
X96482198Y-57654085D01*
X96454221Y-57561856D01*
X96408788Y-57476857D01*
X96347646Y-57402354D01*
X96273143Y-57341212D01*
X96188144Y-57295779D01*
X96095915Y-57267802D01*
X96000000Y-57258355D01*
X94300000Y-57258355D01*
X94204085Y-57267802D01*
X94111856Y-57295779D01*
X94026857Y-57341212D01*
X93952354Y-57402354D01*
X93891212Y-57476857D01*
X93845779Y-57561856D01*
X93817802Y-57654085D01*
X93808355Y-57750000D01*
X93591298Y-57750000D01*
X93591298Y-57685170D01*
X93564782Y-57551863D01*
X93512768Y-57426291D01*
X93437256Y-57313279D01*
X93341148Y-57217171D01*
X93228136Y-57141659D01*
X93102564Y-57089645D01*
X93072182Y-57083602D01*
X93078497Y-57051854D01*
X93078497Y-56915936D01*
X93051981Y-56782629D01*
X92999967Y-56657057D01*
X92924455Y-56544045D01*
X92828347Y-56447937D01*
X92715335Y-56372425D01*
X92589763Y-56320411D01*
X92456456Y-56293895D01*
X92320538Y-56293895D01*
X92187231Y-56320411D01*
X92061659Y-56372425D01*
X91948647Y-56447937D01*
X91852539Y-56544045D01*
X91777027Y-56657057D01*
X91725013Y-56782629D01*
X91698497Y-56915936D01*
X49140000Y-56915936D01*
X49140000Y-55739999D01*
X49283298Y-55739999D01*
X49300000Y-55741644D01*
X51000000Y-55741644D01*
X51095915Y-55732197D01*
X51188144Y-55704220D01*
X51273143Y-55658787D01*
X51347646Y-55597645D01*
X51408788Y-55523142D01*
X51454221Y-55438143D01*
X51482198Y-55345914D01*
X51491645Y-55249999D01*
X51491645Y-54549999D01*
X53508355Y-54549999D01*
X53508355Y-55249999D01*
X53517802Y-55345914D01*
X53545779Y-55438143D01*
X53591212Y-55523142D01*
X53652354Y-55597645D01*
X53726857Y-55658787D01*
X53811856Y-55704220D01*
X53904085Y-55732197D01*
X54000000Y-55741644D01*
X55700000Y-55741644D01*
X55716695Y-55740000D01*
X64283298Y-55740000D01*
X64300000Y-55741645D01*
X66000000Y-55741645D01*
X66095915Y-55732198D01*
X66188144Y-55704221D01*
X66273143Y-55658788D01*
X66347646Y-55597646D01*
X66408788Y-55523143D01*
X66454221Y-55438144D01*
X66482198Y-55345915D01*
X66491645Y-55250000D01*
X66491645Y-54550000D01*
X68508355Y-54550000D01*
X68508355Y-55250000D01*
X68517802Y-55345915D01*
X68545779Y-55438144D01*
X68591212Y-55523143D01*
X68652354Y-55597646D01*
X68726857Y-55658788D01*
X68811856Y-55704221D01*
X68904085Y-55732198D01*
X69000000Y-55741645D01*
X70700000Y-55741645D01*
X70716702Y-55740000D01*
X79283298Y-55740000D01*
X79300000Y-55741645D01*
X81000000Y-55741645D01*
X81095915Y-55732198D01*
X81188144Y-55704221D01*
X81273143Y-55658788D01*
X81347646Y-55597646D01*
X81408788Y-55523143D01*
X81454221Y-55438144D01*
X81482198Y-55345915D01*
X81491645Y-55250000D01*
X81491645Y-54550000D01*
X83508355Y-54550000D01*
X83508355Y-55250000D01*
X83517802Y-55345915D01*
X83545779Y-55438144D01*
X83591212Y-55523143D01*
X83652354Y-55597646D01*
X83726857Y-55658788D01*
X83811856Y-55704221D01*
X83904085Y-55732198D01*
X84000000Y-55741645D01*
X85700000Y-55741645D01*
X85795915Y-55732198D01*
X85888144Y-55704221D01*
X85973143Y-55658788D01*
X86047646Y-55597646D01*
X86108788Y-55523143D01*
X86154221Y-55438144D01*
X86182198Y-55345915D01*
X86191645Y-55250000D01*
X86191645Y-55182041D01*
X92310000Y-55182041D01*
X92310000Y-55317959D01*
X92336516Y-55451266D01*
X92388530Y-55576838D01*
X92464042Y-55689850D01*
X92560150Y-55785958D01*
X92673162Y-55861470D01*
X92798734Y-55913484D01*
X92932041Y-55940000D01*
X93067959Y-55940000D01*
X93201266Y-55913484D01*
X93326838Y-55861470D01*
X93439850Y-55785958D01*
X93535958Y-55689850D01*
X93611470Y-55576838D01*
X93663484Y-55451266D01*
X93690000Y-55317959D01*
X93690000Y-55182041D01*
X93663484Y-55048734D01*
X93611470Y-54923162D01*
X93535958Y-54810150D01*
X93439850Y-54714042D01*
X93326838Y-54638530D01*
X93201266Y-54586516D01*
X93067959Y-54560000D01*
X92932041Y-54560000D01*
X92798734Y-54586516D01*
X92673162Y-54638530D01*
X92560150Y-54714042D01*
X92464042Y-54810150D01*
X92388530Y-54923162D01*
X92336516Y-55048734D01*
X92310000Y-55182041D01*
X86191645Y-55182041D01*
X86191645Y-54550000D01*
X86182198Y-54454085D01*
X86165792Y-54400000D01*
X93808355Y-54400000D01*
X93808355Y-55400000D01*
X93814920Y-55466652D01*
X93834361Y-55530742D01*
X93865933Y-55589808D01*
X93908421Y-55641579D01*
X93960192Y-55684067D01*
X94019258Y-55715639D01*
X94083348Y-55735080D01*
X94150000Y-55741645D01*
X96150000Y-55741645D01*
X96216652Y-55735080D01*
X96280742Y-55715639D01*
X96339808Y-55684067D01*
X96391579Y-55641579D01*
X96434067Y-55589808D01*
X96465639Y-55530742D01*
X96485080Y-55466652D01*
X96491645Y-55400000D01*
X96491645Y-54550000D01*
X98508355Y-54550000D01*
X98508355Y-55250000D01*
X98517802Y-55345915D01*
X98545779Y-55438144D01*
X98591212Y-55523143D01*
X98652354Y-55597646D01*
X98726857Y-55658788D01*
X98811856Y-55704221D01*
X98904085Y-55732198D01*
X99000000Y-55741645D01*
X100700000Y-55741645D01*
X100716702Y-55740000D01*
X109133299Y-55740000D01*
X109150000Y-55741645D01*
X111150000Y-55741645D01*
X111216652Y-55735080D01*
X111280742Y-55715639D01*
X111339808Y-55684067D01*
X111391579Y-55641579D01*
X111434067Y-55589808D01*
X111465639Y-55530742D01*
X111485080Y-55466652D01*
X111491645Y-55400000D01*
X111491645Y-54550000D01*
X113508355Y-54550000D01*
X113508355Y-55250000D01*
X113517802Y-55345915D01*
X113545779Y-55438144D01*
X113591212Y-55523143D01*
X113652354Y-55597646D01*
X113726857Y-55658788D01*
X113811856Y-55704221D01*
X113904085Y-55732198D01*
X114000000Y-55741645D01*
X115700000Y-55741645D01*
X115716702Y-55740000D01*
X124133299Y-55740000D01*
X124150000Y-55741645D01*
X126150000Y-55741645D01*
X126216652Y-55735080D01*
X126280742Y-55715639D01*
X126339808Y-55684067D01*
X126391579Y-55641579D01*
X126434067Y-55589808D01*
X126465639Y-55530742D01*
X126485080Y-55466652D01*
X126491645Y-55400000D01*
X126491645Y-54400000D01*
X126485080Y-54333348D01*
X126465639Y-54269258D01*
X126434067Y-54210192D01*
X126391579Y-54158421D01*
X126339808Y-54115933D01*
X126280742Y-54084361D01*
X126216652Y-54064920D01*
X126150000Y-54058355D01*
X124150000Y-54058355D01*
X124133299Y-54060000D01*
X115716702Y-54060000D01*
X115700000Y-54058355D01*
X114000000Y-54058355D01*
X113904085Y-54067802D01*
X113811856Y-54095779D01*
X113726857Y-54141212D01*
X113652354Y-54202354D01*
X113591212Y-54276857D01*
X113545779Y-54361856D01*
X113517802Y-54454085D01*
X113508355Y-54550000D01*
X111491645Y-54550000D01*
X111491645Y-54400000D01*
X111485080Y-54333348D01*
X111465639Y-54269258D01*
X111434067Y-54210192D01*
X111391579Y-54158421D01*
X111339808Y-54115933D01*
X111280742Y-54084361D01*
X111216652Y-54064920D01*
X111150000Y-54058355D01*
X109150000Y-54058355D01*
X109133299Y-54060000D01*
X100716702Y-54060000D01*
X100700000Y-54058355D01*
X99000000Y-54058355D01*
X98904085Y-54067802D01*
X98811856Y-54095779D01*
X98726857Y-54141212D01*
X98652354Y-54202354D01*
X98591212Y-54276857D01*
X98545779Y-54361856D01*
X98517802Y-54454085D01*
X98508355Y-54550000D01*
X96491645Y-54550000D01*
X96491645Y-54400000D01*
X96485080Y-54333348D01*
X96465639Y-54269258D01*
X96434067Y-54210192D01*
X96391579Y-54158421D01*
X96339808Y-54115933D01*
X96280742Y-54084361D01*
X96216652Y-54064920D01*
X96150000Y-54058355D01*
X95703813Y-54058355D01*
X95698959Y-54052441D01*
X95698958Y-54052440D01*
X95675790Y-54024210D01*
X95647560Y-54001042D01*
X95174800Y-53528283D01*
X95174796Y-53528277D01*
X95071723Y-53425204D01*
X95041328Y-53404895D01*
X95013110Y-53381737D01*
X94980917Y-53364529D01*
X94950522Y-53344220D01*
X94916753Y-53330232D01*
X94884555Y-53313022D01*
X94849616Y-53302423D01*
X94815850Y-53288437D01*
X94780007Y-53281308D01*
X94745065Y-53270708D01*
X94708724Y-53267129D01*
X94672884Y-53260000D01*
X94636340Y-53260000D01*
X94600000Y-53256421D01*
X94563660Y-53260000D01*
X94527116Y-53260000D01*
X94491276Y-53267129D01*
X94454935Y-53270708D01*
X94419993Y-53281308D01*
X94384150Y-53288437D01*
X94350384Y-53302423D01*
X94315445Y-53313022D01*
X94283247Y-53330232D01*
X94249478Y-53344220D01*
X94219083Y-53364529D01*
X94186890Y-53381737D01*
X94158672Y-53404895D01*
X94128277Y-53425204D01*
X94102432Y-53451049D01*
X94074210Y-53474210D01*
X94051049Y-53502432D01*
X94025204Y-53528277D01*
X94004895Y-53558672D01*
X93981737Y-53586890D01*
X93964529Y-53619083D01*
X93944220Y-53649478D01*
X93930232Y-53683247D01*
X93913022Y-53715445D01*
X93902423Y-53750384D01*
X93888437Y-53784150D01*
X93881308Y-53819993D01*
X93870708Y-53854935D01*
X93867129Y-53891276D01*
X93860000Y-53927116D01*
X93860000Y-53963660D01*
X93856421Y-54000000D01*
X93860000Y-54036340D01*
X93860000Y-54072884D01*
X93867129Y-54108724D01*
X93870708Y-54145065D01*
X93881308Y-54180007D01*
X93883141Y-54189224D01*
X93865933Y-54210192D01*
X93834361Y-54269258D01*
X93814920Y-54333348D01*
X93808355Y-54400000D01*
X86165792Y-54400000D01*
X86154221Y-54361856D01*
X86108788Y-54276857D01*
X86047646Y-54202354D01*
X85973143Y-54141212D01*
X85888144Y-54095779D01*
X85795915Y-54067802D01*
X85700000Y-54058355D01*
X85589992Y-54058355D01*
X85589992Y-53877108D01*
X85582864Y-53841270D01*
X85579284Y-53804927D01*
X85568684Y-53769984D01*
X85561555Y-53734142D01*
X85547570Y-53700378D01*
X85536970Y-53665436D01*
X85519757Y-53633233D01*
X85505772Y-53599470D01*
X85485469Y-53569085D01*
X85468256Y-53536881D01*
X85445091Y-53508655D01*
X85424788Y-53478269D01*
X85398945Y-53452426D01*
X85375782Y-53424202D01*
X85347559Y-53401040D01*
X85321715Y-53375196D01*
X85291325Y-53354890D01*
X85263102Y-53331728D01*
X85230903Y-53314517D01*
X85200514Y-53294212D01*
X85166747Y-53280225D01*
X85134547Y-53263014D01*
X85099609Y-53252416D01*
X85065842Y-53238429D01*
X85029997Y-53231299D01*
X84995056Y-53220700D01*
X84958715Y-53217121D01*
X84922876Y-53209992D01*
X84886339Y-53209992D01*
X84849992Y-53206412D01*
X84813645Y-53209992D01*
X84777108Y-53209992D01*
X84741270Y-53217120D01*
X84704927Y-53220700D01*
X84669984Y-53231300D01*
X84634142Y-53238429D01*
X84600378Y-53252414D01*
X84565436Y-53263014D01*
X84533233Y-53280227D01*
X84499470Y-53294212D01*
X84469085Y-53314515D01*
X84436881Y-53331728D01*
X84408655Y-53354893D01*
X84378269Y-53375196D01*
X84352426Y-53401039D01*
X84324202Y-53424202D01*
X84301040Y-53452425D01*
X84275196Y-53478269D01*
X84254890Y-53508659D01*
X84231728Y-53536882D01*
X84214517Y-53569081D01*
X84194212Y-53599470D01*
X84180225Y-53633237D01*
X84163014Y-53665437D01*
X84152416Y-53700375D01*
X84138429Y-53734142D01*
X84131299Y-53769987D01*
X84120700Y-53804928D01*
X84117121Y-53841269D01*
X84109992Y-53877108D01*
X84109992Y-54058355D01*
X84000000Y-54058355D01*
X83904085Y-54067802D01*
X83811856Y-54095779D01*
X83726857Y-54141212D01*
X83652354Y-54202354D01*
X83591212Y-54276857D01*
X83545779Y-54361856D01*
X83517802Y-54454085D01*
X83508355Y-54550000D01*
X81491645Y-54550000D01*
X81482198Y-54454085D01*
X81454221Y-54361856D01*
X81408788Y-54276857D01*
X81347646Y-54202354D01*
X81273143Y-54141212D01*
X81188144Y-54095779D01*
X81095915Y-54067802D01*
X81000000Y-54058355D01*
X79300000Y-54058355D01*
X79283298Y-54060000D01*
X70716702Y-54060000D01*
X70700000Y-54058355D01*
X69000000Y-54058355D01*
X68904085Y-54067802D01*
X68811856Y-54095779D01*
X68726857Y-54141212D01*
X68652354Y-54202354D01*
X68591212Y-54276857D01*
X68545779Y-54361856D01*
X68517802Y-54454085D01*
X68508355Y-54550000D01*
X66491645Y-54550000D01*
X66482198Y-54454085D01*
X66454221Y-54361856D01*
X66408788Y-54276857D01*
X66347646Y-54202354D01*
X66273143Y-54141212D01*
X66188144Y-54095779D01*
X66095915Y-54067802D01*
X66000000Y-54058355D01*
X64440148Y-54058355D01*
X64443084Y-54051266D01*
X64469600Y-53917959D01*
X64469600Y-53782041D01*
X64443084Y-53648734D01*
X64391070Y-53523162D01*
X64315558Y-53410150D01*
X64219450Y-53314042D01*
X64106438Y-53238530D01*
X63980866Y-53186516D01*
X63847559Y-53160000D01*
X63711641Y-53160000D01*
X63578334Y-53186516D01*
X63452762Y-53238530D01*
X63339750Y-53314042D01*
X63243642Y-53410150D01*
X63168130Y-53523162D01*
X63116116Y-53648734D01*
X63089600Y-53782041D01*
X63089600Y-53917959D01*
X63116116Y-54051266D01*
X63119734Y-54060000D01*
X55808737Y-54060000D01*
X55808728Y-54060001D01*
X55716719Y-54060001D01*
X55700000Y-54058354D01*
X54000000Y-54058354D01*
X53904085Y-54067801D01*
X53811856Y-54095778D01*
X53726857Y-54141211D01*
X53652354Y-54202353D01*
X53591212Y-54276856D01*
X53545779Y-54361855D01*
X53517802Y-54454084D01*
X53508355Y-54549999D01*
X51491645Y-54549999D01*
X51482198Y-54454084D01*
X51454221Y-54361855D01*
X51408788Y-54276856D01*
X51347646Y-54202353D01*
X51273143Y-54141211D01*
X51188144Y-54095778D01*
X51095915Y-54067801D01*
X51000000Y-54058354D01*
X49540001Y-54058354D01*
X49540001Y-53941254D01*
X49544064Y-53900000D01*
X49540001Y-53858746D01*
X49540001Y-53858737D01*
X49527847Y-53735332D01*
X49479814Y-53576992D01*
X49401815Y-53431064D01*
X49296844Y-53303158D01*
X49264793Y-53276854D01*
X47423151Y-51435213D01*
X47396843Y-51403157D01*
X47268937Y-51298186D01*
X47123009Y-51220187D01*
X46964669Y-51172154D01*
X46841264Y-51160000D01*
X46841253Y-51160000D01*
X46800000Y-51155937D01*
X46758747Y-51160000D01*
X46490115Y-51160000D01*
X46415983Y-51159975D01*
X46381745Y-51118255D01*
X46273147Y-51029131D01*
X46149248Y-50962906D01*
X46014811Y-50922125D01*
X45875000Y-50908355D01*
X44125000Y-50908355D01*
X44105957Y-50910231D01*
X44151188Y-50865000D01*
X135848813Y-50865000D01*
X135894044Y-50910231D01*
G37*
%TD.AperFunction*%
%TD*%
D21*
%TO.N,+12V*%
X135356678Y-52000000D02*
X134670492Y-52659872D01*
X134571619Y-52614934D01*
X134570935Y-52614647D01*
X134470879Y-52576046D01*
X134470052Y-52575759D01*
X134373361Y-52545931D01*
X134372459Y-52545689D01*
X134275835Y-52523504D01*
X134274962Y-52523336D01*
X134175107Y-52507664D01*
X134174361Y-52507569D01*
X134067979Y-52497280D01*
X134067415Y-52497238D01*
X133951207Y-52491203D01*
X133950834Y-52491189D01*
X133821504Y-52488276D01*
X133821298Y-52488273D01*
X133675548Y-52487355D01*
X133675472Y-52487355D01*
X133522700Y-52487304D01*
X133522700Y-51512696D01*
X133675472Y-51512644D01*
X133675548Y-51512644D01*
X133821298Y-51511726D01*
X133821504Y-51511723D01*
X133950834Y-51508810D01*
X133951207Y-51508796D01*
X134067415Y-51502761D01*
X134067979Y-51502719D01*
X134174361Y-51492430D01*
X134175107Y-51492335D01*
X134274962Y-51476663D01*
X134275835Y-51476495D01*
X134372459Y-51454310D01*
X134373361Y-51454068D01*
X134470052Y-51424240D01*
X134470879Y-51423953D01*
X134570935Y-51385352D01*
X134571619Y-51385065D01*
X134670492Y-51340128D01*
X135356678Y-52000000D01*
%TA.AperFunction,Conductor*%
D20*
G36*
X135356678Y-52000000D02*
G01*
X134670492Y-52659872D01*
X134571619Y-52614934D01*
X134570935Y-52614647D01*
X134470879Y-52576046D01*
X134470052Y-52575759D01*
X134373361Y-52545931D01*
X134372459Y-52545689D01*
X134275835Y-52523504D01*
X134274962Y-52523336D01*
X134175107Y-52507664D01*
X134174361Y-52507569D01*
X134067979Y-52497280D01*
X134067415Y-52497238D01*
X133951207Y-52491203D01*
X133950834Y-52491189D01*
X133821504Y-52488276D01*
X133821298Y-52488273D01*
X133675548Y-52487355D01*
X133675472Y-52487355D01*
X133522700Y-52487304D01*
X133522700Y-51512696D01*
X133675472Y-51512644D01*
X133675548Y-51512644D01*
X133821298Y-51511726D01*
X133821504Y-51511723D01*
X133950834Y-51508810D01*
X133951207Y-51508796D01*
X134067415Y-51502761D01*
X134067979Y-51502719D01*
X134174361Y-51492430D01*
X134175107Y-51492335D01*
X134274962Y-51476663D01*
X134275835Y-51476495D01*
X134372459Y-51454310D01*
X134373361Y-51454068D01*
X134470052Y-51424240D01*
X134470879Y-51423953D01*
X134570935Y-51385352D01*
X134571619Y-51385065D01*
X134670492Y-51340128D01*
X135356678Y-52000000D01*
G37*
%TD.AperFunction*%
%TD*%
D21*
%TO.N,+12V*%
X45428380Y-51385065D02*
X45429064Y-51385352D01*
X45529120Y-51423953D01*
X45529947Y-51424240D01*
X45626638Y-51454068D01*
X45627540Y-51454310D01*
X45724164Y-51476495D01*
X45725037Y-51476663D01*
X45824892Y-51492335D01*
X45825638Y-51492430D01*
X45932020Y-51502719D01*
X45932584Y-51502761D01*
X46048792Y-51508796D01*
X46049165Y-51508810D01*
X46178495Y-51511723D01*
X46178701Y-51511726D01*
X46324451Y-51512644D01*
X46324527Y-51512644D01*
X46477300Y-51512696D01*
X46477300Y-52487304D01*
X46324527Y-52487355D01*
X46324451Y-52487355D01*
X46178701Y-52488273D01*
X46178495Y-52488276D01*
X46049165Y-52491189D01*
X46048792Y-52491203D01*
X45932584Y-52497238D01*
X45932020Y-52497280D01*
X45825638Y-52507569D01*
X45824892Y-52507664D01*
X45725037Y-52523336D01*
X45724164Y-52523504D01*
X45627540Y-52545689D01*
X45626638Y-52545931D01*
X45529947Y-52575759D01*
X45529120Y-52576046D01*
X45429064Y-52614647D01*
X45428380Y-52614934D01*
X45329508Y-52659872D01*
X44643322Y-52000000D01*
X45329508Y-51340128D01*
X45428380Y-51385065D01*
%TA.AperFunction,Conductor*%
D20*
G36*
X45428380Y-51385065D02*
G01*
X45429064Y-51385352D01*
X45529120Y-51423953D01*
X45529947Y-51424240D01*
X45626638Y-51454068D01*
X45627540Y-51454310D01*
X45724164Y-51476495D01*
X45725037Y-51476663D01*
X45824892Y-51492335D01*
X45825638Y-51492430D01*
X45932020Y-51502719D01*
X45932584Y-51502761D01*
X46048792Y-51508796D01*
X46049165Y-51508810D01*
X46178495Y-51511723D01*
X46178701Y-51511726D01*
X46324451Y-51512644D01*
X46324527Y-51512644D01*
X46477300Y-51512696D01*
X46477300Y-52487304D01*
X46324527Y-52487355D01*
X46324451Y-52487355D01*
X46178701Y-52488273D01*
X46178495Y-52488276D01*
X46049165Y-52491189D01*
X46048792Y-52491203D01*
X45932584Y-52497238D01*
X45932020Y-52497280D01*
X45825638Y-52507569D01*
X45824892Y-52507664D01*
X45725037Y-52523336D01*
X45724164Y-52523504D01*
X45627540Y-52545689D01*
X45626638Y-52545931D01*
X45529947Y-52575759D01*
X45529120Y-52576046D01*
X45429064Y-52614647D01*
X45428380Y-52614934D01*
X45329508Y-52659872D01*
X44643322Y-52000000D01*
X45329508Y-51340128D01*
X45428380Y-51385065D01*
G37*
%TD.AperFunction*%
%TD*%
M02*
